<?xml version="1.0" encoding="utf-8"?>
<!-- Generator: Adobe Illustrator 19.2.1, SVG Export Plug-In . SVG Version: 6.00 Build 0)  -->
<svg version="1.1" id="layer" xmlns="http://www.w3.org/2000/svg" xmlns:xlink="http://www.w3.org/1999/xlink" x="0px" y="0px"
	 viewBox="0 0 652 652" style="enable-background:new 0 0 652 652;" xml:space="preserve">
<style type="text/css">
	.st0{fill:#231F20;}
	.st1{fill:#939597;}
	.st2{fill:#FFFFFF;}
	.st3{fill:#37373A;}
	.st4{fill:#231F1F;}
</style>
<g>
	<path class="st0" d="M195.9,419.2l-1.5,5.7l-2-0.8l-0.6,1l1.2,0.4l0.3,0.7l-0.7,0.9l0.7,1.6l-1-0.5l-0.7,1.7l-1,0.2l1,0.9l-0.6,0.7
		l0.6,0.4l0.2-0.1l-0.2,1.2l-0.3-0.2l0.3,1.8l-1,0.4c-0.7,3.1-1.4,6.2-2,9.3c-0.7,3.7-1.2,6.8-1.4,9.4l-0.7-0.9l0.1-1.4l0.4-0.2
		l-0.6-0.8l0.2-0.7h1.1l-1.5-5.7l-1.8-1.2l0.2,2.5l-1.3,1.8l0.6,0.3l-0.4,0.9l-2.6-2.3l-1.7,1.8l0.6,0.5l-1.6,0.6l1.6,2.4l-0.6,0.6
		l0.9,1.5l-1.8,1.9l0.4,0.2c0-0.1,0-0.3,0.2-0.6c0.1,0,0.1,0.2,0.1,0.5l-0.1,1.5l0.8,0.7l1.1-2.7l0.5,0.9l-0.5,1.8l-0.2-0.2
		l-0.9,0.7l0.3,1.5l2.3-3l0.6,1.4l-1.4,2.7c-3.6-0.7-6-1.9-7.1-3.7l-0.8,1.2l0.8,1.1l1.1-0.2v1.7h1.5l-0.3,0.5l0.6,0.9l0.9-0.4
		l0.2,0.1l-0.7,2.3l-1.6-1.3l-0.7,0.6l0.7,1.1l-0.4,2.3l0.3,0.3l0.2-0.6l1.5,1l-0.7,2.9l-1.2-1.2l-0.4,0.7l0.8,1.6l1.3,0.4h-3.6v0.4
		l-2-0.1v1.1l2.1-0.3l1,0.7l0.2-0.2l1.5,2l1.5-2.3l0.6,0.1l1.1,1.3l2.3-0.2l-0.2,2.3l-1.2-1.2l-0.6,0.8l0.9,1.4h0.9l-2,0.5l1.5,1.3
		l0.3-0.8l-0.3,2.6l-12.9,0.8l-2.1-1.2l0.6-0.4l-3.7-10.6l1.1-0.4l2.7,1l0.8-1.3l-2.7-1.4l-0.4,0.3l0.6,1.2h-0.3l-0.9-0.6l-0.8,0.3
		l-0.7-1.2l1.8-0.2l0.2-1.2l-1.6-0.9l-5.6-18.3h-0.6l0.6-2.4l0.3,1l2.1-0.6l-2.4-1.1l2.1-1.3l-0.5-0.4l0.8-1.2
		c-0.6-0.9-1.6-2.3-3.1-4.1l-0.3,6.6l-3.1-10.4h-0.2v5.7l-0.7,0.5l1.2,0.7L153,442l0.3,0.8l-1.8,0.9l0.4,0.4l1.1-0.6l0.3,0.2
		l-0.7,2.1l0.4-0.3l-0.7,2.9l-0.2-0.9l-1,0.7l-0.5-0.2l0.5-2.2l0.7-0.6l-0.7-1.6l0.2-0.8l-1.1-1.1l2.9,1l-1.8-5.3l0.3-0.3l-2.6-7.8
		l-0.8,1l-0.6-1v5.3l0.9,0.3l-3.1,4.5l0.7,0.2l2.4-0.2l-0.3,3.2l-0.6,0.1l2.7,3.7l-0.5,0.6l0.9,2.9l-0.1,0.6
		c0.5-0.4,0.7-0.6,0.6-0.6l0.1,0.6l-2.8,2.7l0.7,1l2.1-0.2l0.5,0.8l0.3-1.2c0.8,1.1,1.4,3,1.7,5.7c0.1,2.1,0.2,4.2,0.4,6.2l-1,0.4
		l-1.6-0.4l-0.8,2.1l1.4,0.4l-1.2,3.8l0.9-0.8l1.1,0.4l0.7-0.6l1.3,0.8l-0.3-0.4l-0.3,3.1l-0.8-1.4l1.4,8.3l-0.2-0.4l-0.6,1.2
		l-0.8-1.6l-0.9-0.3l0.4-1.8l-0.7-0.7l-1.4,4.4l-0.7-0.8l-2.1,1.1l-1-0.5l-0.7,0.5l-1.1,0l-1.1-1.5l-9.9,1.9l-0.3-0.4l-0.3-13.2
		l1.4-0.3l0.5,1.9c1.8-9.8,2.7-16.6,2.7-20.5c0-1.1,0-2.1-0.1-3.1l-0.8,1.6l0.5,1l1.2-2.2l-0.4-0.8l1.2-1.2l-0.8-0.3l0.3-0.4
		l-0.9-1.5l-0.9,2.7l0.2,0.4l-1.1-0.8c0.6-1.9,1.2-3.8,1.8-5.6c0.7-2.2,1-4,1-5.8l-0.9-0.2l-1.3,1.7l-3.7-2.3l-0.3-14l12.6-0.3
		l2.9,3.4l0.6,3.9l0.8-0.8l0.4-4.5l-0.6-0.6l4.6-1.1v2.8l0.3,0.1l1-0.5l-0.4-1.5l2.4-1.2l-0.2,0.3l0.8,0.4l2-0.3l0.9,0.8l-0.6-0.4
		l0.8,2.6l0.9-2.8l-0.3-0.3l1.2,2.5l1.1-2l0.5-0.2l0.6,0.8l0.2-0.8l0.6,1.4l-0.2,0.2l-0.3-0.6l-2.9,1.8l2.3,0.3l-1.1,5.1l0.6,1.2
		l0.5-0.6l-0.3-1.2l1.4-2.8l-0.2-1.1h0.5l-0.2,0.2l4.8,24.3l-2.1,1l0.7,0.7l-0.6,0.7l1.2,0.8l0.9-0.8l0.9,0.4l-0.6,4.7l0.1-1.5
		l-0.4-0.7l0.6,4.3l0.4-0.7l1.3,1.1c1.6-4.3,2.8-9.5,3.6-15.5c0.5-5.3,1-10.6,1.5-15.9h0.4l1.4-7.1l-0.3-0.3c0.4,0,1.2,0.1,2.5,0.2
		c1,0.1,1.8,0.2,2.6,0.2c1.6,0,3-0.3,4.1-0.9l0.6,0.2l0.8,1.8l0.4-0.4l-2,1.5l1,0.1l0.5,1.6l-0.5,1.1l0.1,0.2l-0.1,1l0.4,0.3
		l1.4-0.9l-0.3-1l1.2-1.5l-0.3-3.4l2.8-0.5L195.9,419.2z M138,471.5l-0.3-0.6l-1.1-0.2v1.2L138,471.5z M138.1,458h-0.5v2
		C137.7,459.2,137.9,458.5,138.1,458 M138.8,453.3v-0.4l-1,0.7l0.1,0.1L138.8,453.3z M139.6,471.3h-1v0.2h1V471.3z M140.2,443.3
		l-1.4,1l1.6,1.2L140.2,443.3z M143.1,465l-1.5-1.7l-0.9,1.7l-1.6-1.3l-0.2,0.1l1.4,2.4L143.1,465z M141.5,455.6l-1-0.4l-1.1,1.4
		l0.2,0.7L141.5,455.6z M141.5,431.5l-1.4-0.2l-0.5,2.8l0-0.2h0.4l0.2,0.5l0.9-2.1l-0.9-0.3L141.5,431.5z M141.7,457.2v-0.7
		l-0.9,1.3L141.7,457.2z M141.7,470.9h-0.6v1h0.4L141.7,470.9z M142.5,437.8h-0.7v0.5h0.7V437.8z M143.3,428.9l-1.2,0.8
		c0.1,0.3,0.2,0.4,0.5,0.4c0.5,0,0.8-0.3,0.8-0.9C143.4,429.1,143.3,429,143.3,428.9 M142.8,454.4v-0.6l-0.5,1.2L142.8,454.4z
		 M142.5,443.7v-1.4C142.3,442.7,142.3,443.2,142.5,443.7 M144.3,470.9l-1-0.2v0.6L144.3,470.9z M147.2,425.1l-0.4-3.3l-0.2,0.2
		l-0.7-0.9l-0.1,2.6l-0.6-0.6l-1.5,0.9l0.2,2.3l0.1,0.1v0h0.3v-1.1h1.1l-1.7,2.6l2.3-0.3v0.3l1.5,1.2l1.2-1.7l0.2,1.4
		c0.3-0.2,0.5-0.5,0.5-0.9c-0.1-0.5-0.3-0.8-0.6-0.8c-0.2-0.1-0.4,0-0.7,0.3c-0.3,0.4-0.5,0.5-0.6,0.5c-0.6,0.1-1-0.4-1-1.7
		C146.4,425.6,146.6,425.2,147.2,425.1 M145.2,452.4l-0.9-0.2l-0.6,0.5L145.2,452.4z M145.2,441.3l-0.4-0.8l-0.5,0.9L145.2,441.3z
		 M146.8,466.4l-0.2-1.7h-1.4l0.6,1.7H146.8z M146.2,428.9c-0.7,0.9-0.8,1.7-0.5,2.6h0.1L146.2,428.9z M146.5,434.1v-0.8l-0.7-1
		L146.5,434.1z M149.6,474.2l-1.4-2.1l1.2-0.2c-0.3-0.2-1.1-0.4-2.2-0.4l-0.4,1.2c-0.1-0.2,0.1-0.4,0.5-0.4c0.4-0.1,0.7,0,1.2,0.2
		c0.4,0.1,0.5,0.3,0.4,0.5c-0.2,0.6-0.7,0.7-1.2,0.6l0.4,0.6H149.6z M148,447.9l-0.6-0.4c-0.6,0.7-0.7,1.4-0.2,2l-0.1-0.2L148,447.9
		z M148.2,444.1H148v1.1h0.3V444.1z M149.4,465.8H149l-0.5,0.6L149.4,465.8z M152.5,429.4l-1.6,1.9l-0.5-0.4h-0.3l1-1.6L152.5,429.4
		z M152,477.1l-0.9-0.9v1.1L152,477.1z M152.2,472.7l-0.2-0.8l-0.6,0.4L152.2,472.7z M152.2,469.3c0.1,0,0.2-0.1,0.3-0.1
		c0.5,0,0.7,0.3,0.7,0.9c0,0.2-0.2,0.4-0.4,0.5c-0.3,0-0.5-0.1-0.7-0.5C152,469.7,152,469.5,152.2,469.3 M155.2,429.4l-1.2-1.2
		l-1.5,2.5l0.4,1.2l1.1-2.1l0.3,0.2L155.2,429.4z M153.2,451.3l-0.1-2.7h0.1V451.3z M154,456l-0.2,0.2l-0.5-2.1l0.5-0.1L154,456z
		 M154.3,476.7l-0.6-1.6h0.6V476.7z M157.3,427.6l-1.1-0.5l0.3,1l-0.3,1.2L157.3,427.6z M156.8,437v-1.2l-0.6,0.6L156.8,437z
		 M156.8,430.5l0.3-0.5l-0.6,0.7v0.1h0.1l0.5,1.1L156.8,430.5z M160.9,423.7l-0.4-0.8l-0.8,2.6c-0.7,0-1.2,0.4-1.2,1.1
		c0,0.8,0.4,1.2,1.2,1.2v-1.4c0,0,0-0.2,0-0.4c-0.1-0.1-0.1-0.3-0.1-0.4C159.6,424.7,160,424.1,160.9,423.7 M165.2,447l-1.2,1
		l-0.6-2.8l-0.2,0.2l0.2,0.2l0.2-0.1H162l0-0.1l0.9,1.6l-2.4-2.9l1.5-0.4v-0.4l-2-0.4l0.3,4.1c0.2-0.2,0.4-0.2,0.7-0.2
		c0.4,0,0.7,0.1,1,0.5c0.3,0.3,0.4,0.7,0.3,1.1c0,0.1-0.4,0.8-1.2,2.3l0.9-0.9v-0.6l2.8-0.7L165.2,447z M160.9,440.9h-0.4v1.3h0.4
		V440.9z M168.2,449.1l-1.1-1.5l-0.6,1.5h-1.8l-0.8,0.7v0.7l2.2-0.7l0.7,0.7v-0.1l-0.1,0.1v-1.8l0.6-0.6L168.2,449.1z M166.6,452.1
		h-0.4v2h0.4V452.1z M170.5,459.5l-0.7-0.2l-1,1.4l0.4,0.9l-2.9,2.2L170.5,459.5z M167.2,472.1l-0.6-1.2v1.2H167.2z M169.1,454.1
		l-0.3-1.8C168.9,452.5,169,453.2,169.1,454.1 M172.9,470.7l-1.2,0.8l-0.6-1.5l-0.7,0.6l-0.2-0.2v0L172.9,470.7z M173.1,459.5
		l-1.3-1.1l1.2,2.1L173.1,459.5z M175.7,467.6l-1.9-1.5l0.7-0.9l-0.7-0.3l1.1,2.7l0.2-0.4L175.7,467.6z M177.2,450.1l-0.3-1
		l-1.2,0.6L177.2,450.1z M179.7,463.7l-0.6,2.7l-1.5-1.2l1.2-0.3l0.1-0.5L179.7,463.7z M179.1,437.2l-0.5-1v1H179.1z M178.9,468.7
		h-0.2v-0.9h0.2V468.7z M183.2,472.7l-2.4-4.6l-1.1,0.9l1.5,4h-2l0.9-0.6l-0.3-3.7l1.8-2.5C182.3,468.4,183,470.6,183.2,472.7
		 M181.5,428.6l-1.2-1l-0.6,0.5L181.5,428.6z M181.9,452.9L181.9,452.9l-0.2-0.6l-0.2,1.8h-0.9c0-0.8,0.4-1.6,1.2-2.3
		c0.3-0.2,0.5-0.3,0.7-0.3c0.1,0,0.2,0,0.2,0.2c0,0.8-0.2,1.2-0.7,1.2C182,453,182,452.9,181.9,452.9 M181.9,440.9l-0.5-3.4
		l-0.9,0.3l0.2,3.1H181.9z M186.6,454.4l-3.4,8.9l1,0.6l0.3-0.2l-1.1,2.8l0.4,1.4l-1.9-2.9l0.9-0.6v-2.4l-1.4,1.7l0.9-1.7l0.4-0.1
		l0.1-0.2h0.1l-0.6-0.1l0.7-0.8l-0.1-0.2l1.7,0.2l0.2-2.3l0.6-0.4l-1.1-0.1v-2.7l-2,1l0.3-0.4l-0.7-0.6l1.9-1.4h-0.4l0.9,0.4
		l1.4-6.2l0.8,0.8l-1.8,5.5l0.6,0.2l-0.1-0.2l0.2-0.4l0.3,0.3l-0.5,0.7c-0.3-0.2-0.7-0.4-1-0.1c-0.1,0-0.1,0.1-0.1,0.1
		c0,0.6,0.3,0.9,0.9,0.9c0.1,0,0.2-0.1,0.3-0.2L186.6,454.4z M182.9,449.8l-1.4,1.1l0.9-1.4L182.9,449.8z M183.2,420.4l-1.3,1.5h0.4
		L183.2,420.4z M183,433.1l-1.1-0.8v0l0.4,1.2l-0.4,0.4l0.3,0.1L183,433.1z M182.9,444.1v-0.6l-0.9,1.3L182.9,444.1L182.9,444.1z
		 M184.4,432.7v-1.9l-2-1.8l1.1,1.4l-0.8,0.5L184.4,432.7z M182.9,422.6h-0.3v1.5h0.3V422.6z M183.6,439.9l-0.2-0.1l-0.8,1.1
		l0.2,0.4L183.6,439.9z M183.9,441.8l-1.1,1l0.9,0.1L183.9,441.8z M183.8,452.7h-0.6l0.6-0.8V452.7z M185.4,442.3l-0.6-1.9h-1
		l-0.4,0.9l0.5-0.5L185.4,442.3z M185.4,435v-1.5h-0.6L185.4,435z M186.6,436.4l-1.3,1.4l0.2,0.8L186.6,436.4z M190.1,432.3
		l-1.2-0.3l0.8-0.1l-0.8-3.8l-0.7,1.2l-1.9-2.7l-0.5,1c1.5,0.3,2.2,1.2,2.2,2.8c0,0.7-0.2,1.2-0.6,1.7l1.1-0.5l0.3,0.4l-0.3,1
		l0.9,0.6L190.1,432.3z M188.1,438.6v-0.8l-0.9-0.3L188.1,438.6z M188.1,436.1c0-0.2-0.1-1.2-0.4-2.8L188.1,436.1z M189.5,431.5
		h-0.5l0.5-0.8V431.5z M213.5,481.6h-12.3l-0.8-0.8l-0.2,0.8c-1,0.4-1.9,0.6-2.8,0.6c-2,0-3.7-0.8-5-2.5c-1.4-1.7-2-3.5-2-5.5
		c0-2.5,1.1-4.5,3.2-5.8l1.4,2.1l-0.2,0.3l1.2,1.1l1-1.2l2.1,1.2l0.5-0.4l-1.2-1l-0.2,0.6l-0.7-1.8h-0.6l-1.7-3.5l0.2-0.5l-1.1,0.9
		l-1-0.4l-0.2,1.8h-0.3l-0.3-0.8l0.1-0.2l0.3-0.8l0.2-1l-0.2-0.6l-0.3,0.4v-4.8l0.3,0.1l0.3-0.7l-0.3-0.6l0.2-2.1l-0.8-1.4l1-1.5
		l-0.8-3.5h0.3l-0.3-16.3l0.8-0.4l2.1,2.9l0.7-0.9l-0.4-0.2l-1-1.9l0.2-0.4l-0.5-0.9l-1,0.8l-0.8-0.8l1.2-0.1l-1.2-1.4l-0.5,0.4
		l2.8-2.3l1.1-4l0.1,0.9l1.2-4.9l0.2,0.6l-0.4,1.9l1,1.1l1-0.5l-0.7-0.6l0.3-0.8h0.4l0.7-0.4l0.4-1.5l-1.5-1.8l6-0.6v-0.4l2.1,2.3
		l0.8-1.5l0.2,0.5l2.7,1l-0.3-0.2l0.5-0.1l-0.2,0.9l0.3,0.4l1.1-0.7l0.6,0.9l-1.5,0.4l0.9,0.2l0.2,0.6l-1.6,0.3l2,1.8l-0.4,0.8
		l0.5,1.9l-0.9,1l1.2,1.4l-0.1,2.3l-0.7-0.6l-0.4,0.7l0.9,0.7l-2.5,1l0.2,16.2l-0.4,0.4v-0.1l-0.5,6.4l0.2,0.2l-0.6,0.1l-2.2-2.1
		l0.5-1.5l-0.5-0.6l-0.4,0.9l-0.2-0.4c0.2,0.7,0.3,1.4,0.3,2.1c0,1.9-0.8,3.1-2.3,3.4v0.9l-0.8-0.2l-0.7,1.1l0.1,0.2h-0.5l-0.5-0.9
		l-1.2,1.9l0.6,0.8l0.9-0.4l1.4,1.9l0.6-1.1l-0.6-2l1.6,0.3l0.4,0.6l1.6-4.6l0.6,1.1l-0.3,0.4l1.5,1.5V458l1.9,10.1h2.9V481.6z
		 M191.7,427.8c-0.2-0.4-0.2-1.1-0.2-2L191.7,427.8z M194.8,454.1l-1.6,1.4l1.4,0.2L194.8,454.1z M196,450.1l-0.5-0.3l-1.5,2.9h0.7
		l-0.1-1l0.7-1l0.2,0.2L196,450.1z M194.8,438.1v-0.9h-0.2L194.8,438.1z M195.9,464.3l-0.4-0.2l0.4-0.4l-1.1-0.5v2L195.9,464.3z
		 M196.7,453.3l-0.4-0.4l-0.8,0.8L196.7,453.3z M196,446.1l-0.1,0.4c0,0.1,0.2,0.3,0.4,0.7L196,446.1z M198,444.3l-1.7-2.5
		c0.3,0.4,0.7,1.1,1.2,1.9c0,0.1,0.1,0.4,0.3,1.1L198,444.3z M197.8,478.5l-0.3,0.8l-0.2,0.2v-1H197.8z M199.7,441.8h-0.2v1.2h0.2
		V441.8z M200.6,426.2h-0.2l-0.2,1.4h0.2L200.6,426.2z M202.3,464.3v-0.6l-0.8,1.2L202.3,464.3z M205.4,445.2l-0.5-3.1
		c0.2,0.1,0.3,0.3,0.3,0.6c0,1-0.4,1.5-1.2,1.5c-0.3,0-0.6-0.2-0.7-0.7l-0.6,0.2l1.6,1.2l-0.1,0.1L205.4,445.2z M203.4,452.4l-0.9-1
		v1H203.4z M205.4,479l-0.5-0.6l0.4-0.3l-1.8-3c1.6,0.1,2.3,0.9,2.3,2.5C205.7,478.2,205.7,478.6,205.4,479 M204.8,437.2h-0.5v1.2
		L204.8,437.2z M204.8,446.6l-0.5-0.8v0.8H204.8z M205.4,463.3l-0.1-0.3v0.6L205.4,463.3z M206.7,447.9c-0.5-0.1-0.8,0-1.1,0.4
		c-0.3,0.4-0.4,0.8-0.2,1.2c0.2-0.1,0.5-0.2,0.7-0.2c0.3,0,0.7,0.2,1.1,0.4c0.4,0.3,0.7,0.5,0.9,0.5c0.6,0,0.9-0.3,0.9-0.9
		c0-0.4-0.2-0.8-0.6-1.1c-0.4-0.4-0.8-0.5-1.2-0.5C207,447.7,206.8,447.8,206.7,447.9 M206.3,477.1l0.6-0.4v-1.5l-0.6,0.6l-0.2-0.2
		l0.8,3.5l0.6,0.4l-0.3,1.5L206.3,477.1z M208.4,462.2L208.4,462.2l-1.5-0.3v0.8C207.4,462.7,207.9,462.5,208.4,462.2 M210.1,422.6
		l-2.4-0.3c0.2,0.6,0.6,0.8,1.3,0.8C209.4,423.2,209.8,423,210.1,422.6 M211.1,478.2l-0.8-0.5v0.5l-2,0.3L211.1,478.2z M210.6,430.4
		l-0.2,0.1l-1-1.9l0.8,1.9l0.1-0.1H210.6z M211.9,429.3L211.9,429.3l-0.1-0.4l-1.2-0.6L211.9,429.3z M212.6,419.5l-1.5-1.1l1.5,0.5
		V419.5z"/>
	<path class="st0" d="M268.9,450.5l-0.5,0.5c0.5,1.4,0.8,3.1,0.7,5.2h-1.6l-0.7,1.8l1.2,1.9l0.3-0.4l0.5,1.1l-0.8,3.5l0.8,0.2
		c-0.3,0.8-0.5,2.2-0.4,4.1c0,1.7-0.3,3.1-0.8,4l0.4,0.3l-2,1.7l-0.3-0.3l-0.4,0.9l-0.4-1.1l0.5-2.4l-0.9-0.6l-0.5,2.8l-0.7-0.2
		l-1,1.5c-1-0.9-1.5-1.9-1.8-3.1h0.6l0.7,1.2l0.5-1.2l0.5,0.4l0.4-2.3l0.1,0.1l0.9-0.6l-0.3-0.8l-2.2,0.6l0.2,1.6
		c-0.3-1.9-0.8-3.3-1.4-4.3l-0.8,1l0.8,3.2l-1,0.7l0.2,0.4c-1.2,0.4-2.1,1.1-2.7,1.8h1l-1.2,1.8l2.2,2.6l0.6-0.5l0.8,0.5l0.3,1.2
		c-1,2.2-4.2,3.3-9.8,3.3c-1.7,0-3.6-0.1-5.4-0.4l-2.4-0.3c-0.5,0-1,0-1.6,0.3l1.7-2.2c-0.5-1-1.3-1.8-2.6-2.3c-0.8,1-1.1,2.5-1,4.3
		c-1.2,0.5-2.5,0.7-3.9,0.7c-2.6,0-4.8-0.7-6.7-2.2c-4-3.1-6.8-6.5-8.5-10.5c-1.3-3.2-1.9-7.1-1.9-11.7c0-1.9,0.2-4.8,0.4-8.6
		c0.3-4.1,0.5-7.2,0.5-9.2l0.5-0.5c-1-1.3-1.5-2.7-1.5-4.2c0-3.7,2.3-7.5,7.1-11.4c4.5-3.7,8.5-5.5,12-5.2l0.3,2.6
		c0.2,0.1,0.4,0.2,0.7,0.2c0.7,0,1.7-0.6,2.8-1.8c1.2-1.1,2-1.7,2.6-1.7c0.6,0,1.2,0.4,1.8,1.4l2.8-0.9l1.7,1.7l-0.2,0.4l0.7,0.6
		l-0.7-0.4l-0.8,1.5l0.5,0.6l-0.8,2.7l0.5,0.1l1.6-1.6l0.5,0l0.1,1.6l0.8,1l0.3-1.1l-0.3,3.2l2-0.8l-0.9-1l1.3-0.7l-1-0.6l0.6-1.6
		l-0.9-0.6l1.6,1.6l1.4-0.6l1,0.6v0.4h2.6l1.9-2.4c2.3,1,4,2.9,5.1,5.5c0.7,1.6,1.3,4.1,1.8,7.4h-0.4c0.2,1.9,0.2,4.2,0.1,7
		C269,447.6,268.9,450,268.9,450.5 M225.2,463.7c-0.7-0.2-1.4,0-2.1,0.6c0.4,0,0.8,0.1,1,0.1c0.3,0,0.5-0.1,0.9-0.3
		c0.4-0.2,0.7-0.2,1-0.2c0.3,0,0.6,0.1,0.9,0.4c0.3-0.3,0.5-0.6,0.5-0.7c0-0.2-0.2-0.3-0.5-0.3C226,463.3,225.5,463.4,225.2,463.7
		 M225.2,433.8c-0.3-0.7-0.7-1-1-1.1c0,0.5,0,0.7,0.1,0.9C224.5,433.7,224.8,433.8,225.2,433.8 M224.8,461.9V461l-0.2,1.2
		L224.8,461.9z M230.3,460.5c-0.2-0.3-0.6-0.6-1.4-0.9c-0.7-0.4-0.9-0.7-0.9-1.1c-0.8,0.4-1.2,0.8-1.2,1.2c0,0.2,0.1,0.4,0.3,0.9
		c0.1,0.4,0.3,0.7,0.3,0.9c0,0.3-0.1,0.6-0.5,0.8c-0.1-0.2-0.2-0.4-0.2-0.8c0-0.2,0-0.5,0.1-0.8v-0.8c0-1.2-0.5-2-1.5-2.3
		c0.2,0,0.4,0.1,0.6,0.3l0.2-0.7l1.4,1.2c0.3-0.1,0.4-0.4,0.3-1.2c0.1,0.4,0.3,0.8,0.5,1.5c0.2,0,0.4-0.1,0.5-0.3
		C229.2,459,229.6,459.7,230.3,460.5 M232.7,464.3c-0.6,0.2-1.5,0.7-2.8,1.1c0.2-0.2,0.3-0.4,0.3-0.7c-0.1-0.2-0.2-0.2-0.3-0.4h0.9
		v-0.6l0.8,1c0.3-0.2,0.4-0.2,0.5-0.4H232.7z M230.5,434.7h0.3c0.5,0,0.8-0.5,0.8-1.4c0.1,0.1,0.2,0.2,0.3,0.4
		C231.9,433.8,231.5,434.2,230.5,434.7 M232.2,461.6l-1.1-1.5c0,0.9,0.1,1.4,0.5,1.4c0.1,0,0.2-0.1,0.3-0.2c0.1,0.1,0.3,0.2,0.6,0.3
		H232.2z M232,478.7c-0.6,0.4-0.8,0.8-0.8,1.4c0,0.2,0,0.3,0.2,0.4c0.1-0.1,0.2-0.2,0.5-0.5c-0.1-0.2-0.3-0.4-0.5-0.6
		C231.6,479.3,231.8,479,232,478.7 M232,430.9c0-0.3-0.2-0.5-0.6-0.9L232,430.9z M258.3,437.3l-0.1-0.3l-2.2,0.5
		c-0.3-0.5-0.9-0.9-1.7-1.4l-0.3,0.4l-0.6-0.4l-0.6,0.8l-0.3-0.6l-0.6,0.3c-0.4-0.9-1-1.4-1.7-1.5l0.6-1.1l-0.7,1.1l0.3,0.5l-1.1,1
		c-0.2-1.7-1.1-3-2.8-3.7c-0.3,0.2-1.2,0.3-2.4,0.3c-1,0.1-1.8,0.3-2.3,0.9c-0.8-0.1-1.4,0.4-1.8,1.5c-0.6,1.3-1,2-1.3,2.2v0.3h0.5
		v-0.3c0.3,1.2,0.5,3,0.3,5.4c-0.3,3.5-0.4,5.4-0.4,5.6c0,1.3,0.1,2.3,0.5,3l-0.7,0.6l-1.3-0.9l-0.2,0.8l0.6-0.5l0.6,0.9
		c-0.7,0.9-1.1,1.6-1.2,2.3l-0.8-0.2c0.1,0.1,0.2,0.4,0.4,1.2c0.1,0.5,0.3,0.7,0.7,0.8l-0.8,0.5l-1.5-0.8l0.9,0.8l-0.3,0.9h0.1
		l0.5-0.4l0.5,0.8l-0.2,1l0.5,0.5l-1.4,0.8v0.9l0.7,0.3l-1.4,1.2l-2.6-1l-0.7,0.3l1.7,1l-1,0.3l0.7,0.5l0.9-1.1c0.4,0,1.1,0.2,2,0.6
		l0.6-1.3l1.7-0.5c0.5,0.6,0.7,2.1,0.8,4.6c0.6,0.6,1.6,1.2,3,1.8c1.1,0.1,1.8,0.2,2,0.4c0.2,0.3,0.6,0.8,1,1.9
		c0-1.2,1.1-2.1,3.1-2.9c0.7-1.6,1.2-4.3,1.2-8.1V451h0.2l-0.5-0.5v-13l1.1-1.1l0.9,0.8l-0.2,0.9l1.2-1.1l0.2,0.8
		c0.8,0,1.4,0.1,1.8,0.3v0.2l-0.5,0.9l0.5,0.6c1.2-0.4,1.7-0.9,1.7-1.5l0.6-0.2l1,0.5l-0.1,0L258.3,437.3z M233.5,475
		c-0.5,0.4-0.8,1.2-0.9,2c-0.2-0.1-0.3-0.5-0.3-1.2L233.5,475z M233.1,473.6l-0.5-0.9v0.9H233.1z M241.7,427.3
		c-1.7,0.3-2.6-0.2-2.6-1.5c0-0.7-0.4-1.5-1.3-2.5c-0.8-1-1.3-1.8-1.3-2.4c0.1,0.5-0.2,1.3-0.9,2.3c0.5,0.7,0.9,1.3,0.9,1.7
		c0,0.3-0.1,0.5-0.4,0.7h-1.5c0.7,0.1,1.2,0.4,1.2,0.9c0-0.6,0,0,0,1.6c0,0.1,0,0.5,0.1,0.7c0.1,0.3,0.1,0.5,0,0.6
		c-0.1,0.2-0.3,0.5-0.7,0.6c0.9,0.8,0.9,1.4,0,1.9l-0.6-0.4c0,0.4-0.2,0.9-0.5,1.4l0.1,0.2l0.4-0.2c0.1,0.2,0.2,0.4,0.2,0.5
		c0,0.2-0.2,0.4-0.5,0.5c-0.3,0-0.7,0.1-0.9,0.2h1.7c0.4,0.5,0.5,1.5,0.2,2.9l0.9-0.6l-0.2,0.2c-0.2,0.1-0.5,0-0.7-0.2
		c0-0.7,0.2-0.9,0.7-0.9c0.7,0,1.2,0.3,1.6,0.9c0.1-1.8-0.3-3-1.1-3.5c0.4-0.4,0.5-0.8,0.5-1.4c0-0.5-0.1-1-0.1-1.5h0.4
		c0.1,0.3,0.4,0.7,0.9,1.3l-0.5-0.8c0-0.2,0.2-0.5,0.7-0.9c0.4-0.4,0.7-0.7,0.7-1l-0.3,0.6c-0.4,0.1-0.7,0.3-1,0.3
		c0.1,0-0.4-0.3-1.6-1l1.2-1l0.6,0.5c0.4-0.1,0.7-0.1,1,0l0.4-0.5L241.7,427.3z M238.4,446.4c-2.4,0-3.5-0.7-3.5-2.1
		c0-0.2,0-0.3,0-0.7v-0.6c0-0.9-0.3-1.5-0.8-1.9c0.6,4,0.4,6.3-0.8,6.8c0.2,1.1,0.6,1.9,1.1,2.5c-0.1-0.4,0.1-0.7,0.2-1
		c1.1,0,1.8,0.6,2.3,1.8c0.1-0.8,0-1.2-0.4-1.3c-0.9-0.3-1.2-0.5-1.3-0.5c0.2-0.4,0.6-0.9,1.2-1.5l-0.4-0.1
		C236.6,447.2,237.3,446.6,238.4,446.4 M236.2,453.7c-0.1-0.4-0.3-0.6-0.6-0.6c-0.1,0-0.4,0.1-0.8,0.2c-0.4,0-0.7,0.1-0.9,0
		c0.3,0,0.6-0.1,0.6-0.3l0.1-0.1c-0.1-0.2-0.3-0.4-0.6-0.8c0.1,0,0.3-0.2,0.3-0.4c0-0.1-0.2-0.4-0.5-0.7c0.1,0.8,0.4,0.9,1,0.2
		c0.5-0.2,1-0.3,1.3-0.2l-0.3,0.3c0.4,0.1,0.6,0.3,0.6,1C236.3,451.2,236.2,451.6,236.2,453.7 M236,454.8l-0.3-0.4l-0.6,0.4
		c-0.1-0.1-0.1-0.1-0.2-0.2v-0.1c-0.3-0.2-0.4-0.4-0.4-0.7l0.2,1.2c0.4-0.5,0.8-0.6,1.1-0.2H236z M235.3,438.6h-0.2v0.6h0.2V438.6z
		 M236.6,466.4v-0.8l-1.2-0.6l-0.2,1.1l0.2-0.4C235.8,465.8,236.2,466,236.6,466.4 M236.6,432.3l-0.6-0.8c0.2,0,0.3,0.1,0.6,0.4
		V432.3z M236.8,443.5h-0.2c-0.3-0.1-0.4-0.5-0.4-1.2H236v1.7h0.2L236.8,443.5z M237.6,470.8l-0.6,1.1c-0.3,0-0.6-0.1-0.8-0.4
		l0.4,0.6c0.8,0,1.2-0.4,1.2-1C237.8,471,237.7,470.9,237.6,470.8 M237.4,425.5h-0.6c0,0-0.1,0.1-0.2,0.2c-0.1-0.1,0-0.3,0.2-0.7
		c0.2-0.2,0.3-0.3,0.6-0.3V425.5z M238.9,454.8l-0.9,1.4l0.4-1.8L238.9,454.8z M238.9,460c-0.2,0.5-0.4,0.8-0.6,1l-0.3-0.3
		L238.9,460z M240.9,419.2l-1.6,1.6l-0.9-1.6H240.9z M238.9,459.1l-0.4-1.2l0.4,0.1V459.1z M239.9,431.5v-2.1
		c-0.4,0.8-0.6,1.2-0.6,1.5C239.4,431.2,239.6,431.4,239.9,431.5 M243.7,478.2l-0.2-0.6l-0.4-0.5l-0.3,0.2l0.7,1.2L243.7,478.2z
		 M244.2,426.2v-0.4h-0.8L244.2,426.2z M243.7,474.2h-0.2v1h0.2V474.2z M248.8,424.6c-0.4-0.4-0.7-1.1-1-2.1
		c-0.2-1.1-0.5-1.8-0.8-2.1l-1.1,0.9c0.5,0,0.8,0.3,1,0.9c0.2,0.7,0.4,1.2,0.7,1.3c-0.1,0-0.2,0.4-0.5,0.9c-0.2,0.3-0.5,0.5-1,0.5
		v1.3l1.5-1.7c0,0.2,0.1,0.4,0.2,0.5C248.1,424.6,248.4,424.5,248.8,424.6 M248.8,428.4l-0.7,0.9l0.1,0.1c-0.5,0.6-1.2,1.4-2.2,2.5
		c0.2-0.5,0.7-1.2,1.5-1.9l-0.4-0.2L248.8,428.4z M247.7,470.9c-0.2-0.3-0.4-0.6-0.9-1v1.4C247.2,471.3,247.5,471.2,247.7,470.9
		 M250.9,472.7v-0.3l-1.1-0.3l-0.1,0.3L250.9,472.7z M268,463.3c-0.3,0.4-0.6,0.9-0.9,1.7l0.6,0.7l-0.8,0.2l0.6-0.2
		c-0.2-0.2-0.5-0.4-0.9-0.4c0-0.3,0.1-0.6,0.3-1l-1.2-1l0.3-0.2c-0.3-0.2-0.7-0.4-1.2-0.8c-1.1,0.4-1.8,1.1-2.3,2.1
		c-0.5-0.1-0.8-0.4-1.2-0.9c-0.5-0.8-0.8-1.2-0.8-1.2c0-0.5-0.4-1.1-1.2-1.5c-0.8-0.5-1.2-1-1.2-1.6c-0.3-0.3-0.5-0.4-0.8-0.4
		c-0.2,0-0.4,0.1-0.8,0.1c-0.3,0.1-0.6,0.2-0.7,0.2c-0.7,0-1.3-0.7-1.7-2.1c0.6,0,1-0.2,1.2-0.6c0-0.2,0.1-0.6,0-1.4l-0.6-0.2
		l-0.6,0.4c0.2,0.3,0.3,0.6,0.3,1h-0.5c0.1-0.2,0.1-0.4,0.1-0.5c0-0.3-0.2-0.7-0.5-1c-0.4-0.4-0.6-0.7-0.6-1c-0.5,0-0.9-0.2-1.1-0.6
		c-0.3-0.4-0.6-0.8-0.9-1.2c0.2,0.7,1,0.8,2.3,0.5c0,0.4,0.2,0.8,0.7,1.2c0.4,0.4,0.7,0.7,0.7,0.8l0.3-0.2c0.5,0,0.9,0.5,1.5,1.4
		c0.6,0.9,1.1,1.4,1.7,1.4c0.2,0,0.6-0.1,0.9-0.2c0.6,0.7,0.9,1.3,0.8,1.7c-0.2-0.8-0.5-1.2-0.8-1.2v1.2h-0.4l-0.3,0.5
		c0,0.2,0.3,0.6,0.7,1.1l0.2-0.1c0.2,0.3,0.6,0.4,1,0.4l0.4-0.4c0.5,0.9,1.5,1.6,2.8,2c1.2,0.3,2.4,0.6,3.6,0.8l0.2-0.4
		c0.1,0.8,0.2,1.1,0.7,1.1C267.9,463.4,268,463.4,268,463.3 M252.4,457.6l-1-0.9l-0.2,0.5C251.8,457.2,252.2,457.4,252.4,457.6
		 M254,421.3l-1.1-0.9l-0.3,0.2c-0.4-0.2-0.7-0.4-0.9-0.8c0-0.1,0.2-0.2,0.7-0.4c0.1-0.1,0.2-0.2,0.4-0.2
		C253.4,419.3,253.8,419.9,254,421.3 M253.4,424.2h-0.9v-1.1L253.4,424.2z M254.8,467.6v-0.4c-0.6-0.2-1.3-0.6-2-1.1
		c0,0.4,0.2,0.7,0.8,0.9C254.4,467.4,254.8,467.6,254.8,467.6 M256.6,439.5c-0.5-0.1-0.9,0.2-1,0.7c-0.2,0.6-0.3,0.8-0.4,0.8
		c-0.1,0-0.4-0.1-0.7-0.2l0.9,0.9c0,0.4-0.2,0.6-0.7,0.6c-0.5,0-0.7,0.2-0.8,0.4c0.2,0.1,0.3,0.2,0.5,0.2c0.3,0,0.7-0.2,1.1-0.8
		l0.4,0.2v-0.2c-0.1-0.2-0.1-0.3-0.1-0.4C256,441.5,256.2,440.8,256.6,439.5 M257.5,420.4l-1.9,1.1l0.4,0.4c-0.3-0.2-0.5-0.1-0.7,0
		c-0.1,0.2-0.2,0.4-0.2,0.7v-1.2h0.3l0-0.3c-0.3-0.9-0.7-1.3-1.2-1.3C256,419.8,257,420,257.5,420.4 M254.8,435.1v-0.8l-0.3,1.2
		L254.8,435.1z M257,462.2l-1-2.7c-0.3,0.6-0.3,1,0,1.2C256.1,461.2,256.5,461.7,257,462.2 M256.6,457.6c-0.3,0-0.4,0.4-0.4,0.8H256
		L256.6,457.6z M257,430.4h-0.2v1.5h0.2V430.4z M258.1,426.3l-1-0.1v3.7C257,427.9,257.4,426.7,258.1,426.3 M259.5,463.7v-0.5
		l-1.3-0.2L259.5,463.7z M260,475c-0.3,0-0.6,0.1-1,0.2l0.6-0.2c0-0.2-0.2-0.4-0.4-0.5c-0.2-0.3-0.3-0.4-0.3-0.6
		c0-0.2,0.1-0.3,0.3-0.3C259.7,473.6,259.9,474.1,260,475 M259.8,421.4l-0.2,0.9l-0.4-0.3L259.8,421.4z M260,466.7v-0.9l-0.5,0.4
		L260,466.7z M261.8,437.8c-0.4,0-0.7-0.2-1-0.6c-0.3-0.4-0.5-0.6-0.7-0.7C260.6,436.9,261.3,437.3,261.8,437.8 M261.4,422.6h-1.1
		v-0.3h1.1V422.6z M261.9,459.3c-0.1-0.6-0.5-1.3-1-2.1l0.9,2.3L261.9,459.3z M262.3,464.1l-1.2-1.9c0.1-0.2,0.2-0.3,0.5-0.3
		c0.2,0,0.5,0.5,0.9,1.4c0,0,0.1,0.2,0.1,0.4C262.7,463.7,262.6,463.9,262.3,464.1 M264.9,467c-0.2-0.5-0.9-0.8-2.1-0.8
		c-0.3,0-0.6,0.3-0.6,0.8c0,0.2,0,0.4,0.1,0.7c0,0.4,0.1,0.5,0.1,0.7l1-1.1l0.7,0.6v-0.2C264.2,467.5,264.5,467.2,264.9,467
		 M264.5,476.7c-0.8-0.1-1.1-0.7-0.8-1.6c0,0.2,0.2,0.4,0.5,0.6c0.2,0.2,0.4,0.4,0.4,0.7C264.6,476.4,264.6,476.6,264.5,476.7
		 M266.3,468.4l-0.3-0.8c0,0.2-0.2,0.6-0.7,1.1c-0.4,0.5-0.6,1-0.6,1.4c0,0.3,0.1,0.4,0.1,0.7c0.3-1.6,0.7-2.4,1.2-2.4H266.3z
		 M267.5,431.9h-0.4l-0.2,0.8l0.2,0.1L267.5,431.9z M268.4,454.8c0-0.9-0.2-1.5-0.7-1.9l0.4,1.9H268.4z M269.1,457.6l-0.7-1.2
		c0.2,0,0.5,0.2,0.7,0.5V457.6z"/>
	<path class="st0" d="M340.8,428.9l-0.9,0.6l0.8,2.8l-1.1,0.7l-1.1-0.8l-0.3,0.4l-2.1-2.3L335,431l-1.3-0.6l-0.5,0.5l2.1,0.7v1.5
		l0.3,0.1l1-0.5l-0.4-0.6l1.9,2.3l0-0.1l-0.1,0.5l-0.3,1.4c-0.1,0.4,0,1.9,0.3,4.5c0.4,3,0.5,7.1,0.4,12.4
		c-0.1,5.8-0.1,9.9,0.2,12.3l-0.6,0.6c0.7,2,0.9,4.2,0.6,6.5l-0.6,0.3l0.6,1.2c-0.2,0.8-0.3,1.6-0.3,2.5c0,0.7,0,1.7,0.2,2.8
		c0.2,1.6,0.4,2.5,0.4,2.9h-28.5c-0.4-1.4-0.8-3.4-1.3-6.2l-0.3,0.8c-0.3-1.1-0.9-3.4-1.8-7.1c-0.7-3-1.4-5.3-2.2-6.9l0.9-0.4l1.3,3
		l0.7-2.2l-0.5-0.8l1.6-0.2l-0.1,2.2l0.4,0.2l1.2-0.6l-0.8-0.7l1-0.5l-1-0.7l0.2-0.4l1.2,1l-0.2-0.2l0.5,0l-0.7,0.6l1.5,1.3l0.4-0.1
		v-2.2l0.9,1.2l-0.9,1.1h1.1l0.4,1l1.1-2l-0.3,1l1.2,0.8l1.5-0.6l0.1-0.2l2.3,1.7l0.7-1.9l-1.5,0.2c-2.2-2-4.2-3.1-5.7-3.1
		c-0.4,0-0.8,0.1-1.2,0.1l-1.1-1.8l-2.1-0.2c-0.3-1.2-1.2-2-2.8-2.3l-0.3,1.5l0.5,0.3l-0.6-0.2l-2.2,1.5c0.2-0.4,0.3-0.9,0.3-1.4
		c0-1.2-0.6-2.5-1.8-3.8c2.1-0.8,3.2-2.1,3.3-3.7l-0.7-0.9l-0.1,0.1l0.4-1.5l-1.2-0.1l-0.3,2.3h0.3l-0.6,0.6l0.4,1l-0.6,0.7
		l-0.6-1.1l-0.8,0.7l-1-1.8l0.4-2l-0.9-1.6l-0.2,0.5l-1.5-3.2l0.3-1c-0.2-1.1-0.3-1.9-0.6-2.4c-0.3-0.8-0.8-1.5-1.4-1.9
		c-0.2-1.4-0.4-2.3-0.5-2.9c-0.3-0.9-0.7-1.8-1.3-2.5c-0.4,1.1-0.6,2.3-0.6,3.6c0,0.9,0.1,2.3,0.4,4.1c0.2,1.8,0.4,3.2,0.4,4.1
		c0,0.7-0.1,1.5-0.2,2.1l-0.5,0.4c0.9,1.4,1.3,2.9,1.3,4.6c0,2.5-0.8,4.9-2.2,7.3l-0.2-0.3l-1.5,1.5l0.3,0.4c0-0.5,0.4-0.9,1.1-1.1
		c0.9-0.2,1.4-0.4,1.5-0.8l0.8,2l-0.5,0.7l0.5,1.4l0.7-0.3v18.3c-2.3,0.1-4.6,0.3-7,0.4c-2.8,0.2-5.2,0.1-7-0.1
		c0-0.4,0.1-1.6,0.3-3.7c0.1-1.5,0.1-2.7,0-3.7l-0.8,0.8l0.4-1.5l-1.2-0.2l-0.8-2.6l0.5-0.2l-0.3-1.2l-2,1.3l-0.2-0.1l-1-2.5l2,0.1
		l1.2-0.9c0-0.2-0.1-2.4-0.3-6.5c-0.1-2.7-0.1-4.9,0.1-6.6l0.5-0.4c-0.8-0.8-1.1-1.8-1.1-3.3c0-0.3,0-0.9,0.1-1.7
		c0.1-0.8,0.1-1.4,0.1-1.7l0.5-0.5l-0.5-3.4l1.2-0.4l-1.4-0.6v-9.1c-0.8-0.2-2-0.4-3.5-0.4v-14.4c2.2-0.5,4.4-0.3,6.4,0.7l1.6-0.9
		l5.5,1.1c1.6-1,4.8-1.4,9.4-1.4c1.4,0,3.2,0,5.6,0.1c2.4,0.1,3.9,0.2,4.4,0.2c0.5,0.8,2,5.6,4.6,14.3c2.5,8.6,3.9,13.3,3.9,13.9
		c2.1,3.4,3,6.6,2.9,9.5h0.4c0.3,1,0.4,2.1,0.7,3c0.3,1.3,0.9,2.1,1.7,2.5l1.7-3.1c-0.3-0.6-0.8-1.8-1.7-3.6l0.9-1.1
		c-1.1-2.3-1.6-6-1.6-11.3c0-1.8,0.1-4.1,0.2-6.9c0.2-3.3,0.2-5.2,0.2-5.8l-0.8-1.3v-1.9l0.8-0.4c-0.2-0.7-0.4-1.4-0.4-2.4
		c0-0.3,0-0.7,0-1.3c0-0.6,0-0.9,0-1.2c0-1.1-0.2-2-0.6-2.7l1.2-1c1.9,0.9,3.7,0.9,5.4,0l3.3,0.7l-0.6,0.5l0.4,0.2l-0.8,1.3
		c0.8,0.4,1.9,0.9,3.6,1.5v-1l0.7,0.3l0.3-1.2l0.2-0.1l1.2,1.3l0.1-1.3l1,0.1l-0.3,0.4h1.2l-2.3-2.4h2.6l0.1,0.4l-0.4,0.8l0.9,0.4
		l0.2-1.8h0.5l0.2,2.9c-0.9,0.9-1.4,2.1-1.6,3.5c1.4,0.7,2.1,1.8,2.1,3C340.9,428.5,340.9,428.7,340.8,428.9 M280.3,482.7l-2.3-0.3
		c0,0,0-0.1,0-0.3c0-0.1-0.2-0.5-0.8-1.2v-0.7c0-0.4,0-1,0-1.9c-0.1-0.9-0.1-1.6-0.1-2.2c0-2.7,0.7-4.2,2.1-4.4
		c0,0.4,0.1,0.9,0.2,1.6c0.1,0.8,0.1,1.4,0.1,1.7c0,0.4-0.1,1-0.4,1.4c-0.2,0.5-0.4,0.8-0.4,1.1c0,0.3,0.2,0.8,0.5,1.4
		c-0.3,0-0.4,0-0.5,0.2l0.5,0.6c-0.3,0-0.4,0.1-0.5,0.3L280.3,482.7z M283.7,450.2c0.1-2.5,0.1-3.8-0.2-4.1l-0.4,0.2
		c0-0.4-0.3-0.6-0.9-0.9c-0.6-0.3-0.8-0.6-0.8-1c-0.1,0-0.2-0.1-0.3-0.1c-0.2,0-0.3,0.2-0.5,0.6c-0.2,0.4-0.4,0.6-0.6,0.6h1.5
		c0.1,0.2,0.4,0.8,1,1.9c0.4,0.8,0.6,1.5,0.6,2c0,0.2-0.1,0.5-0.1,0.8H283.7z M281.4,477l-0.4,1.5h-0.3L281.4,477z M288.1,470.1v-1
		h-0.9v1.3l-2,0.2l0.4-0.2l0.4,0.7c-0.5,0.6-1,1.1-1.6,1.5c-0.4-0.4-0.8-0.6-1.1-0.6c-0.2,0-0.4,0.2-0.6,0.6
		c-0.2,0.4-0.4,0.6-0.6,0.6l0.8-0.1c0.3,0.5,0.6,1.2,0.8,2.3l-0.1,0c0.1-0.1,0.3-0.3,0.8-0.8c0.3-0.4,0.7-0.5,0.9-0.5
		c0.1,0,0.2,0,0.3,0.1c-0.9,0-1.6-0.3-2.1-0.9L288.1,470.1z M288.4,447.8c-0.1-0.1-0.2-0.3-0.6-0.7c-0.4-0.4-0.7-0.7-0.7-0.8
		c0-0.2,0.2-0.3,0.5-0.4l-0.5-0.7c-0.2,0.2-0.5,0.4-0.8,0.4c-0.1,0-0.7-0.2-2.1-0.7c0.8,0.3,1.2,0.7,1.2,1c0,0.6-0.3,0.9-0.9,1.1
		c0.1-0.1,0.2-0.2,0.3-0.2c0.2,0,0.7,0.5,1.6,1.5c0-0.1-0.1-0.5-0.4-0.9c-0.2-0.5-0.4-0.8-0.4-1c0-0.2,0.2-0.4,0.4-0.5
		c0.3,0.2,0.9,1,1.7,2.4C287.9,448.1,288.1,447.9,288.4,447.8 M286.6,451l-0.9-1.8v0.4c0,0.2,0.1,0.3,0.3,0.5
		c0.2,0.2,0.3,0.4,0.3,0.6l-0.3,0.4H286.6z M293.2,425.8c-0.2,0.2-0.3,0.2-0.5,0.2c-0.4,0-0.8-0.4-1.1-1.1c-0.3-0.9-0.6-1.4-0.8-1.6
		l0.2-0.1l-2-2c0,0.1,0.2,0.4,0.4,0.8c0.2,0.4,0.4,0.6,0.4,0.8c0,0.1-0.1,0.3-0.2,0.5c-0.1-0.3-0.6-0.7-1.4-1.2
		c-0.7-0.5-1.1-1-1.1-1.2l0.2,0.5c-0.1,0.2-0.2,0.4-0.2,0.8c0.2-0.1,0.5-0.1,0.8-0.1c0.2,0.5,1,1.2,2.2,2.1c1.1,0.7,1.6,1.5,1.8,2.3
		C292.7,426.7,293.1,426.6,293.2,425.8 M288.1,462.2l-0.5-1.1v0.5L288.1,462.2z M290.7,454.6l-0.4-0.4c-0.5-0.1-0.8-0.2-1.1-0.4
		c0.6,0.7,1,1,1.2,1C290.6,454.8,290.7,454.8,290.7,454.6 M290.3,457.2c-0.4,0-0.7-0.1-0.9-0.3l0.4,0.7
		C289.9,457.4,290.1,457.2,290.3,457.2 M293,448.6l-0.2-1.4h-0.4l0.4,1.5L293,448.6z M297,429.2c-0.6,0-1.7-0.6-3.1-1.7l-0.3,1.5
		l-0.3-0.2l-0.1-0.2c0,0.4-0.1,0.7-0.3,1c0.5,0.2,1,1.2,1.4,3.1l0.2,0v-1.5h0.2c0.5,0.4,0.9,0.9,1.1,1.5l-0.2,0.4
		c0.2,0,0.3,0,0.4-0.2l0.3,0.2c-0.2,0.8-0.2,1.3,0.2,1.3c-0.1-0.3-0.2-0.5-0.2-0.9c0-0.2,0.1-0.7,0.2-1.2c0.1-0.5,0.2-0.9,0.2-1.2
		c0-0.6-0.2-1-0.5-1.4L297,429.2z M293.8,457.2h-1.1v0.4h1.1V457.2z M306.4,427.4c-0.3-0.2-1-0.1-2,0.4c-1.2-0.4-1.8-0.9-2-1.5
		l-0.8,1.5c-0.2-0.1-0.4-0.3-0.6-0.4c0,0.4,0,0.8-0.2,1.3c-0.6,0-1.7,0.1-3,0.4l0,0.2l0,0.2c0.2-0.1,0.4-0.2,0.6-0.2
		c0.1,0,0.3,0,0.4,0c0.1,0,0.2,0.2,0.2,0.4c0.3-0.4,0.7-0.6,1.1-0.6c0.3,0,0.7,0.1,1.3,0.5c0.6,0.2,1.1,0.4,1.3,0.4
		c0.4,0,0.8-0.1,1.2-0.4c-0.8,0.1-1.3-0.1-1.5-0.4c0.2,0,0.7-0.2,1.4-0.7c0.7-0.4,1.3-0.6,1.7-0.6c0.3,0.3,0.5,0.5,0.5,1
		L306.4,427.4z M302.7,451.3l-0.4-0.6l-0.2,0.3c-0.4,0-0.6-0.3-0.6-0.7c0-0.2,0.2-0.3,0.4-0.4c0.3-0.1,0.4-0.2,0.4-0.3
		c0-0.1-0.1-0.3-0.4-0.4c-0.2,0.3-0.6,0.4-1.1,0.6C300.9,450.1,301.5,450.7,302.7,451.3 M302.2,432.4l-0.8-0.7l0.4,2.3L302.2,432.4z
		 M302.2,436.6v-0.5c-0.1,0-0.4-0.2-0.6-0.3v0.8H302.2z M304,440.8l-1.6-2.4l-0.2,0.2l1.7,2.3L304,440.8z M317.3,455.6l-1.2-1.8
		l-0.2,1.5c-0.1-0.1-0.6-0.5-1.5-1c-0.7-0.3-1.1-0.8-1.2-1.3l0.6-0.3c-0.5-0.1-0.8-0.3-0.8-0.8c0-0.2,0.1-0.6,0.3-1.1
		c0.2-0.5,0.3-0.9,0.3-1.2c0-0.4-0.1-0.6-0.4-0.8c0.1,0.2,0,0.3-0.1,0.3c-0.3,0-0.6-0.3-1.1-0.7h0.1l0.3,0.4
		c-0.1,0.4-0.3,0.7-0.6,0.7l-0.1,0.1l0.7,0.8v0.3c-0.2,0.1-0.4,0.3-0.6,0.3c-0.2,0-0.6-0.3-0.8-0.9c-0.3-0.6-0.6-1-0.9-1l0.2-0.3
		l-0.1-0.2l-0.2,0.2l-0.4-0.4l-0.1,0.3l0.2,0.2l0.2,0c-0.6,0.3-0.9,0.5-1,0.5c-0.2,0-0.6-0.2-1-0.5v0.8c-0.3,0.1-0.4,0.2-0.5,0.2
		c-0.4,0-0.4-0.4-0.2-1.1l-0.1-0.3l-1,1.2l0.3,0.2c-0.1,0.6-0.3,0.9-0.3,1.3c-0.3,0.6-0.5,0.9-0.8,1c0.1,0,0.4-0.1,0.7-0.1
		c0.3-0.1,0.6-0.2,0.8-0.2c0.6,0,1.2,0.6,1.5,1.7c0.5,1.3,0.8,2.2,1.2,2.4c0-0.1,0-0.2,0-0.4c0-0.7,0.6-1.2,1.8-1.5
		c-0.3-0.8-0.5-1.2-0.5-1.1c0-0.3,0.2-0.5,0.5-0.6c0.3,0.2,0.6,0.3,0.9,0.7c0.2-0.1,0.3-0.1,0.5-0.1c0.4,0,0.7,0.5,0.8,1.5
		c0.2,1,0.5,1.5,1.1,1.3c0.2-0.1,0.4-0.1,0.5,0c0.2,0,0.3,0.1,0.2,0.4C316.2,456.2,316.9,456,317.3,455.6 M309.5,457.2V457
		c-0.6,0-1.1-0.4-1.7-1.2c-0.2,0.2-0.5,0.5-0.7,1c-1.1-0.4-1.6-1.3-1.8-2.7c0.3,0.5,0.6,1.4,1,2.4l-0.2,0.5c0.1,0.1,0.3,0.2,0.5,0.2
		c0.2,0,0.6-0.1,1.1-0.4c0.5-0.1,0.9-0.2,1.1-0.2C309.1,456.5,309.4,456.7,309.5,457.2 M307.5,453.8l-0.9-0.5l-0.2,0.5H307.5z
		 M307.5,451c-0.2,0-0.3,0.1-0.5,0.3l-0.4-1L307.5,451z M309,441.3c-0.1-0.1-0.1-0.3-0.3-0.4c-0.1,0.1-0.2,0.3-0.4,0.6
		c0.1,0.2,0.2,0.4,0.2,0.8C308.7,442.2,308.8,441.8,309,441.3 M309.3,444.7v-0.8c-0.3,0-0.5,0-0.8,0.2l0.1-0.1L309.3,444.7z
		 M311.3,473.1l-1-1c0,0.8-0.1,1.3-0.2,1.5c-0.1,0.1-0.6,0.4-1.4,0.8l0.3,0.2l-0.4,0.7h0.4c0-0.3-0.1-0.5-0.1-0.6
		c0-0.4,0.1-0.6,0.2-0.6c0.1,0,0.2,0.1,0.5,0.3c0.3,0.1,0.4,0.2,0.5,0.2c0.3,0,0.5-0.1,0.5-0.3c0-0.2-0.2-0.4-0.4-0.5L311.3,473.1z
		 M309.5,427.4c-0.4-0.3-0.7-0.3-0.9,0H309.5z M309.5,451.5c0,0.2-0.1,0.3-0.3,0.3c0,0-0.2,0-0.6,0
		C309.1,451.8,309.4,451.7,309.5,451.5 M309.9,438.7c0-0.8-0.2-1.4-0.5-1.8l0.1-0.3c-0.3,0.3-0.6,0.6-0.6,0.9
		c0.1,0.2,0.1,0.7,0.1,1.4C309.4,439,309.8,438.8,309.9,438.7 M311,442.1l-0.3-0.1l-0.4,1.9h0.4L311,442.1z M311.8,451.5L311,451
		c0.5,0,0.8,0.1,0.8,0.3V451.5z M312.4,433.1c-0.1,0.1-0.2,0.2-0.5,0.6c-0.3,0.4-0.5,0.7-0.5,0.8c0,0.2,0.1,0.3,0.3,0.4
		C311.9,434.6,312.1,433.9,312.4,433.1 M311.8,436.6c0.2-0.4,0.1-0.7-0.1-0.8v1.5C311.6,437.2,311.7,437,311.8,436.6 M314.7,472.7
		v-0.3c0-0.1-0.3-0.4-1-0.7c-0.6-0.2-1-0.6-1-1l0.2,1.4c0,0.4-0.2,0.6-0.6,0.7c-0.4,0.2-0.7,0.3-0.8,0.4h0.1v0.3L314.7,472.7z
		 M313.2,465.9l-1.1,1.5c0.1,0.1,0.3,0.3,0.3,0.5c0,0.1-0.1,0.6-0.7,1.3c0.3-0.2,0.6-0.8,0.7-1.6C312.7,466.8,313,466.2,313.2,465.9
		 M315.3,458.1l-0.8,0.9c0.3-0.1,0.5,0,0.5,0.2l-0.1,0.7c-0.1,0.4,0,0.5,0.1,0.6C314.9,459.5,315.1,458.7,315.3,458.1 M314.9,471.2
		v-1.1l-0.5,1.1H314.9z M316.7,479c0-0.3-0.2-0.8-0.7-1.4c-0.5-0.6-0.7-1-0.7-1.4c0-0.1,0.1-0.2,0.1-0.3c0.7,0.4,1.2,1.3,1.2,2.7
		c0,0.4,0,0.6,0,0.7c0,0.1,0,0.3-0.1,0.5C316.6,479.5,316.7,479.1,316.7,479 M317.1,472.7c-0.3-0.5-0.4-1.3-0.4-2.5
		c0-1.2-0.1-1.9-0.3-2.4h-1.2v0.3l0.4-0.3c0.7,0.2,1.1,0.7,1.1,1.3c0,0.4-0.2,1-0.5,1.8c-0.4,0.9-0.6,1.5-0.6,1.8
		c0,0.2,0,0.4,0.2,0.5h0.2v-1.2h-0.2l0.5-0.2C316.8,472,317,472.4,317.1,472.7 M316.1,473.9l-0.2-0.1l-0.2,0.8l0.2,0.1L316.1,473.9z
		 M317.3,465.3h-0.2v1.6h0.2V465.3z M318.1,454.9l-0.6-1.1l-0.2,0l0.6,1.1L318.1,454.9z M319.4,456.4c-0.3-0.2-1-0.4-1.9-0.4
		c0.7,0,1.2,0.2,1.5,0.7L319.4,456.4z M320,473.8c-0.2-0.1-0.4-0.5-0.6-1.3c-0.2-0.7-0.4-1-0.7-1c-0.1,0-0.3,0-0.6,0.1l0.6,0.5
		c0,0.2-0.4,0.2-1.2,0l0.4,1c0.4,0,0.9,0.3,1.7,0.9C319.8,474,319.8,474,320,473.8 M320,478.5l-1-0.7v0.7H320z M320,459.1L320,459.1
		c0,0.7-0.2,1.2-0.6,1.6C319.6,460.4,319.8,459.8,320,459.1 M320.7,479.9l-0.5,1.3c0.4,0.1,0.5-0.1,0.5-0.4V479.9z M321.6,478.8
		v-1.4c-0.3,0-0.5,0.2-0.6,0.5C320.9,478.1,321.2,478.4,321.6,478.8 M324.7,474.4l-0.5-0.6l-0.5,0.6c-0.6,0.1-1-0.1-1.1-0.3
		c0.2-0.2,0.5-0.6,0.8-1.1c0,0.3-0.1,0.5-0.6,0.6c-0.4,0-0.8,0.2-1.1,0.2l0,0.2l1.7,0.5c0.1,0.2-0.1,0.6-0.5,1.2
		c0.4,0,0.7-0.2,1.1-0.7C324.1,474.8,324.4,474.5,324.7,474.4 M323.1,467.6c-0.4-0.2-0.6-0.8-0.6-1.7l-0.3,1.5L323.1,467.6z
		 M328.5,460.4c-0.1,0.2-0.2,0.4-0.4,0.4c-0.5,0-1.1-0.8-1.9-2.3l-0.3,0.3l-0.8-1l1.1-0.8h-0.3c-0.7,0.5-1,1.2-1,1.9
		c0,0.2,0.2,0.4,0.5,0.4c-0.2,0.2-0.3,0.5-0.3,0.6c0,0.2,0.3,0.5,0.9,0.9c0.6,0.3,0.9,0.6,0.9,0.9c0.4-0.7,0.8-0.8,1.2-0.4
		L328.5,460.4z M326.7,467c-0.7,0.2-1,0.5-1.2,0.8c-0.2,0.1-0.3,0.4-0.3,0.6c0.3,0,0.5,0.2,0.5,0.3L326.7,467z M334.5,473.1l-0.6-3
		c-0.1,0.2-0.2,0.4-0.4,0.6c-1,0.1-1.4-0.3-1.4-1.2c0-0.4,0.1-0.6,0.3-0.8l-0.9,0.3c0,0.5-0.5,0.6-1.3,0.3c-0.9-0.3-1.5-0.3-1.8,0.2
		c-0.4,0-0.8-0.2-1.2-0.5l0.8-0.6c-0.8,0.2-1.1,0.6-0.8,1.2c-0.2,0.2-0.5,0.3-0.9,0.2l0.9,0.7c-0.3,0-0.6,0.4-0.7,1.3
		c-0.1,0.8-0.3,1.2-0.8,1.3l0.9,0.1c0-0.7,0.6-1.3,1.6-1.5c1.1-0.2,1.6-0.4,1.6-0.5c0.2,0,0.4,0.2,0.5,0.4l1.5-1.5
		c0.2,0.3,0.1,0.7-0.3,1.1l0.7,0.3c0.9-0.3,1.5-0.2,1.9,0.3c-0.3,0.7-0.8,0.9-1.3,0.9c-0.3,0-0.5-0.2-0.4-0.7h-0.2v0.6
		C333.7,472.6,334.5,472.8,334.5,473.1 M328.8,430.4l-1.5-0.3c0.6,0.2,0.9,0.7,0.8,1.5h0.3v-1.1h-0.3L328.8,430.4z M329.9,454.6
		c-0.9,0.2-1.7,0.3-2.4,0.3C328.9,454.9,329.6,454.9,329.9,454.6 M328.9,471.2h-1c-0.1-0.2-0.2-0.4-0.2-0.4c0-0.5,0.2-0.7,0.6-0.7
		c0.3,0,0.5,0.1,0.5,0.4V471.2z M329.3,424.6l-0.6-0.9l-0.8,1.5L329.3,424.6z M328.5,472.1h-0.3v0.6h0.3V472.1z M331.1,428.9
		l-1.1-1.5l-1,1.7L331.1,428.9z M331.1,462.2c-0.2-0.2-0.4-0.3-0.9-0.4c-0.4,0-0.7-0.1-0.8-0.2l1.1,1.1L331.1,462.2z M331.7,447.9
		l-0.1-0.1c-0.5,0.8-0.5,1.4-0.2,1.4C331.4,449.2,331.5,448.7,331.7,447.9 M333.1,434.1c-0.3-0.4-0.6-0.6-0.9-0.6
		c0,0.2-0.1,0.5-0.4,0.8c-0.2,0.4-0.4,0.7-0.4,0.8c0,0.2,0,0.3,0.2,0.5C331.8,434.8,332.3,434.3,333.1,434.1 M331.9,444.1l-0.5-1.2
		v1.5C331.5,444.2,331.6,444.1,331.9,444.1 M334,429.8l-0.4-0.2l-0.5,0.5l-0.7-0.9L334,429.8z M334.7,463.3l-1.6-0.3l1.1,1.4
		C334.3,464.2,334.5,463.9,334.7,463.3 M335.8,465.5L335.8,465.5l-0.1-0.8H335c-0.1,0.2-0.1,0.4-0.2,0.7c-0.3-0.1-0.5,0-0.7,0.1
		l0.3,0.4C334.9,465.8,335.2,465.7,335.8,465.5 M337.3,424.6l-0.8-0.9c-0.3,0-0.5,0.1-0.7,0.4l-0.6-0.9c-0.5,0.1-0.9,0.3-0.9,0.6
		c0,0,0.4,0.7,1,2l-0.1,0.4c0.4-0.8,0.4-1.2-0.2-1.2c0.5-0.5,0.7-0.7,1-0.7c0.1,0,0.2,0.1,0.5,0.2
		C336.8,424.6,337.1,424.6,337.3,424.6 M337.3,470.7c0,0.5,0,0.8-0.1,0.8c-0.1,0.1-0.5,0.1-1,0.1c-0.2-0.2-0.3-0.5-0.5-0.9
		c0,0.2-0.1,0.2-0.2,0.2c0,0.3,0.2,0.6,0.7,0.9c0.4,0.3,0.6,0.5,0.6,0.6c0,0.2-0.2,0.4-0.6,0.7l0.4,0.1
		C336.8,473.2,337.1,472.3,337.3,470.7 M336.2,428.9l-0.5,0.6c0.1,0.2,0.1,0.3,0.1,0.5C336.1,430,336.2,429.6,336.2,428.9"/>
	<path class="st0" d="M403.1,469.5l-1.8,1l-5.1-0.4l-0.2,0.4l0.8,1l0.7-0.4c0.8,1.2,1.9,1.9,3,2.2l-0.1,1l0.9,0.8v-1.8l0.3-0.1
		l1.1,1.8l-0.8,1.9l0.3,3l-0.8,0.2l-2.4-1l-0.6-0.9l-0.1,0.5h-0.9v-1l2-0.3l-0.7-2.1l0.3,0.4l0.8-0.9l-0.8-1.2l0.4-0.5
		c-0.7,0-1.2,0.6-1.7,1.9c-0.5,1.4-1,2.2-1.6,2.5l0.6-0.4l-0.6-3.2l-0.9,0.9l-0.7-0.2c0.2-0.3,0.2-1.1,0.3-2.5
		c0-0.9,0.3-1.5,0.8-1.9l-1.1-0.2l1.1-0.7l-0.3-0.6c-0.1,0-0.1,0.2-0.2,0.3c-0.1,0.2-0.2,0.3-0.2,0.3l-0.6-0.4l-0.3-3.8h-0.2
		l0.7-0.9l-1.5-1l-2.5,1.2l1.5,1.8l-2,1.7l0.7,1.2l-0.7,0.3l1.2,0.7c0.6,1.5,0.6,2.7,0,3.7l-0.5,0.2c-0.3-0.6-0.9-1-1.8-1.2
		c-0.8-0.1-1.5-0.2-2.3-0.4l-0.6-1.7l-2.2-1l-0.3,1.3l0.6,0.1l-0.3,1l0.9,2l-0.6-0.5v0.2H383v-0.2h0.3l0.1-0.5l-0.4-1l-0.9,1.2
		l1.9,1.3l-0.5,1.1l1.9,2.1l-0.2,0.5l1.4,0.3v1l-0.9-0.8l-1.6,1l-2.3-0.4l-0.5-3.1l1.6-0.6l0.2-0.9l-1.9-1.7l0.2-1.3l-0.1,0.4l1,0.5
		l0.6-0.5l-1.7-0.8l-0.3-0.8h1l-1.1-1.2l0,0.1l0.1-0.4l0.3-2.6l0.6,0.2l0.3-0.9c-1-1.7-1.6-3.7-1.7-5.8c-0.1-2.3-0.2-3.6-0.4-3.8
		c-0.5-1-1.7-1.5-3.8-1.5c-1.2,0-3,0.2-5.3,0.5c0,1.2-0.1,2.9-0.2,5c-0.2,2.4-0.2,4-0.2,5c0,2.7,0.4,4.9,1.2,6.8
		c0,1.7-0.1,4.2-0.3,7.5h-5.4l-0.3-0.8l-0.2,0.8l-0.8-0.8l-0.3,1.2h-15.1v-9.8l1.2,0.4l0-0.4l-1.2-0.9c-0.1-1.5,0.2-2.5,0.9-2.9
		l1.2,1.2l-0.7,0.2l1.2,1.2l-0.5,0.9l2.1,1.3l0.7-0.4l-0.8-1l1.4-1.9l-0.4,0.7l1.5,1.4l1.1-0.9c-0.4-0.1-0.7-0.1-1-0.2
		c-0.5-0.2-0.7-0.4-0.4-0.6c0.2-0.2,0.7-0.3,1.4-0.1l-0.3,0.3l2,1.1l0.6-0.5l-1.4-1.2l0.6-1.4l-0.9,0.2l-1.7-1.6l0.5-1.3l-1-0.1
		l-0.6,1.1l-2.3-0.4c-0.1-1-0.2-2-0.2-2.9c-0.1-1.2,0.2-2.2,0.6-3c-1.1-1.8-1.6-6.8-1.6-14.9c0-1.9,0-4.2,0.1-7
		c0.1-2.8,0.1-4.6,0.1-5.2H348c-0.3-1-0.4-2.5-0.5-4.6c-0.1-2.1-0.2-3.6-0.5-4.6l0.6-2.2l0.9,0.8l0.6-0.6l0.5,0.8l0.5-1l-1.4-1.8
		h0.1l1.1,1.2c0.9-0.9,7.4-1.3,19.5-1.3l0.4,13.3l-1.4,0.6l1.4,1.9l-0.8,0.5c0.7,0.8,1.1,1.9,1.1,3.4c0,2,0.1,3.2,0.2,3.6l2.3,0.4
		c0.1-0.2,0.7-1.1,1.7-2.5c0.7-1,1.1-1.9,1.1-2.7c0-0.3-0.1-0.6-0.2-0.9l0.3-1.1l0,0.3l0.7-3h0.5c0.3-2.1,1-4.5,2.1-7.3
		c1-2.3,2-4.6,3-7c3.4-0.5,6-0.4,7.8,0.2l1.1-0.8l1.3,0.8c1.8-0.4,3.8-0.4,6.1,0l-0.3,0.1l-0.8-0.3l-0.3,0.2
		c1.2,1.5,1.9,2.4,1.9,2.8c0,0.3-0.3,0.5-0.9,0.6c-1.1,0.2-1.8,0.4-2.2,0.6l0.8,1.5l-0.4,0.1l-0.3,1.5l0.9,0.5l-0.8,2.2l0.6,0.4
		l1-0.3l-0.4-1.2l0.9,0.9l-1.4,2.9l-0.4-1l0.4-0.8l-0.7-0.7l-0.2,0.4l-0.3-0.4l-0.3,0.7l0.8,2.7l-0.8-0.4l-0.8,0.6l0.2,0.5l-0.8,0.7
		l1.2,0.8l1.4-1.6c0,1.5-1,3.9-3,7.1l-0.3-1.2l0.5-0.6l-0.9-0.6c-0.4,1-0.4,2.1,0,3.8l-1.2,1.1l-0.2,1.4l-0.7-1l0.9-0.4l-1.4-0.4
		c-0.2-0.1-0.3-0.1-0.3,0.1c0,0.1,0,0.2,0.1,0.5c0,0.2,0,0.4,0,0.6c0,0.4-0.1,0.6-0.4,0.7l2.3,3l1.5,0.3l1.3,1.5l-0.2,1l0.8,1.9h0.3
		l-0.3-2.2l0.7-0.7l0.8,0.9l-0.4,2.3l0.6,1.2l0.3-2.1l0.3,0.3l0.7-0.6c1.3,1.9,1.9,4.7,1.9,8.4l-0.7,0.2c0.1,0.6,0.2,1.5,0.2,2.8
		v0.4c0,2,0.1,3.5,0.5,4.4c0.5,1.4,1.5,2.1,3,2.2l-0.1,0.3L403.1,469.5z M358.8,432.9v-1.4c-0.3,0-0.4,0.1-0.6,0.4
		c0,0-0.3-0.3-0.8-0.7c-0.4-0.3-0.7-0.6-0.9-0.6c-0.1,0-0.2,0-0.4,0.1c0-0.5-0.3-1-0.7-1.8c-0.5-0.7-0.7-1.4-0.7-1.9
		c-0.1-1.2-0.6-1.9-1.4-2.2c-1.2-0.5-2.1-0.9-2.3-1.1c-0.1,0.1-0.1,0.2-0.1,0.3c0,0.4,0.2,0.8,0.6,1.2c0.5,0.3,0.7,0.7,0.7,1
		c0,0.1-0.1,0.2-0.2,0.4l-0.6-0.4c-1,0.1-2.3-0.4-3.6-1c1.2,1.8,1.8,3.2,2,4.2c0.4-0.5,0.7-0.8,1-0.8c0.3,0,0.7,0.4,1.2,1.2
		c0.5,0.7,1,1.1,1.5,1.1c-0.2,0.4-0.6,0.5-1.5,0.4c0.2,0.2,0.4,0.6,0.4,1l1.2-0.3c0.5,0.2,0.9,0.6,0.9,1.1c0,0.2-0.1,0.6-0.4,1.1
		c-0.2,0.6-0.2,0.9-0.2,1.1c0,0.3,0.1,0.6,0.4,0.8c0.1-0.3,0.5-0.7,1.1-1.1c0.5-0.3,0.7-0.7,0.7-1.1c0-0.2,0-0.5-0.2-0.7
		c0.4-0.5,0.8-0.8,1-0.8c0.2,0,0.4,0.2,0.5,0.6c0.2,0.5,0.4,0.8,0.5,1l-0.4-0.6c0-0.4,0.2-0.6,0.6-0.7L358.8,432.9z M354.6,429.7
		l-0.1,0.1c-0.2-0.4-0.4-0.6-0.6-0.6c-0.2,0-0.3,0.1-0.6,0.2c-0.3,0.2-0.6,0.3-0.8,0.3l-0.3-0.9c0.4-0.2,0.5-0.4,0.5-0.7
		c0,0-0.4-0.2-1.2-0.6l0.6-0.6c0.2,0,0.4,0.2,0.5,0.6c0.6,0.5,1,0.5,1.4,0.2c0,0,0,0.2,0.1,0.4c0,0.2,0,0.4,0,0.5
		c-0.1,0.1-0.2,0.2-0.4,0.2C354,429.1,354.2,429.3,354.6,429.7L354.6,429.7L354.6,429.7z M352.7,465.3c-0.1,0.1-0.2,0.4-0.1,0.9
		l-0.7-0.9H352.7z M353.1,474.2c0-1.4-0.3-2.3-0.9-2.6l-0.3,0.4C352.4,472.2,352.7,472.9,353.1,474.2 M358.2,426.2
		c-0.2-0.2-0.4-0.7-0.7-1.6c-0.2-0.8-0.6-1.1-1.1-1.1c0.1,0.4,0.3,0.9,0.8,1.5c0.5,0.7,0.8,1.2,0.8,1.6c0,0.3,0,0.4,0,0.6
		C357.9,426.5,357.9,426.2,358.2,426.2 M356.8,428.6v-0.8h-0.3L356.8,428.6z M362.5,430.1v-0.3h-1.2v-0.4c-0.2,0.5-0.4,0.7-0.8,0.7
		c-0.3-0.2-0.8-0.5-1.4-0.9c-0.1,0-0.2,0-0.3,0l-0.3,0.6c-0.1-0.2-0.3-0.3-0.4-0.4c-0.1,0.1-0.1,0.3-0.2,0.4c0.1,0.2,0.2,0.6,0.5,1
		c0.1-0.1,0.3-0.5,0.7-1l0.6,0.6l-0.2,0.4l0.5-0.9c1.2,0.4,1.8,0.6,1.8,0.6C362,430.4,362.2,430.3,362.5,430.1 M361.1,442.8
		l-0.8-0.4l-0.1,0.4l0.8,0.1L361.1,442.8z M363.2,478.5l-0.6-1.2c-0.1,0-0.1,0-0.3,0c-0.2,0-0.5-0.4-0.9-0.9
		c-0.3-0.6-0.6-0.9-0.9-0.9h-0.3c0,0.7,0.5,1.2,1.5,1.5C362.8,477.3,363.3,477.8,363.2,478.5 M364.5,457.6c-0.6-0.6-1.3-1.4-2.1-2.7
		l-0.6,0.6c0.3,0.2,0.5,0.5,0.6,1c0.1,0.5,0.1,0.9,0,1.1l0,0.3C362.8,457.6,363.4,457.5,364.5,457.6 M363.1,458.7h-0.6v0.6
		L363.1,458.7z M363.1,451h-0.4v0.8h0.4V451z M364.2,430.7c-0.5-0.6-0.7-1-0.6-1.4c-0.3,0.3-0.5,0.8-0.5,1.4H364.2z M363.2,454.8h1
		c0.1-0.1,0.1-0.3,0.1-0.4c0-0.2,0-0.4-0.3-0.4C363.7,454,363.4,454.2,363.2,454.8 M364.5,446.6v-0.8c-0.2,0-0.3,0.1-0.5,0.2
		c-0.1,0.2-0.1,0.4-0.1,0.6H364.5z M365.4,463.6c-0.4-0.7-0.8-0.7-1.2,0H365.4z M366.6,448c-0.3,0-0.7,0.2-1.2,0.6
		c0.1,0.1,0.1,0.2,0.2,0.4L366.6,448z M365.6,455.6h-0.2v1.4c0.2,0,0.4-0.1,0.5-0.2c0.1-0.1,0.1-0.3,0-0.5
		C365.6,455.8,365.6,455.6,365.6,455.6 M367.3,431.9l-1.7-0.6l0.6,0.8C366.4,431.5,366.9,431.5,367.3,431.9 M367.3,465.8h-1.2v0.4
		h1.2V465.8z M367.1,447.2c0.6,0.6,0.4,1.2-0.4,1.9l1-0.7c0.5,0.5,0.6,1.4,0.2,2.9c0.6-0.4,1-0.8,1.1-1.3c0.1-0.1,0.1-0.7,0.1-1.7
		c0-0.5-0.2-0.8-0.7-0.8C367.7,447.4,367.2,447.3,367.1,447.2 M370,467.6l-1.2-0.4v0.4l1,0.2L370,467.6z M372.3,452.1
		c-0.2-0.6-0.5-1.6-0.7-3v0.6c-0.3,0.2-0.6,0.3-0.7,0.3c-0.1,0-0.3-0.6-0.4-1.8c0-0.1,0-0.2-0.1-0.3c-0.2,0.1-0.2,0.3-0.2,0.5l0,0.1
		c0.1,0.5-0.1,0.8-0.4,0.9c0.2-0.1,0.4-0.1,0.5-0.1c0.2,0,0.4,0.5,0.5,1.6c0,0.1,0,0.2,0.1,0.3l-1.1-0.3l1.1,1.4
		c-0.1,0.2-0.4,0.2-1.2-0.1c0,0.2,0.1,0.3,0.1,0.5c0.6-0.1,0.9-0.3,1-0.5c0-0.5,0.1-0.8,0.2-0.9L372.3,452.1z M374.7,451.8
		c-0.2-0.2-0.3-0.2-0.6-0.3c-0.2,0.4-0.4,0.9-0.8,1.2C374.3,452.7,374.7,452.4,374.7,451.8 M375.1,455.2h-0.3v-1.1h0.3V455.2z
		 M378.5,454.8v-0.4c-0.2-0.2-0.4-0.5-0.6-0.8c0.2-0.3,0.2-0.5,0.2-0.7c0,0.1-0.2,0.3-0.3,0.5C377.9,453.5,378.2,454,378.5,454.8
		 M381.7,434.7c-1,0-1.4-0.1-1.4-0.6c0-0.2,0.2-0.5,0.5-0.9l-2.1,0.2c0.7,0.9,1.5,1.4,2.4,1.4C381.3,434.8,381.5,434.8,381.7,434.7
		 M382.8,439.8h-0.6c-0.3-0.6-0.3-1.3,0-2.3c0,0.4-0.1,0.8-0.4,1c0-0.2-0.2-0.3-0.8-0.3c-0.5,0-0.8-0.3-0.8-0.7
		c-0.1,0.2-0.1,0.3-0.1,0.3c0,0.2,0.6,0.5,1.8,0.8c0,0.3,0,0.4,0.2,0.4c0,0.4-0.2,0.8-0.7,1.1C381.8,440.1,382.2,440,382.8,439.8
		 M390.8,437.2c-0.4-0.5-0.8-0.8-1.2-0.8c-0.1,0-0.4,0.1-0.7,0.3c-0.3,0.2-0.5,0.2-0.6,0.2c-0.4,0-0.8-0.2-1.3-0.8l-0.9,0.8l0.4,0.2
		l-1.7,2.4l0.5,0.5l-0.2,0.4l0.8,0.8c0.1-0.2,0.2-0.5,0.1-0.8l1.4,1c-0.3,0.2-0.6,0.2-0.9,0.2c-0.5,0-1-0.4-1.5-1.1
		c-0.5-0.8-1-1.1-1.4-1.1c-0.2,0-0.3,0-0.3,0.1c0.8,0,1.3-0.5,1.6-1.2c0.1-0.4,0.2-1.2,0.2-2.2c0.3,0.2,0.9,0.4,1.7,0.2
		c0.3-0.1,0.6-0.2,0.8-0.3c0.9,0.2,1.5,0.3,1.7,0.3c0.7-0.1,0.9-0.5,0.9-1.4C390.5,435.5,390.6,436.2,390.8,437.2 M389.1,480.2
		c0-0.9-0.6-1.7-1.6-2.5c-1.1-0.8-1.7-1.7-1.8-2.6c0.6,0.1,1.6-0.4,2.8-1.3c0,0.3,0.4,0.6,1.2,0.9l0.2-0.2c0.3,0.2,0.4,0.7,0.4,1.4
		c0,0.7,0.2,1.2,0.5,1.5c-0.2,0.2-0.2,0.8,0,1.7c0.1,0.7-0.2,1.1-0.9,1.1H389.1z M389.8,439.8c0,0-0.3-0.4-1.1-1.1v-0.2l-0.6,0.6
		l0.6,0.5c-1,0.5-1.6,0.5-2,0.2V439h-0.7c0.3,0.8,0.8,1.2,1.4,1.2c0.3,0,0.7-0.2,1.2-0.4c0.5-0.2,0.8-0.4,0.9-0.2
		C389.8,439.6,389.8,439.7,389.8,439.8 M387.5,473.4h-1.4C386.5,472.8,387,472.8,387.5,473.4 M389.8,463.3c0-0.2,0-0.6-0.2-1.1
		L389.8,463.3z M390.8,472.7c-0.2,0-0.2,0.3-0.2,0.7h-0.7L390.8,472.7z M393.1,435.6c-0.1-0.4-0.3-0.6-0.8-0.9
		c-0.5,0.5-0.8,0.9-0.9,0.9H393.1z M393.1,469h-0.5v-1.2C392.9,468,393.1,468.4,393.1,469 M393.4,469.5c-0.3,0.4-0.4,0.8-0.4,1.4
		c0,0.3,0,0.7,0.2,1.3c0.1,0.5,0.1,1,0.1,1.2c0,0.3,0,0.5-0.1,0.7c-0.3-1.4-0.3-3,0-4.6H393.4z M393.4,477.3l-0.3,0.5v-0.8
		L393.4,477.3z M395.3,451h-0.7c-0.1,0.2-0.1,0.6,0,1.1v-0.6L395.3,451z M398,458.7l0.5-0.3c-0.3-1.5-1-3.7-2-6.6
		c-0.1,0.5,0.1,1.5,0.6,2.7c0.4,1.4,0.7,2.4,0.7,2.9c0,0.6-0.1,0.9-0.3,1.2c0.3,0,0.7,0.2,0.8,0.7c0.1,0.4,0.2,0.8,0.2,1.3
		C398.6,459.4,398.4,458.8,398,458.7 M397.6,482.8h-1.1l0.9-0.4L397.6,482.8z M400.3,431.3h-2.9c0.2-0.9,0.5-2.4,1.2-4.3
		c0.4-0.8,0.8-2,1.3-3.5v1.5c0,0.6,0,1.5,0.2,2.6c0.2,1.2,0.2,2.1,0.2,2.8V431.3z M399.7,420.9c-0.3,0-0.5,0.1-0.6,0.4h0.4v0.8h-0.4
		v-1.2H399.7z M400.5,482.8h-0.9l0.7-1.2L400.5,482.8z"/>
	<path class="st0" d="M459.3,467.4c-0.6,0.1-0.9,1.1-0.9,2.8c-0.1,0.9-0.2,1.5-0.7,1.8c0.2,1.3,0.3,3,0.1,4.9
		c-0.2,1.6-0.3,3.2-0.5,4.8l0.4,0.7c-1.4,0-2.7-0.2-3.8-0.7l-1-3.1l0.2-0.5l0.7-0.3l-1.9-1.5c0.1,0.5,0.2,1.3,0.1,2.3
		c-0.1,1.1,0,1.8,0.3,2.4l0.1-0.3v0.8l-0.1-0.3c-0.4,0.8-1.5,1.4-3.3,1.6c-1.4,0-2.8,0.1-4.1,0.1c-0.6,0-0.9,0-1.3,0.1
		c-0.7-0.6-3-0.8-6.8-0.7c-2.5,0.1-5,0.2-7.5,0.3l-1.4-1.8l-0.3,0.4l0.5,1.4l-1-1l-0.4,0.3l-10.3,0.4l0.2-0.8l-0.5-0.7l-0.6,1.1
		c-1.3,0.4-3.2,0.5-5.4,0.4c0.5-1.9,1.1-2.9,1.8-2.9c0.2,0,0.3,0.1,0.5,0.3l1.9-0.9l-1-0.8l2.9,0.3v-2.8c-0.2,0.9-1.1,1.5-2.6,1.7
		c-1.7,0.3-2.8,0.7-3.1,1.4c-0.6-3-0.6-6.3,0-9.8l2.9-0.2c0-3.7,0-9.6-0.2-17.6c-0.2-7.1-0.2-12.9-0.2-17.6l-2.2-0.7
		c-0.6-3.1-1-7.7-1-13.7c0.7,0,1.9,0,3.6-0.2c1.6-0.2,2.8-0.2,3.7-0.2c2.7,0,5,0.5,6.7,1.5c1.8-0.5,3.6-0.6,5.3-0.2
		c-0.9,0.1-1.9,0.6-2.8,1.4c-0.8,0.7-1.6,1.4-2.4,2.1l0.6,1.1l0.4-0.9l1.9,2.3l0.6-1.8l1.1,0.7l-0.8,1.4l0.3,1
		c1.1,0,1.6-0.4,1.6-1.3c0-0.4-0.1-0.9-0.3-1.3l1.3-1.1l0.1,0.6l-0.5,0.7l0.8,0.2c0.2-1.4,0.9-2.2,2-2.4l-0.5-0.5l-1.9,1l-0.2-0.8
		l0.2-1.1l-1-0.9c0.3,0,1.7-0.1,4.3-0.2c1.7-0.1,3-0.4,4.1-0.9l1.3,0.3l-0.9,1.2l0.5,0.8l1.1-1.5l-0.3,0.2l-0.1-0.5l1.2,0.3v-0.8
		l0.6,0.6l0.8-0.2l1.2,0.8l0.5-1h11.7c1,11.6,1.5,18.7,1.5,21.3l-11.4-0.4l-0.9-1.1l-1.6,1.4c-0.8,0-1.4-1-1.8-3.2
		c-0.4-2.4-1-3.8-1.7-4.2c-0.7-0.4-1.6-0.5-2.7-0.5c-1.5,0-3.2,0.2-4.9,0.9v11.4c0.2,0,1.6,0,4.1,0.1c1.6,0,3,0,4.1,0
		c1.5-0.1,2.9-0.2,4.1-0.5v-0.5l2.9,1.2v11.7c-0.8-0.1-3.3-0.3-7.5-0.6c-3.1-0.2-5.6-0.4-7.5-0.4V469c1.1,0.3,3.6,0.4,7.8,0.4
		l0.9,1.1c0-0.5,0.3-1.2,0.7-2c0.4-0.8,0.7-1.5,0.7-2h0.2l1.2-6.1h6.9l0.4,1.2c0.7-0.9,1.9-1.4,3.6-1.4c0.9,0,2.2,0.1,4,0.5
		C458.2,462.5,458.5,464.6,459.3,467.4 M412.1,429.8c-0.1,0-0.2,0-0.4,0.1c-0.2,0.1-0.5-0.1-1-0.6l0.2,2L412.1,429.8z M418.7,428.2
		L418.7,428.2c-0.4-0.3-0.8-0.4-1-0.4c-0.4,0-0.6,0.2-0.7,0.5c0,0-0.2,0.1-0.6,0.1c0.5,0,0.8-0.1,0.8-0.3l1.3-0.6v0.3
		C418.6,427.9,418.7,428,418.7,428.2 M424.4,473.6l-1.4-0.9l0.3-0.3c-0.3,0.1-0.7,0-0.9-0.1c-0.7,0.1-1.2,0.7-1.6,1.6
		c-0.3,0.8-0.6,1.5-0.9,2.3l-0.3,0.1c-0.2-0.2-0.6-0.5-1.1-0.7l-0.3,0.6c-0.1,0.1-0.3,0.2-0.3,0.4l0.8,0.5c0,0.2,0,0.4,0.2,0.7
		c0.1,0.3,0.2,0.6,0.2,0.8c0,0.3-0.2,0.6-0.5,0.6c-0.2,0-0.3-0.3-0.4-0.8c-0.1-0.5-0.2-0.7-0.5-0.7c-0.1,0-0.2,0-0.4,0.1v0.3
		l0.2,0.2c-0.1,0.2-0.4,0.3-1,0.6l1,1.6v-0.2h-0.2c0.1,0,0.7-0.3,2-1c0.9-0.5,1.5-0.9,1.5-1.4c0-0.2-0.1-0.2-0.1-0.5l0.8-0.5
		c0.1-1,0.1-2.2,0-3.5C422,473.2,423,473.3,424.4,473.6 M420.1,458.1c-0.5,0.9-1.4,1-2.6,0.3v1c0.6,0,1.1-0.3,1.5-0.6l0.5,0.6
		L420.1,458.1z M419.5,423.7h-0.4v-0.2c0.1-0.1,0.2-0.2,0.2-0.3c-0.1,0-0.2-0.1-0.3-0.1L419.5,423.7z M422.4,469
		c0-0.9-0.5-1.8-1.7-2.7v-0.1l-1.1-1.1l0.3-0.4c0.7-0.2,1-0.4,1-0.8c0-0.4-0.3-0.8-0.7-1.6c-0.4-0.7-0.7-1.3-0.7-1.5
		c0,0.1-0.1,0.3-0.1,0.5c0,0.3,0.1,0.8,0.3,1.5c0.3,0.7,0.3,1.2,0.3,1.5c0,0.7-0.3,1.2-1.1,1.5c0.4,0.4,0.7,1.2,0.7,2.3
		c0,0.7-0.2,1-0.4,1.1c0.2,1.2,1.1,2.1,2.5,2.6c-0.4-0.8-0.4-1.7,0-2.7L422.4,469z M421,421.2v-0.8l-1.4,2L421,421.2z M421.3,456.7
		V456c-0.2,0-0.3,0.1-0.3,0.4c0,0.3-0.1,0.4-0.3,0.4H421.3z M427.6,480.5c-0.5-0.3-0.9-1.1-1.4-2.2c-0.5-1.2-1.1-2-1.8-2.3l0.5-0.6
		l-1.2,0.6c-0.2-0.5-0.5-1.2-0.8-2c0,0.3-0.1,0.6-0.3,1c-0.1,0.4-0.2,0.7-0.2,0.8c0,0.4,0.2,0.6,0.6,0.9l0.3-0.4
		c0.3,0,0.6,0.2,0.9,0.6c-0.9,0.1-1.5,0.6-1.8,1.7c0.2,0,0.3,0,0.5-0.1c0.4,0,0.7,0.2,1,0.8c0.4,0.6,0.7,1,0.9,1.1l0.5-0.4l-0.3-0.8
		c0.2-0.1,0.4-0.2,0.6-0.2c0.4,0,0.8,0.2,1.1,0.5C427,479.8,427.3,480.1,427.6,480.5 M426.4,425.5c-0.6-0.2-1.2,0-1.9,0.7
		c0.1,0.1,0.1,0.2,0.2,0.3l0.8-1c0.2,0.4,0.5,0.7,0.7,1C426.3,426,426.3,425.6,426.4,425.5 M425.6,478.8c0-0.1-0.1-0.1-0.5-0.1
		c-0.2,0-0.3-0.2-0.3-0.3c0-0.2,0-0.3,0.1-0.4c0,0,0.2,0.1,0.5,0.2c0.2,0.1,0.4,0.2,0.4,0.4C425.6,478.6,425.6,478.8,425.6,478.8
		 M429.9,422.4l-2.6,0.7v-0.7H429.9z M429.5,436.5v-1.2c0,0.3-0.1-0.2-0.2-1.3l-0.3,2.5H429.5z M429.5,421.9h-0.2V421h0.2V421.9z
		 M436.4,451.6c0-0.4-0.2-0.9-0.7-1.7c-0.5-0.8-0.7-1.3-0.7-1.7c0-0.1,0-0.2,0-0.3c-0.8,0.1-1.2,0-1.2-0.4l0.2-0.2
		c0.1-0.2,0.2-0.4,0.4-0.8c0.2-0.4,0.1-0.7-0.3-0.7c-0.5,0-0.9,0.3-0.9,1c0,0.9,0,1.4-0.3,1.5l0.7-0.5c0.2,0,0.4,0.2,0.7,0.5
		c0.2,0.4,0.4,0.6,0.4,0.7l-1.5,1.2c-0.2-0.2-0.3-0.4-0.3-0.7c-0.2,0.2-0.4,0.5-0.4,0.7c0.4,0.1,1,0.4,1.5,1c-0.2,0-0.3,0.2-0.4,0.7
		c-0.1,0.4-0.2,0.6-0.5,0.7c0.6,0.1,1,0,1.2-0.2c0.3,0.1,0.8,0.6,1.2,1.7c0-0.3-0.2-0.8-0.7-1.5c-0.4-0.6-0.7-1.1-0.7-1.4
		c0-0.4,0.2-0.7,0.4-1c0.9,0,1.5,0.2,1.5,0.8c0,0.2-0.2,0.4-0.4,0.7H436.4z M438.8,421.1l-0.3-0.1l-0.6,1.2l0.2,0.1L438.8,421.1z
		 M445.1,437.3c-0.6-0.2-0.9-0.6-0.9-1.1c0-0.2,0.1-0.6,0.3-1.2c0.1-0.5,0.3-1,0.3-1.2c0-0.6-0.5-1.1-1.4-1.3l0.5-0.5
		c0.1-0.6-0.1-1.2-0.5-1.5c0.2,0.3,0.2,0.7,0,1.2c-0.1,0.6-0.2,0.9-0.2,0.9c0,0.3,0.1,0.5,0.4,0.6l-0.2,0.2c0.4,0.3,0.5,0.7,0.5,0.9
		c0,0.2-0.1,0.6-0.3,1.1c-0.2,0.5-0.4,0.9-0.4,1.2c0,0.4,0.1,0.7,0.4,1C444.4,437.6,444.9,437.6,445.1,437.3 M446.5,438.2l-0.7-0.7
		l0.4,0.8L446.5,438.2z M446.5,474.7v-2c-0.4,0-0.6,0.2-0.6,0.6c0,0.1,0,0.4,0.3,0.7C446.4,474.4,446.5,474.6,446.5,474.7
		 M448.1,424.1l-0.5-0.5l-0.6,0.2L448.1,424.1z M449.9,479c-0.2-0.6-0.3-1.1-0.5-1.6c-0.2-0.6-0.7-0.8-1.3-0.8
		c1.3,1.2,1.9,2,1.8,2.2C450,478.9,450,479,449.9,479 M450.9,471.6c-0.4,0-0.7-0.2-0.9-0.8c-0.2-0.7-0.4-1.1-0.5-1.3
		c0.1,0.5,0.3,0.9,0.4,1.3C450.3,471.4,450.6,471.6,450.9,471.6 M451.6,473.1h-1l0.2,0.2l0.6-0.6L451.6,473.1z M454.5,438.7
		c0-0.5-0.3-0.9-1-1.3c-0.7-0.5-1-0.8-1.1-1.2c-0.1,0.2-0.2,0.4-0.2,0.6c0,0.3,0.3,0.6,1.1,0.8C454.1,437.8,454.5,438.2,454.5,438.7
		 M454.2,479l-0.3,0.3v0.9L454.2,479z M457.3,480.5c-0.1-0.2-0.4-0.2-0.8-0.2v0.8L457.3,480.5z"/>
	<path class="st0" d="M518.6,433.5c-1.5-0.4-2.7-0.4-3.7,0c-0.6,1.5-1.2,3.1-1.8,4.7c-0.7,1.8-1.6,3.2-2.5,4.2l-0.8-0.2
		c0,4.1-1.2,6.9-3.5,8.3c0.2,0.9-0.2,2.7-1.6,5.5c-1.3,2.9-2.3,4.5-3.1,5c0.2,4.2-0.2,6.9-1.3,8.3l-0.3-0.3l0.9-2l-0.9-0.9l-2.5,1.5
		l0.6,1.9l0.2,0l1.3-0.7l-0.3-0.2l0.1,0.8l-1.8,1l-0.7-0.6h-0.3l-0.6,2.8h3.3l-0.7,0.8l2,0.8l-0.6,0.6l1.1,2h0.5
		c0.2,0.9,0.3,1.7,0.4,2.1c0.2,0.8,0.6,1.3,1.1,1.7l0.6-1l-0.7-1.6l0.5-0.5l1.5,0.8l-0.7,0.8l0.9,1.1l-0.1,1.8
		c-1.4,0.5-2.5,0.4-3.7-0.2c-0.7,0.2-1.6,0.5-2.5,0.5c-0.7,0.1-1.6,0.1-2.6,0.1c-1.4-0.1-2.3-0.1-2.6-0.1l-0.2-1.6h-0.9l0.5-1.2
		l-0.8-0.4l0.5-1.1l-0.5-0.5l-0.7,0.8l0.2,1.2l-0.2,0.2l0.5,1l-0.6,0.1l0.8,1.2c-0.8-0.2-2-0.4-3.5-0.4c-3.1,0-5.9,0.3-8.5,1
		c-0.6-1.8-1-4-1-6.6c0-0.9,0-2.1,0.1-3.6c0.2-1.8,0.2-3,0.2-3.6h1.9l0.9-0.6l1.3,2l-0.7,0.9l0.6,0.6l0.6-1l0.6,0.3l1.5-1.1l0.7,0.8
		l-2,0.4l-0.1,0.5l1.3,1.8l-0.6,0.6l-0.1,0.4l0.5,0.8l1.2-0.2l0.3,1.5l1.9-1.1l-0.2,1l0.2,0.2l1-2l-1.8,0.2l-1-0.8l-0.3-1.2l1.3-0.6
		l1.8,0.4l-0.4,0.8l0.4,0.2l1.7-1.9l-0.2-0.7c-1.2,0.2-2.5,0.3-3.9,0.2l1.5-2l1.1,0.2l0.9-1.1l-2.3-0.7l-1.2-2.2l1-0.5
		c-1-1.6-1.5-2.6-1.5-3.4c0-0.1,0-0.3,0.1-0.4l-1.3,2.2l1,0.8c0,0.5,0.2,1.1,0.5,1.9c0.3,0.9,0.5,1.5,0.5,2c0,0.3,0,0.6-0.2,0.9
		c-0.7-0.1-1.2-0.8-1.5-2.1c-0.3-1.3-0.9-1.9-1.7-1.9l0.2,0.5l-1.3,2l1.1,0.3l-0.6,0.6l-1.4-2.5l1,1.1c0.1-0.4,0.1-0.9,0.1-1.4
		c0-1.6-0.8-3.7-2.2-6.2c-1.6-2.7-2.5-4.7-2.7-6h1.5l-1,1.1l1,0.2l0.2,0.8l0.9-1.7l-0.1-0.4l0.5-1.3l-0.7-0.7l1.7-2.1l-1.1-0.5
		l-0.9,1.1l-0.6-1.1l0.2-1.9l-1.2-1l0.4-0.9l0.6,0.6l0.5-0.6l-0.5-0.9l1.2-1.6l-0.2-0.4c-0.8,0.7-1.7,1.3-2.6,1.8
		c-0.9,0.8-1.6,1.6-1.9,2.5l1.6,0.4l-1.6,2.5l-0.8-2.3l-0.4,0.3l0-0.7l-1.1-2l0.2-0.5c-0.8-0.5-1.4-1.6-1.9-3
		c-0.6-1.6-1.1-2.7-1.6-3.2c-0.1-1.2-0.9-2.8-2.3-4.6l-1.7-0.6l-0.9,0.7l-0.2-0.1l-0.9-13.5h1.6l0.4,0.7l0.9-0.4l-0.1-0.1l2.2-0.4
		c1.1,0.4,2.7,1.4,4.6,2.8l0.3-0.8l0.7,1.1l-1,0.5c0.5,1,0.4,2.2-0.1,3.4l1.3,2.5l0.6-0.4c0.4,0.5,0.9,2,1.4,4.3l0.9-0.9l-0.7-3.5
		l0.4-0.8l-1.2-2l-0.4,0.5l0.7,1.4l-0.3,0.5c-0.8-0.6-1.2-0.9-1.3-1.1c-0.4-0.4-0.7-0.9-0.7-1.4l1.2-1.6l-0.1-3.1l-2.2-1.4h2.2v0.4
		l2.1-0.3l1,1.2l-0.9,0.5l1.2,1.9l0.8-1.9l0.9-0.4L481,420h2l-0.2,1.9l0.2,0.2l0.7-0.8l0.1-2c0.5,0.3,0.8,1,1,2.2
		c0.2,1.1,0.6,1.8,1.1,2.1c0,1.1,0.4,2.7,1,4.6c0.7,2,1,3.5,1,4.6c1.1,1.2,1.6,2.9,1.6,5c0,1.1-0.1,2.4-0.4,3.7l0.5,0.9l-1.9,1
		c-0.1-0.4-0.2-0.8-0.2-1.2c0-0.6,0.2-1.5,0.7-2.8c0.4-1.2,0.6-2.1,0.6-2.7c0-0.6-0.1-1.1-0.3-1.5l-1.1,0.7l0.3,1.1l-1.3-0.6
		l-1.5,2.1l-1.1-1.9l1.5-2.2l-1.1-0.9c-0.1,0.6-0.4,1.4-0.9,2.3c-0.6,1-0.9,1.7-0.9,2.3l1.3,0.5c-0.4,0.7-0.5,1.5-0.5,2.4
		c0,1.2-0.1,1.9-0.1,2.3l0.4,0.1l2.9-1l0.4,2l-0.3,0.6l0.6,0.7l0-0.2l-0.3,2.1l-0.3,0.3l0.9,0.1l-0.6,1l0.6,1.1l-0.5,0.6l0.8,1.4
		c0.1-1.4,0.5-3,1.1-4.9l0.6,0.7l0.6-0.9l0.1,0.2l-0.8,1.1l0.3,0.7l1.8,0.1l-0.3,1l0.3,0.4l0.8-1.4l-0.7-1.2l0.8-0.9
		c-0.1-1.6,0.4-4.6,1.7-9.2c1.3-4.6,2.4-7.4,3.3-8.5l-0.8-0.8c0.6-1,1.1-2.6,1.6-4.5c0.5-2.3,0.9-3.8,1.2-4.6
		c7.3-0.5,12.6-0.4,15.6,0.3l1.8-0.7l2,0.4V433.5z M468.1,425.8c-0.1-0.6-0.6-1.7-1.5-3.1C467,423.9,467.5,425,468.1,425.8
		 M474.4,436.6c-0.4-0.7-0.6-1.1-0.8-1.1c-0.1,0-0.2,0.1-0.3,0.2c0.2,0,0.4,0.2,0.6,0.5l0,0.1C474,436.4,474.1,436.5,474.4,436.6
		 M474.8,425.5l-1-1.2l0.5,1.4L474.8,425.5z M475,437.2h-0.6v0.6h0.6V437.2z M478.5,452.1c-0.1,0-0.1-0.1-0.1-0.2
		c0-0.1,0.1-0.3,0.2-0.5c0.2-0.3,0.3-0.5,0.3-0.6c0-0.1-0.1-0.2-0.3-0.3l-0.9,0.8l-0.2-1.2h1.3l-0.2,0.4c0.4,0,0.5,0.2,0.5,0.4
		C479,450.8,478.8,451.2,478.5,452.1 M481.3,435.1c-0.6-0.7-0.9-1.6-0.6-2.8h-1.2c0.5,0,0.7,0.2,0.7,0.8c0,0.2-0.2,0.3-0.6,0.7
		c-0.4,0.3-0.7,0.4-1,0.4c-0.3,0-0.4-0.2-0.5-0.4l1,1.3l0.5-1.3c0.6,0,1,0.4,1.1,1.2l-0.1,0.1H481.3z M481,437.2
		c-0.2,0.1-0.9,0.1-2-0.2c-0.4,0.8-0.6,3-0.6,6.3c0.2,0,0.4-0.2,0.6-0.5c0.2-0.2,0.3-0.4,0.5-0.4c-0.7-0.3-1.1-0.6-1.1-0.9
		c0-0.3,0.2-0.6,0.7-1c0.4-0.4,0.5-0.8,0.5-1.1c0-0.3-0.2-0.6-0.6-1c0.1-0.2,0.2-0.3,0.6-0.4h0.8C480.9,438.1,481,437.7,481,437.2
		 M479.1,421.3v-0.9h-0.6L479.1,421.3z M480.5,427c-0.3,0-0.6,0-0.7,0c-0.3,0.1-0.4,0.2-0.4,0.5c0-0.2,0.1-0.3,0.4-0.5
		c0.3-0.2,0.4-0.4,0.4-0.7c0-0.1-0.1-0.4-0.3-0.7c-0.2-0.2-0.2-0.5,0-0.8L480.5,427z M482.8,478.2c-0.8,0.8-1.2,1.5-1.2,1.6
		c0,0.3,0.2,0.5,0.4,0.7C482,479.8,482.2,479,482.8,478.2 M482,481.3h-0.4v0.6h0.4V481.3z M487.6,435l-0.3-2.7h-0.9
		c-0.1-0.4-0.2-0.8-0.3-1.2c-0.2-0.5-0.4-0.8-0.7-0.8h-0.3v0.5c-0.1,0.1-0.2,0.1-0.2,0.1c-0.5,0-1-0.5-1.6-1.4
		c-0.5-0.7-0.8-1.3-1.1-1.8c0,0.4,0.3,0.9,0.8,1.5c0.4,0.7,0.7,1.3,0.7,2c0.6-0.1,0.9,0,1,0.1c0.1,0.2,0.2,0.5,0.2,0.9
		c-0.2,0.2-0.5,0.3-0.6,0.4c1.1,0.3,1.6,1.1,1.6,2.3c0-0.6,0.1-0.8,0.4-0.9l0.2,2.1c0-0.9,0.2-1.5,0.6-1.8L487.6,435z M483.7,477.3
		v-1.5l-0.9,1.2C483.3,477.1,483.6,477.1,483.7,477.3 M486.5,447.5c-0.4-0.1-0.7-0.1-1-0.1c-0.8,0-1.2,0.6-1.3,1.7
		c0,1.1-0.4,1.8-1.1,1.8c0.3,0,0.7,0.1,0.8,0.4c0.2,0.2,0.4,0.6,0.5,1c0.5-0.3,0.4-1-0.2-2.1v0.1c0-0.3,0.3-0.5,0.9-0.5l-0.2-0.3
		L486.5,447.5z M484.4,472.8l-0.2,1.9c0.2-0.3,0.5-0.6,0.6-0.9v0.1c0-0.1,0-0.1,0.1-0.2C485,473.3,484.8,473,484.4,472.8
		 M485.7,440.5l-0.8,0.4l0.2,0.9c-0.3,0.1-0.5,0-0.6-0.2c0-0.2,0-0.4,0.1-0.8c0.1-0.4,0.2-0.6,0.2-0.7l0.2-0.3L485.7,440.5z
		 M485.1,479.3h-0.2v0.9h0.2V479.3z M485.9,476.7v-0.9h-0.2c-0.1,0.2-0.1,0.2-0.2,0.5L485.9,476.7z M486.5,433.8l-0.2-1.1l0.2,0.2
		V433.8z M487,439.8l-0.3,0.8l-0.3-2L487,439.8z M489.1,460.7c-0.5-0.1-0.8-0.6-0.9-1.1c0.2-0.5,0.2-0.9-0.1-1.2l-0.2,2.6
		C487.9,460.7,488.4,460.6,489.1,460.7 M489.1,428.4h-0.3c-0.2,0.1-0.3,0.4-0.3,1L489.1,428.4z M491,478.5c-0.9-0.2-1.6-0.7-2.3-1.4
		c0.1,0.3,0.3,0.6,0.5,1.1c0.3-0.1,0.8,0.1,1.3,0.5c0.1,0.4-0.1,0.8-0.4,1h0.5C490.9,479.5,491,479.2,491,478.5 M491,446.1l-1.1-1.7
		l-0.8,2.3c0.1-0.3,0.2-0.8,0.3-1.3c0.1-0.5,0.1-1,0.2-1.4c0.1-0.4,0.4-0.7,0.9-1.1l0.5,0.7l-0.9,0.6c0,0.3,0.2,0.5,0.6,0.8
		c0.4,0.3,0.6,0.5,0.6,0.6C491.4,445.7,491.3,445.9,491,446.1 M490.7,449.9c0,0.2-0.3,0.4-0.7,0.6c-0.6,0.3-0.8,0.6-0.8,0.8
		c0,0.2,0.1,0.3,0.2,0.5c0-1.4,0.3-2.1,0.9-2.1C490.4,449.8,490.6,449.8,490.7,449.9 M492.5,452.4h-0.3v1h0.3V452.4z M494.6,450.2
		l-1.1-1.2l-0.1,0.1l1.1,1.3L494.6,450.2z M494.5,467.3l-0.9,1.5C494.1,468.4,494.4,467.9,494.5,467.3 M495.3,472.1
		c-0.3-0.4-0.3-0.6-0.1-0.6c0-0.2-0.1-0.4-0.1-0.6l-0.8,1.2H495.3z M495.3,447.9l-0.5-1.2C494.8,447.2,495,447.5,495.3,447.9
		 M495.9,477.7l0.1,0v0.1c-0.1-0.2-0.3-0.6-0.6-0.9c-0.1,0-0.1,0.1-0.1,0.1c0.2,0,0.5-0.1,0.6-0.4l0.6-0.3c0.2,0,0.3,0.1,0.4,0.2
		C496.9,476.9,496.5,477.3,495.9,477.7 M497.1,480.8c-0.1-0.2-0.2-0.3-0.4-0.3c-0.2,0.2-0.6,0.3-1.1,0.4
		C496.5,480.9,497.1,480.9,497.1,480.8 M497.1,439.8c-0.2,0-0.3-0.2-0.4-0.6h-0.3v0.9h0.3L497.1,439.8z M498.2,448h-1
		c0.2,0.2,0.4,0.3,0.8,0.4L498.2,448z M497.9,445.2v-1.5l-0.6-0.4L497.9,445.2z M499.2,471.5c0,0.3-0.2,0.5-0.6,0.6
		c-0.1,0-0.4,0-0.9,0c0-0.3,0.2-0.5,0.6-0.5C498.4,471.5,498.7,471.5,499.2,471.5 M499.9,430.9c-0.3,0-0.3-0.2-0.3-0.5
		c0.2-0.2,0.2-0.5,0.3-0.7c-0.1-0.1-0.4-0.2-0.6-0.3v1.9c-0.5,0-0.8-0.1-0.8-0.4l-0.2,0.3l0.4,0.2l0.1-0.1
		C499,431.2,499.4,431,499.9,430.9 M500.3,447.2h-1.1v0.3h1.1V447.2z M502.4,471.3l-2.2,2.1c0-0.3-0.2-0.8-0.6-1.1
		c0.4-1,1.1-1.5,2.1-1.5C502.1,470.8,502.3,471,502.4,471.3 M503.9,442.1l-0.8-0.9l0.6,1.1L503.9,442.1z M505.1,469.9
		c-0.3,0.2-0.6,0.7-0.6,1.4l0.2,0.2l-0.9,0.8l0.6-1.1l-1.1-0.4c0.3-0.3,0.5-0.8,0.7-1.4v0c-0.1-0.2-0.2-0.4-0.2-0.6
		C504.4,469,504.7,469.3,505.1,469.9 M505.9,437.8l-1.2-0.8c0.2,0.2,0.6,0.2,1,0.2C505.7,437.5,505.8,437.7,505.9,437.8"/>
	<path class="st1" d="M224.2,558.6l-0.7-1.1l0.6-3.6l-2.5-1.4l-1.1-1.9l-2.1,0.2l-2.5-2l-1.4,0.7l1.6,2.2l-0.2,1.4l0.8-0.2l3.3,2.4
		c-1.2,3-1.7,5.9-1.7,8.5l-3.5,0.2l-1.7,1.7l-1.2-0.9l0.2,0.5l-1.9,1.6l-0.5-0.2l-4.4,2.3l-0.9-1.1l-1.4,1.2l-1.1-1.2l-0.6,1.1
		l0.9,2.5l1.2-1.3l1.2,1.3l-1.7,0.7l-0.6-0.9l-0.2,1.7l1.2,1.3l2.1-1.3l0.6,0.3v-2.6l0.7,0.8l2.5-1.6l1.7,0.4l1,1.2l1.3-3.9l0.7,0
		l2.8,1.5c-4.5,5.8-11.7,8.7-21.5,8.7c-2.2,0-5.3-0.2-9.6-0.4c-4.3-0.3-7.5-0.5-9.5-0.5c-1.8,0-3.4,0.1-4.8,0.2l-0.5-1.2l-0.3,1.2
		h-9.5l-0.8-1.6l-0.5,1.6l-3-3.4L155,577l-1.9-0.9l-2.8,0.9l-1.4-1.5l-1.2,1.6l-1.4-2.2v2.2l-1.7-0.3v-20.4l0.9,0.9l1.3-0.9l0.3,1.6
		l1.4-0.8l0.3,0.4l0.9-2.8l0-0.1l1,0.4l2-1.4l2.7,3.9l1.6,0.4l1.2-0.8c-0.3-0.6-0.5-1.1-0.5-1.7c0-0.6,0.3-1.6,0.9-3
		c0.5-1.3,0.8-2.4,0.7-3.1l-0.2,0.2l1.4,2l0.9-0.4l-0.2-0.8l-0.2-0.2l0.5,0.5l1.2-1.3c-3.7-1.6-5.5-3-5.4-4.1l-3.6-0.5l1.4-2
		l-0.6-1.3l1.2,1l0.9-1.5l-2.4-2l2.1,1.3c1.1-2.5,2.3-3.8,3.9-4l-2.7-1.9l0.5-1.4l1.7-0.7l-2.4-4.1l1.1-1.2l-1.2-1.6l1.2-3
		c-0.6-3.1-1.3-5.6-2.1-7.5l-2.9,2.5l0.8,1.1l1.3,0.6l-0.5-0.6l-0.8,4.4l-1.4-0.5l-1.2,6.5l-1.9,2.1l-0.7-1c0.3-1.5,0.4-3.8,0.4-6.8
		c0-3,0.2-5.2,0.4-6.7l-0.5-0.4l-0.3-11.8h-4.3v-11.5l1.2,3.1l2-0.8l0.8,2l1.2-0.5l0.3,1.6l0.9,0.2c-0.7,1.5-1.1,2.9-1.1,4.4
		c0,1.4,0.3,2.6,0.9,3.7l1.6-4.2c0.5,1,0.8,2.4,1,4.4c0.2,2,0.5,3.5,1,4.4l1.8-1l0.3,1l1.2-1.1l-0.6-1.9l0.2-0.4l-1.1-1.2
		c0.9-1.5,2.2-3.3,3.9-5.4l-2.7-2.8l-0.8,0.2l-1-1.5l0.1-0.5l0.9,0.8l1.4-4.4l-0.6-1.5l-1.1,3.5c-1.3-0.9-2.1-2.4-2.2-4.7
		c-0.3-2.7-0.7-4.4-1.2-5.2l-0.8,2.4l-3-2h0.3v3.4H149l-1.2,1.7l-1-0.9h-2.1l0.4-6.4c2.7-0.4,5.3,0,7.7,1c1.6-0.8,3.4-1.3,5.3-1.3
		c1.9,0,3.7,0.4,5.4,1.3c4.3-1.1,8.1-1,11.4,0.2l1.7-0.8l0.8,0.6l1.2-0.8l3.4,2l1.2-1.1l15.8,0.2l0.5,1l2.1-1.8
		c0.5,0.5,1.8,1.1,4,1.7c1.8,0.4,2.9,1.3,3.1,2.5l0.4-0.1c3.8,1.4,7.1,4.6,10.1,9.7c3.1,5.1,4.6,10.1,4.6,15.1
		c0,6.2-2.7,10.3-7.9,12l-1.6,2l-2.1-0.6v-2.9l2.1-0.3l-2.1-3.5l1.2-1.1l0.8,0.8l2.2-2.9l-1.6-0.5l-1.2-1.7l-1.2,1l0.9,0.3l-1.7,2.5
		h-1.7l0.5-1.2l-1-0.8l-1.9,0.4l-1,2.2l1.8,0.2l0.4,2l0.4-2l2.2,2l-1.3-0.7l-0.9,2l0.5,0.7l0.4-0.8l1.3,3.9l-1.3,0.7l1.7,1.4
		l-2.7,1.7c3.2,2.6,6,3.9,8.5,4.2c3.9,3.3,5.8,6.5,5.8,9.6c0,1-0.2,1.9-0.6,2.9l1.3,2l-1.3,0.9C223.8,552.2,224.2,555.6,224.2,558.6
		 M152.8,489.6c0.1,1.6-0.2,2.7-0.8,3l0.4,0.3c-0.3,0.7-1.3,1.1-3.1,1.1c-0.5-0.6-0.7-1.3-0.7-2c0-1.1,0.5-1.9,1.6-2.4
		C150.4,490.6,151.2,490.6,152.8,489.6 M150.8,567.8c-0.4,0.1-0.8,0.6-1.2,1.6c-0.4,1.3-0.7,2-0.7,2h0.8c-0.1-0.1-0.2-0.2-0.2-0.4
		c0-0.4,0.2-0.9,0.7-1.5c0.4-0.6,0.6-1,0.6-1.2C150.9,568.1,150.9,568,150.8,567.8 M150.8,537.3c0,0.6-0.5,1.2-1.5,1.6
		c0.1-0.1,0.2-0.4,0.4-1.1c0.2-0.5,0.4-0.8,0.6-0.8C150.5,537.2,150.7,537.2,150.8,537.3 M149.8,542.8c-0.5-1-0.5-1.8,0-2.5
		c0.3,0.2,0.5,0.6,0.3,1.1C150,541.8,149.9,542.3,149.8,542.8 M152.8,556.8c-0.2,0.1-0.6,0.3-1,0.7c-0.5,0.4-0.9,0.6-1.2,0.6
		c-0.3,0-0.6-0.2-0.8-0.5v1.8h2.2C151.8,558.2,152,557.3,152.8,556.8 M151.5,547c0,0.2-0.2,0.5-0.5,0.8h-0.8l0.6-1.2
		C151.1,546.9,151.3,547,151.5,547 M152.4,567.8c-0.8-0.5-1-1.3-0.7-2.6c0.3-1.3,0.2-2.1-0.2-2.5c0.1,0.4,0,0.7-0.3,1.1l-0.4,0.1
		c0.4,0.3,0.6,1.1,0.7,2.5C151.6,567.5,151.9,568,152.4,567.8 M154.4,515.4c0-0.6-0.2-0.9-0.6-0.9c-0.3,0-0.7,0.3-1,0.9l0.8-0.6
		L154.4,515.4z M153.2,540.9l-0.5,0.5l0.5-2.2V540.9z M153.6,519.7h-0.3v1.5h0.3V519.7z M157.2,563.1c0.1-2-0.1-3.3-0.6-3.8h-0.9
		l0.9,0.4l-0.3,0.3c-0.3-0.1-0.5-0.1-0.7-0.1c-0.9,0-1.6,0.5-2.3,1.6l2.4-1.5L157.2,563.1z M155.5,513L155.5,513
		c-0.2,0-0.3-0.1-0.5-0.4c-0.2-0.3-0.3-0.5-0.6-0.5L155.5,513z M156.6,502.2l-0.9,1l-0.2-2.9c0.3-0.1,0.6,0.1,0.8,0.7
		C156.4,501.9,156.6,502.2,156.6,502.2 M157.9,567.8v-1.4l-1.3-2.1L157.9,567.8z M158.8,544.8l-0.9-1.7c0,0.5,0,0.8,0.2,1.1
		C158.2,544.6,158.5,544.8,158.8,544.8 M164.2,528.8v-0.6h-0.7v0.6c-0.3-0.3-0.5-1.1-0.6-2.2c-1.6,0-2.4-0.4-2.4-1.2
		c-0.2,0.9-0.8,2-1.7,3.4l0.8,1l0.5-0.4l-0.6-0.4l-0.1,0.2c0.5-0.6,1-0.9,1.5-0.9v-0.8c0.5-0.3,1-0.7,1.4-0.9l0.3,0.4
		c-0.6,1.5-1.2,2.2-1.7,2.2c0.3-0.1,0.7-0.2,1-0.2c0.1,0,0.3,0.5,0.4,1.3c0,0.2,0.1,0.5,0.3,0.6
		C162.8,530.2,163.3,529.5,164.2,528.8 M161.3,552.2l-1.2,1.2h0.8L161.3,552.2z M164.2,533.2l-0.3-0.2c-0.2,0.2-0.5,0.3-0.8,0.4
		c-0.4-0.2-0.9-0.5-1.4-1.1c0,1,0.2,1.7,0.5,2.3c0,0.4-0.3,0.8-0.9,1l0.3,0.2L164.2,533.2z M162.9,558h-0.3v1.4h0.3V558z
		 M165.7,548.8l-1.5,1.2c1-0.4,1.4-1.1,1.4-1.8c0-0.5-0.1-1-0.5-1.5l-1.6,0.4L165.7,548.8z M171.4,496.4c0.8-0.3,1.1-0.6,1.1-1.1
		c0-0.5-0.5-1.4-1.6-2.7c-1-1.3-1.6-2.2-1.6-2.7c-0.7,0.5-1.3,0.7-1.7,0.7c-1.7,0-2.7-2.1-2.9-6.4h-0.9c0.6,1.3,1.1,3.5,1.8,6.3
		l0.2-0.6c0.4-0.2,0.7-0.4,1.1-0.4c0.9,0,1.2,0.5,1.2,1.4c0,0.2,0,0.5-0.1,0.7C169.3,491.7,170.4,493.3,171.4,496.4 M176.6,535.1
		l-2.2-0.5l1.3,1c-0.1,0.6-0.3,1.2-0.8,1.8l-0.9-1.1l-0.5,0.5l-0.7-3.5c0-1.1,0.4-1.6,1.2-1.5c-0.6-0.4-1.8-0.8-3.5-1.1
		c-1.6-0.2-2.7-0.7-3.4-1.5c0,0.6,0.9,1.6,2.7,3c-0.7,0-1.3,0.4-2,1.1c-0.9,0.9-1.5,1.3-1.9,1.4l0.4,0.5c0.1-0.2,0.5-0.5,1-1
		c0.5-0.3,0.7-0.7,0.7-1.1c0.8,0,1.6,0.5,2.4,1.4c-0.4,0.2-0.8,0.2-1.1,0.2l0.4,0.5l-2.1,2.2c1.5-0.6,4.1-0.5,8,0.2l0.6-2.5H176.6z
		 M169.4,547.8c-1.2,0-2-0.2-2.3-0.5c0.7,0.3,0.6,1.1-0.3,2.2c0,0.2,0.1,0.4,0.3,0.4L169.4,547.8z M172.8,531.7
		c-0.2,0.2-0.8,0.3-1.7,0.4l-0.5-0.9C170.9,531.5,171.6,531.7,172.8,531.7 M172.4,567.3c-0.2-0.7-0.5-1.4-0.9-2l-0.4,0.4
		L172.4,567.3z M173.3,575.8c-0.1-0.3-0.2-0.8-0.4-1.4c0-0.2,0.1-0.8,0.3-1.9c0.2-0.7,0-1.3-0.4-1.9l-0.4,2.6H172
		c0.3,0.1,0.6,0.6,0.7,1.2C172.9,575.2,173.1,575.6,173.3,575.8 M175.2,540.9c-0.2-0.2-0.3-0.5-0.3-0.7c-0.5,0.1-1,0.4-1.5,0.7
		c-0.2,0.5-0.3,1.1-0.1,1.5L175.2,540.9z M173.5,547v-0.4l-0.3,0.4H173.5z M203.8,527l-0.3,0.2l-1.9-0.6l-1.1,0.9
		c-0.4-1.2-1.1-2-2.2-2.1l1.5-1.4l1.5,1.9c0-1.3,0.9-1.7,2.6-1.3l-0.5-2.2v1.6l-2.5,0.6c-0.3-0.6-1-1.1-1.9-1.5
		c-1.2-0.5-2-0.9-2.3-1.2l0.4-1.3l0.5,0.6l3.7-3l-0.7-2.1l0.7-0.8l-2.4,1l1.7,1.2c-0.3,0.1-1,0.7-2,1.7c-0.9,0.9-1.6,1.3-2.1,1.3
		c-0.4,0-0.7-0.1-1-0.3l1.3-1.4l-0.8-0.4l-1.9,1.8l0.9,1.5c1.5,0,2.4,0.7,2.6,2.1l-1.2,1.2c-1.3-1-2.5-1.2-3.5-0.7
		c-0.7-2.3-1.9-3.6-3.5-4c2.5,0,3.8-1.7,3.8-5c0-0.5-0.1-1.2-0.2-2.2c0-1-0.1-1.6-0.1-2.1c0-1.2,0.2-2.1,0.5-2.8
		c-0.8-2.5-2.9-3.7-6.4-3.7c-0.6,0-1.5,0-2.7,0c-1.2,0.1-2.1,0.1-2.7,0.1c-4,0-6.1-1.7-6.5-5l-1.4,0.5c1.1,0.4,2.4,2.3,3.9,5.4
		l0.5-0.8l0.4,15.7l2.6,0.9l1.6-0.9l0.4,1.7l0.3-0.4l0.9,0.9l-0.9-1.6l1.5-0.6l1.2,2.2l-0.9,0.3l0.5,1l-0.7,1.2l-1.8-0.8v1.3
		l0.8-0.5l0.4,1.2l-4.4,0.9l1.1-2.1c-0.2,0.6-0.7,1.6-1.8,3.2c-1,1.5-1.8,2.3-2.3,2.4l-1.1-1.2h-0.5v1.5l2.7-0.3l1.1,1.4l0.8-0.3
		l0.1-1.2l2.1,2.3l0.2-0.2c-0.8-1.3-1.3-2.2-1.3-2.8c0-0.7,0.7-1.1,2-1.1c1.9,0,3.1-0.1,3.6-0.3l-1.2,1.7l0.7,0.4l1.9-2
		c0.3,1,0.3,1.9,0.2,2.9l-0.2,0.1c0,1.1,0.5,2,1.4,2.5c-0.6,0-1.3,0.5-2,1.6c-0.7,1.1-1.4,1.7-2.2,1.6c-0.3-1.1-1.2-1.9-2.8-2.5
		c-2-0.7-3.1-1.3-3.5-1.7h-0.8l-0.5,1.7c0.2,0,0.5-0.1,0.7-0.1c0.8,0,1.7,0.8,2.7,2.3l-2.6,0.7c0,9,0.2,15.4,0.3,19.1
		c0.7-0.1,1.9,0,3.5,0c1.9,0.2,3.3,0.2,4.2,0.2c5.2,0,8-1.6,8.4-4.9l1.8,2.2c0.4,0,2.1,0.2,5.2,0.8l-0.1-2l0.7-0.4l-0.8-1.6l0.8-0.7
		l-2.4-1.3l-0.8,2.2c-0.6-0.9-1.2-1.9-1.9-2.8c-0.7-1.1-1.6-1.8-2.5-2.1c0-1.7,0.3-3.1,1.2-4.2c1.2,0,1.9,0.7,2.4,2.2
		c0.2,1.2,0.5,2.5,0.8,3.6l0.8-0.4l-1.2-1.2l2.4-2.2l-1.2-0.8l-0.3,1.1c-1.2-1-1.8-1.8-1.8-2.7c0-1,0.7-1.6,2.2-1.6
		c0.4,0,0.8,0.1,1.2,0.2l0.9-0.5c-0.7,0.4-1.4,0.6-2.1,0.6c-1.2,0-2.7-0.9-4.3-2.6c-1.9-2.1-3.3-3.2-4.1-3.6l1.5-1.6l1.2,0.3
		l1.5,1.9c0.4-1.4,0.9-2.1,1.7-2.1v-0.9l-1.4,0.8l-1.5-1.2l0.5-2.6c0.2-0.2,0.4-0.2,0.6-0.2c0.8,0,1.5,0.7,1.8,2l-0.2-1.7l0.7-0.9
		l2.6,0.6l1-1.8l1.6,1.8L203.8,527z M175.2,516c-0.8,0-1.4-0.1-1.7-0.6l0.5,1.9L175.2,516z M176.8,499.4v-1l-1.1-0.2L176.8,499.4z
		 M190.2,524.5c-0.3-0.4-0.7-0.6-1.2-0.6l-0.9,0.9c-0.3,0-0.5-0.5-0.6-1.4c-0.1-0.9-0.5-1.2-1.1-1.2v-1.1c0.4-0.2,0.7-0.4,1.1-0.4
		c0.7,0,1.4,0.4,2,0.9c0.6,0.6,0.9,1.2,0.9,1.8C190.5,523.9,190.4,524.3,190.2,524.5 M192.3,532.1l-0.5,2.2h-0.4l0.4-2.2H192.3z
		 M195.8,539.7c-0.1,0.3-0.5,0.5-1,0.5c-0.5,0-1.2-0.3-2.1-1l-0.4-1.1c0.2-0.1,0.3-0.1,0.5-0.1C193.1,538,194.1,538.7,195.8,539.7
		 M195.2,531.7l-0.3,0.4l-1.2-0.9l0-0.3L195.2,531.7z M198.2,488.8l-0.5,1.7l-0.8-0.9c0.5,0.4,0.7,1.4,0.5,3L198.2,488.8z
		 M198.2,523.1c0,0.7-0.2,1.1-0.5,1.4l-0.2-1.4H198.2z M198.2,499.9h-0.5v-2.1C197.4,498.7,197.5,499.4,198.2,499.9 M199.9,554.6
		c-1.5,0-2.2-0.5-2.2-1.3l0.5-1.8c0.1,0.4,0.4,0.7,1.2,1.1c0.7,0.4,1.2,0.8,1.2,1.1C200.5,554,200.3,554.3,199.9,554.6 M210.6,540.9
		l-2.6-2.4l-0.6,0.4c-0.9-0.3-1.4-1.2-1.5-2.2c-0.5,0.5-1.2,0.8-1.8,0.8c-0.7,0-1.7-0.4-3.1-1.2c-1.4-0.8-2.3-1.1-2.9-1.2
		c0.2,0.4,1.1,1,2.8,1.4c1.5,0.6,2.3,1.1,2.3,1.7c0,0.4-0.1,0.6-0.4,1l1-0.7c1.5,0,2.9,0.3,4.2,0.7l-0.6,0.5L210.6,540.9z
		 M199.9,564c0.1-1.5-0.2-2.3-0.8-2.5l0.5,0.7c-0.7,0.5-1.1,1.3-1.1,2.5c0,1.2,0.3,1.7,1.1,1.7V564H199.9z M199.7,487.4l-0.9-1.2
		v1.2H199.7z M203.1,559.1l-2.1-2.2l-0.2,0.3l2.1,2.2L203.1,559.1z M201.2,573.7c0.3-0.2,0.4-0.5,0.3-1c-0.1-0.4-0.3-0.6-0.7-0.6
		c0.7,0.3,0.7,0.8,0.1,1.7v-0.2H201.2z M206,533l-2.2-3.1l-1,1.3c0.2-0.1,0.4-0.1,0.6-0.1c1.2,0,1.9,1.1,1.9,3.3
		C205.4,533.7,205.6,533.2,206,533 M204.5,520.3c0,0-0.1,0.1-0.2,0.2c-0.1-0.4-0.1-0.9-0.1-1.6C204.3,519.7,204.4,520.1,204.5,520.3
		 M206.3,561.5c-0.1-0.6-0.4-1.3-1-2.2c-0.5-0.9-0.8-1.6-0.8-2.1c0,0.1,0,0.5-0.1,1.2c0,0.7-0.1,1.2,0,1.5c0.1,0.5,0.3,0.7,0.8,0.7
		c-0.1-0.4,0-0.7,0.2-0.9L206.3,561.5z M209.2,512.2c-1.1-0.8-1.9-0.9-2.5-0.2c-0.4,0.8-0.9,1.9-1.6,3.4c0,0.3,0.1,0.5,0.2,0.6
		c-0.2,0.2-0.4,0.6-0.2,1.3c0.5-0.5,0.7-1.3,0.2-2.5c1-0.4,2.1-0.8,3-1V513c-0.2-0.1-0.6-0.3-0.9-0.4L209.2,512.2z M206.3,519
		l-0.9-0.6v2L206.3,519z M208.9,546.6l-1.5-3c0.1,0.5,0.1,0.9-0.2,1.2c-0.2,0.3-0.6,0.5-1.2,0.5c0.4,0.3,1.2,0.9,2.1,1.7
		C208.3,546.7,208.6,546.6,208.9,546.6 M206.7,525.3c0,0.1-0.1,0.8-0.5,1.9c-0.2,0.8-0.2,1.4,0.1,1.9c-0.1-0.4-0.2-0.7-0.2-0.9
		c0-0.3,0.2-0.8,0.5-1.2C206.9,526.4,206.9,525.8,206.7,525.3 M207.3,500.5c-0.2,1.1-0.4,2.6-0.7,4.7c0.1-0.3,0.2-0.9,0.5-1.7
		c0.4-0.8,0.5-1.4,0.5-1.8C207.7,501.3,207.5,500.9,207.3,500.5 M208.9,537.3c-0.8-0.9-1.3-1.6-1.5-2.2
		C207.5,535.8,208,536.5,208.9,537.3 M209.2,563.1v-1.4l-1.9-0.2L209.2,563.1z M209.2,531.2h-0.8v0.9h0.8V531.2z M209.7,549.1v-0.4
		h-1.3L209.7,549.1z M209.7,555.9h-0.5v1.6h0.5V555.9z M215.2,548.2c-0.2-0.1-0.7-1.1-1.6-2.9c-0.7-1.5-1.3-2.3-1.8-2.3
		c-1.3,0-1.9,0.6-1.8,1.7h0.1c-0.1-0.5,0-1,0.5-1.1c0.9,1.3,1.8,3,3,5.1l0.2-0.9L215.2,548.2z M213.6,553.4
		c-0.2-0.8-1.2-1.7-2.7-2.6c0.7,0.4,0.9,1.3,0.9,2.7c0,0.1-0.1,0.3-0.2,0.7c-0.1,0.2,0,0.3,0.3,0.6c0-1.1,0.1-1.6,0.5-1.6
		C213.1,553,213.5,553.1,213.6,553.4 M214.4,511.9l-1.3-3.1c0,1.4-0.5,2.3-1.5,2.8l0.3,0.4C212,511.4,212.8,511.4,214.4,511.9
		 M213.6,506.3c-0.6,0.2-0.9,0.7-0.9,1.6h0.5c0,0.1,0.1,0.2,0.2,0.2c0.1,0,0.2-0.4,0.1-1.2l-0.2-0.2
		C213.3,506.4,213.4,506.3,213.6,506.3 M215.8,522.3v-1.7c-0.8,0-1.3,0-1.4-0.2C214.5,520.9,215,521.6,215.8,522.3 M218.3,559.4
		l-1.6-1.4v0.8C217.4,558.7,217.9,558.9,218.3,559.4 M218.7,514.8l-0.5-0.5l-1.3,1.1c0.1,0.1,0.5,0.7,1.3,1.9v-2.5H218.7z
		 M222.2,560.9c-0.6,0-0.9,0.2-0.9,0.6c-0.1-0.6-0.3-0.9-0.7-0.8c-0.1,0.1-0.2,0.2-0.3,0.2c-0.1-0.2-0.2-0.5-0.2-0.8l2.2-0.7
		c-0.5-0.4-1-0.6-1.4-0.6l0.5-1.5C222,558.9,222.3,560.2,222.2,560.9 M223.3,553.7l-0.9,1.4l-0.2-1.4H223.3z"/>
	<path class="st1" d="M306.4,529.7l-0.8,0.6c0.8,2.2,1.2,4.7,1.1,7.7h-2.4l-1,2.7l1.8,2.8l0.5-0.6l0.8,1.7l-1.3,5.2l1.3,0.3
		c-0.6,1.2-0.8,3.2-0.7,6.1c0.1,2.6-0.3,4.6-1.1,5.9l0.6,0.5l-3,2.6l-0.5-0.4l-0.7,1.3l-0.6-1.6l0.9-3.6l-1.3-0.9l-0.9,4.3l-0.9-0.3
		l-1.6,2.2c-1.4-1.3-2.3-2.9-2.5-4.7h0.8l1,1.7l0.7-1.7l0.8,0.7l0.6-3.5l0.2,0.2l1.3-0.9l-0.4-1.2l-3.3,0.9l0.2,2.3
		c-0.4-2.8-1-4.9-1.9-6.3l-1.3,1.4l1.3,4.6l-1.7,1.2l0.4,0.5c-1.7,0.7-3,1.6-4,2.8h1.4l-1.7,2.6l3.3,3.8l0.9-0.6l1.3,0.6l0.4,1.9
		c-1.4,3.2-6.3,4.8-14.6,4.8c-2.6,0-5.3-0.2-8-0.4l-3.6-0.5c-0.7,0-1.5,0-2.3,0.5l2.6-3.3c-0.7-1.4-1.9-2.6-3.9-3.5
		c-1.1,1.6-1.5,3.7-1.4,6.3c-1.8,0.7-3.7,1-5.8,1c-3.8,0-7.1-1.1-9.9-3.2c-5.9-4.5-10.1-9.7-12.5-15.5c-1.9-4.8-2.9-10.5-2.9-17.5
		c0-2.8,0.2-7.1,0.6-12.8c0.5-6.1,0.7-10.7,0.7-13.6l0.8-0.8c-1.5-2-2.2-4-2.2-6.3c0-5.6,3.6-11.2,10.5-16.9
		c6.7-5.5,12.6-8,17.8-7.8l0.4,3.9c0.3,0.2,0.6,0.3,1,0.3c1.1,0,2.4-0.8,4.2-2.6c1.7-1.6,3-2.5,3.9-2.5c0.9,0,1.8,0.7,2.7,2.1l4-1.2
		l2.6,2.6l-0.2,0.5l1,0.9l-1-0.5l-1.1,2.2l0.8,0.8l-1.3,3.9l0.7,0.1l2.4-2.5l0.8,0.2l0.1,2.3l1.2,1.5l0.5-1.6l-0.5,4.9l3-1.2
		l-1.3-1.5l1.9-1l-1.4-0.9l0.8-2.2l-1.3-0.9l2.4,2.4l2.2-0.9l1.4,0.9v0.6h3.9l2.9-3.6c3.4,1.6,5.9,4.2,7.6,8c1,2.5,2,6.2,2.6,11.1
		h-0.6c0.3,2.7,0.4,6.1,0.2,10.4C306.5,525.5,306.4,528.9,306.4,529.7 M241.5,549.4c-1.1-0.4-2.1-0.1-3.1,0.8c0.6,0,1.1,0.1,1.4,0.2
		c0.3,0,0.8-0.2,1.5-0.5c0.6-0.3,1-0.5,1.3-0.5c0.5,0,0.9,0.2,1.3,0.8c0.5-0.5,0.7-0.8,0.7-1.1c0-0.4-0.2-0.5-0.9-0.5
		C242.7,548.7,241.9,548.9,241.5,549.4 M241.5,504.9c-0.5-1-1-1.5-1.5-1.6c0,0.7,0.1,1.1,0.2,1.3
		C240.4,504.8,240.9,504.9,241.5,504.9 M240.9,546.6v-1.3l-0.4,1.7L240.9,546.6z M249.1,544.4c-0.3-0.4-0.9-0.8-2.1-1.4
		c-0.9-0.4-1.4-1-1.4-1.6c-1.1,0.6-1.7,1.2-1.7,1.8c0,0.2,0.1,0.7,0.4,1.3c0.2,0.6,0.4,1.1,0.4,1.4c0,0.5-0.2,0.9-0.6,1.2
		c-0.2-0.2-0.4-0.6-0.4-1.2c0-0.2,0-0.6,0.1-1.2c0.1-0.5,0.1-0.9,0.1-1.2c0-1.9-0.8-3-2.2-3.4c0.3,0,0.6,0.2,0.9,0.5l0.4-0.9
		l2.2,1.7c0.4-0.1,0.6-0.7,0.4-1.7c0.1,0.5,0.4,1.2,0.8,2.2c0.3-0.1,0.6-0.3,0.8-0.5C247.4,542.3,248.1,543.3,249.1,544.4
		 M252.7,550.2c-1,0.4-2.4,0.9-4.2,1.6c0.3-0.2,0.5-0.6,0.5-1.1c-0.2-0.1-0.3-0.3-0.5-0.5h1.4v-0.8l1.2,1.3c0.4-0.1,0.6-0.3,0.8-0.5
		H252.7z M249.3,506.2h0.5c0.8,0,1.2-0.7,1.2-2c0.1,0.2,0.2,0.3,0.4,0.6C251.5,505,250.8,505.5,249.3,506.2 M252,546l-1.7-2.2
		c0,1.3,0.2,1.9,0.7,1.9c0.2,0,0.3,0,0.6-0.2c0.2,0.2,0.5,0.3,0.9,0.4H252z M251.5,571.5c-0.9,0.7-1.3,1.3-1.3,2.1
		c0,0.4,0.2,0.5,0.4,0.6c0.1-0.2,0.3-0.4,0.7-0.7c-0.2-0.3-0.4-0.5-0.7-0.8C251,572.4,251.2,572,251.5,571.5 M251.5,500.5
		c-0.1-0.4-0.4-0.8-0.9-1.3L251.5,500.5z M290.7,510.1l-0.1-0.4l-3.4,0.8c-0.4-0.8-1.2-1.4-2.5-2.1l-0.5,0.7l-0.9-0.7l-0.8,1.3
		l-0.5-1l-0.8,0.4c-0.7-1.3-1.6-2.1-2.5-2.3l0.9-1.6l-1,1.6l0.5,0.6l-1.6,1.6c-0.2-2.6-1.6-4.4-4.2-5.5c-0.5,0.2-1.7,0.4-3.6,0.6
		c-1.5,0-2.6,0.4-3.2,1.2c-1.2,0-2.1,0.7-2.7,2.2c-0.8,2-1.4,3-1.9,3.4v0.4h0.8v-0.4c0.4,1.7,0.6,4.3,0.3,7.9
		c-0.4,5.2-0.6,8-0.6,8.4c0,2,0.3,3.5,0.7,4.5l-1,0.8l-2-1.4l-0.4,1.1l0.9-0.6l0.9,1.3c-1,1.2-1.6,2.4-1.8,3.3l-1.2-0.2
		c0.1,0.2,0.2,0.7,0.5,1.7c0.2,0.7,0.5,1.1,1,1.2l-1.2,0.8l-2.3-1.2l1.3,1.2l-0.4,1.3h0.1l0.7-0.6l0.8,1.2l-0.3,1.4l0.8,0.7l-2,1.1
		v1.3l1.2,0.6l-2.2,1.6l-3.9-1.5l-1.2,0.5l2.6,1.5l-1.4,0.4l0.9,0.8l1.3-1.7c0.7,0.1,1.7,0.4,3,0.9l0.9-1.9l2.5-0.7
		c0.7,0.8,1.1,3.1,1.3,6.8c0.9,0.8,2.3,1.7,4.4,2.7c1.7,0.2,2.7,0.3,3.1,0.6c0.3,0.3,0.8,1.2,1.5,2.7c0-1.6,1.5-3.1,4.7-4.3
		c1.1-2.4,1.6-6.4,1.8-12.1c0-4.2,0-8.5,0-12.7h0.2l-0.7-0.6v-19.3l1.6-1.7l1.3,1.1l-0.2,1.4l1.7-1.6l0.2,1.2c1.1,0,2,0.1,2.6,0.4
		v0.2l-0.8,1.5l0.8,0.8c1.7-0.6,2.6-1.3,2.5-2.3l0.9-0.2l1.4,0.7l-0.1,0.1L290.7,510.1z M253.7,566.1c-0.7,0.6-1.2,1.6-1.2,2.9
		c-0.4-0.1-0.5-0.7-0.4-1.8L253.7,566.1z M253.2,564l-0.8-1.3v1.3H253.2z M266,495.2c-2.5,0.5-3.8-0.2-3.8-2.2c0-1-0.7-2.2-1.9-3.6
		c-1.2-1.5-1.9-2.7-1.9-3.6c0.1,0.7-0.4,1.9-1.4,3.4c0.8,0.9,1.2,1.7,1.2,2.4c0,0.4-0.2,0.7-0.5,1h-2.2c1.2,0.2,1.8,0.6,1.9,1.3
		c-0.1-0.8-0.1,0-0.1,2.4c0,0.3,0,0.7,0.1,1.2c0.1,0.4,0.1,0.7,0,0.9c-0.1,0.2-0.5,0.5-1,0.8c1.3,1.2,1.3,2.1,0,2.8l-0.9-0.7
		c0,0.7-0.2,1.4-0.7,2.1l0.1,0.2l0.5-0.2c0.1,0.3,0.3,0.7,0.3,0.8c0,0.4-0.3,0.6-0.8,0.7c-0.5,0.1-0.9,0.2-1.5,0.2h2.5
		c0.6,0.8,0.7,2.3,0.3,4.4l1.3-1l-0.3,0.3c-0.4,0-0.7,0-1-0.3c0-0.9,0.4-1.4,1.1-1.4c1,0,1.8,0.5,2.4,1.4c0.1-2.6-0.5-4.4-1.6-5.2
		c0.5-0.5,0.8-1.2,0.8-2c0-0.8,0-1.5-0.1-2.3h0.5c0.2,0.5,0.7,1.1,1.3,1.8l-0.6-0.9c0-0.5,0.4-0.9,1-1.4c0.6-0.5,1-1,1-1.5l-0.4,1
		c-0.6,0.2-1.1,0.4-1.5,0.4c0.1,0-0.7-0.4-2.5-1.4l1.8-1.5l0.9,0.7c0.6-0.2,1-0.2,1.5,0l0.6-0.7L266,495.2z M261.1,523.6
		c-3.5,0.1-5.2-0.9-5.2-3c0-0.2,0-0.5,0.1-1v-0.9c0-1.2-0.4-2.1-1.2-2.7c1,5.9,0.6,9.2-1.2,10c0.4,1.7,0.9,2.9,1.7,3.7
		c0-0.7,0-1.2,0.3-1.5c1.6,0.1,2.8,1,3.5,2.7c0.1-1.1-0.2-1.8-0.6-1.9c-1.2-0.4-1.9-0.7-2-0.7c0.3-0.5,0.9-1.3,1.9-2.2l-0.6-0.2
		C258.4,524.7,259.5,524.1,261.1,523.6 M257.8,534.3c-0.1-0.5-0.4-0.9-0.9-0.9c-0.1,0-0.6,0.1-1.1,0.3c-0.6,0.1-1,0.2-1.3,0.1
		c0.5,0,0.8-0.2,0.8-0.4l0.1-0.2c-0.1-0.2-0.4-0.6-0.9-1.1c0.2-0.1,0.4-0.2,0.5-0.6c-0.1-0.2-0.4-0.6-0.8-1.2
		c0.2,1.3,0.7,1.4,1.5,0.2c0.8-0.3,1.4-0.4,1.9-0.2l-0.5,0.5c0.6,0.2,0.9,0.6,0.9,1.4C257.9,530.8,257.8,531.5,257.8,534.3
		 M257.5,536.1l-0.5-0.5l-0.8,0.5c-0.1-0.1-0.1-0.2-0.2-0.4v-0.1c-0.4-0.3-0.7-0.7-0.7-1l0.3,1.7c0.7-0.7,1.3-0.7,1.6-0.2H257.5z
		 M256.5,512.1h-0.3v1h0.3V512.1z M258.4,553.3v-1.2l-1.9-0.9l-0.3,1.7l0.3-0.5C257.2,552.4,257.8,552.7,258.4,553.3 M258.4,502.8
		l-0.9-1.4c0.2,0,0.5,0.3,0.9,0.7V502.8z M258.7,519.3h-0.3c-0.4-0.2-0.6-0.8-0.6-1.7h-0.3v2.5h0.3L258.7,519.3z M260,559.8
		l-0.9,1.7c-0.6,0-1-0.2-1.3-0.5l0.6,0.8c1.2,0,1.8-0.5,1.8-1.5C260.2,560.1,260.2,559.9,260,559.8 M259.6,492.6h-0.8
		c-0.1,0.1-0.2,0.2-0.3,0.2c-0.2-0.2-0.1-0.5,0.3-1.1c0.2-0.3,0.5-0.4,0.8-0.4V492.6z M261.8,536.1l-1.3,2.1l0.7-2.5L261.8,536.1z
		 M261.8,543.9c-0.3,0.7-0.6,1.2-0.9,1.4l-0.4-0.5L261.8,543.9z M264.7,483.2l-2.1,2.5l-1.4-2.5H264.7z M261.8,542.5l-0.6-1.8
		l0.6,0.3V542.5z M263.3,501.4v-3c-0.5,1.1-0.7,1.8-0.7,2.1C262.6,501,262.8,501.3,263.3,501.4 M268.9,570.7l-0.2-0.8l-0.6-0.7
		l-0.4,0.3l0.9,1.7L268.9,570.7z M269.7,493.6v-0.6h-1.2L269.7,493.6z M268.9,564.8h-0.3v1.6h0.3V564.8z M276.6,491.3
		c-0.7-0.5-1.2-1.6-1.5-3.1c-0.3-1.5-0.7-2.6-1.2-3.2l-1.6,1.3c0.7,0,1.2,0.5,1.5,1.4c0.3,1.1,0.6,1.7,1,1.9c-0.1,0-0.3,0.5-0.7,1.4
		c-0.3,0.5-0.8,0.8-1.4,0.8v2l2.2-2.4c0,0.4,0.1,0.5,0.4,0.7C275.5,491.3,275.9,491.1,276.6,491.3 M276.6,496.9l-1.2,1.3l0.2,0.2
		c-0.8,0.8-1.9,2.1-3.3,3.7c0.3-0.8,1-1.8,2.2-2.8l-0.7-0.3L276.6,496.9z M274.9,560c-0.2-0.4-0.7-0.9-1.4-1.4v2.1
		C274.2,560.6,274.6,560.4,274.9,560 M279.6,562.7v-0.5l-1.6-0.5l-0.1,0.5L279.6,562.7z M305.1,548.7c-0.4,0.4-0.9,1.2-1.4,2.4
		l0.9,1l-1.2,0.3l0.9-0.3c-0.4-0.4-0.8-0.6-1.4-0.6c0-0.4,0.2-0.9,0.5-1.4l-1.8-1.5l0.5-0.5c-0.4-0.3-1-0.6-1.7-1.3
		c-1.5,0.7-2.6,1.8-3.3,3.2c-0.7-0.1-1.3-0.6-1.8-1.3c-0.7-1.2-1.2-1.8-1.2-1.9c0-0.8-0.6-1.5-1.9-2.2c-1.3-0.7-1.9-1.5-1.9-2.3
		c-0.4-0.4-0.8-0.6-1.2-0.6c-0.2,0-0.6,0.1-1.1,0.2c-0.5,0.2-0.9,0.2-1.2,0.2c-1,0-1.9-1-2.6-3.1c1,0.1,1.6-0.2,1.7-0.8
		c0.1-0.2,0.1-1,0.1-2.1l-0.9-0.2l-0.9,0.7c0.4,0.4,0.5,0.8,0.5,1.4h-0.8c0.1-0.2,0.2-0.5,0.2-0.7c0-0.4-0.3-0.9-0.8-1.4
		c-0.5-0.6-0.8-1.1-0.8-1.6c-0.7,0-1.3-0.2-1.7-0.9c-0.4-0.6-0.9-1.2-1.3-1.7c0.4,1,1.5,1.2,3.4,0.6c0,0.7,0.4,1.4,1,1.9
		c0.7,0.6,1,1,1,1.4l0.5-0.4c0.7,0,1.4,0.7,2.2,2c0.8,1.5,1.6,2.1,2.5,2.1c0.4,0,0.9,0,1.4-0.2c1,1,1.3,1.9,1.2,2.5
		c-0.3-1.1-0.7-1.7-1.2-1.7v1.7h-0.6l-0.4,0.8c0,0.2,0.3,0.8,1,1.7l0.2-0.2c0.4,0.4,0.9,0.7,1.5,0.7l0.7-0.7c0.7,1.3,2.1,2.3,4.1,3
		c1.7,0.4,3.5,0.8,5.2,1.3l0.3-0.6c0.1,1.1,0.5,1.7,1.1,1.7C304.8,548.9,304.9,548.8,305.1,548.7 M281.8,540.2l-1.5-1.2l-0.2,0.8
		C281,539.7,281.5,539.8,281.8,540.2 M284.2,486.3l-1.6-1.3l-0.5,0.4c-0.6-0.3-1-0.6-1.3-1c0.1-0.3,0.4-0.5,1.1-0.7
		c0.1-0.1,0.3-0.2,0.5-0.2C283.3,483.4,283.9,484.4,284.2,486.3 M283.3,490.7H282v-1.5L283.3,490.7z M285.5,555.1v-0.5
		c-0.9-0.4-2-0.9-3-1.7c-0.1,0.5,0.3,1,1.2,1.3C284.8,554.8,285.4,555.1,285.5,555.1 M288.1,513.3c-0.8,0-1.3,0.4-1.5,1.1
		c-0.2,0.9-0.3,1.2-0.6,1.2c-0.2,0-0.6-0.1-1.1-0.3l1.4,1.5c0,0.4-0.3,0.7-1,0.8c-0.7,0-1.1,0.2-1.2,0.6c0.3,0.2,0.5,0.3,0.8,0.3
		c0.5,0,1.1-0.4,1.7-1.3l0.6,0.4c0-0.1,0-0.3,0-0.4c0-0.2-0.1-0.3-0.1-0.4C287.1,516.3,287.5,515.2,288.1,513.3 M289.4,485l-2.8,1.6
		l0.6,0.5c-0.4-0.2-0.7-0.2-0.9,0.2c-0.2,0.2-0.3,0.6-0.3,1v-1.7h0.4l0.1-0.5c-0.6-1.2-1.2-1.9-1.8-1.9
		C287.2,484.2,288.8,484.4,289.4,485 M285.5,506.9v-1.2l-0.5,1.7L285.5,506.9z M288.8,547l-1.6-3.9c-0.5,0.9-0.5,1.5,0,2
		C287.4,545.6,287.9,546.2,288.8,547 M288.1,540.2c-0.4,0.2-0.6,0.5-0.6,1.2h-0.4L288.1,540.2z M288.8,499.8h-0.3v2.2h0.3V499.8z
		 M290.2,493.7l-1.4-0.2v5.4C288.8,496,289.2,494.4,290.2,493.7 M292.3,549.4v-0.7l-1.8-0.5L292.3,549.4z M293.1,566.1
		c-0.4,0-0.9,0.1-1.5,0.3l0.8-0.3c0-0.2-0.1-0.6-0.5-0.8c-0.4-0.3-0.5-0.6-0.5-0.8c0-0.4,0.2-0.5,0.5-0.5
		C292.6,564,293,564.7,293.1,566.1 M292.7,486.7l-0.4,1.2l-0.5-0.4L292.7,486.7z M293.1,553.7v-1.3l-0.7,0.5L293.1,553.7z
		 M295.7,510.9c-0.6,0-1.1-0.3-1.5-0.9c-0.3-0.6-0.8-0.8-1.1-0.9C294.2,509.5,295,510.1,295.7,510.9 M295.2,488.3h-1.6v-0.5h1.6
		V488.3z M295.9,542.7c-0.2-0.9-0.6-1.9-1.5-3l1.3,3.3L295.9,542.7z M296.6,550l-1.8-3c0.3-0.1,0.5-0.2,0.7-0.2
		c0.3,0,0.7,0.6,1.3,1.9c0,0.1,0.1,0.2,0.2,0.5C297,549.3,296.9,549.5,296.6,550 M300.3,554.1c-0.3-0.8-1.3-1.1-3-1.1
		c-0.6,0-0.9,0.4-0.9,1.3c0,0.2,0,0.5,0,1c0.1,0.5,0.1,0.8,0.1,1l1.6-1.7l0.9,0.8v-0.3C299.3,554.9,299.8,554.5,300.3,554.1
		 M299.9,568.6c-1.3-0.2-1.7-1-1.2-2.4c0,0.3,0.2,0.6,0.7,0.8c0.4,0.3,0.6,0.6,0.6,1C300,568.1,300,568.4,299.9,568.6 M302.5,556.3
		l-0.4-1.2c0,0.4-0.4,0.9-0.9,1.7c-0.7,0.7-0.9,1.4-0.9,2.1c0,0.2,0,0.5,0.1,0.8c0.5-2.4,1.1-3.5,1.7-3.5
		C302.3,556.3,302.4,556.3,302.5,556.3 M304.3,502.1h-0.6l-0.3,1.2l0.3,0.1L304.3,502.1z M305.5,536.1c0-1.4-0.3-2.3-1-2.8l0.6,2.8
		H305.5z M306.7,540.2l-1.1-1.7c0.3,0.1,0.7,0.3,1.1,0.7V540.2z"/>
	<path class="st1" d="M413,497.6l-1.3,1l1.2,4.3l-1.7,0.8l-1.5-0.9l-0.6,0.5l-2.9-3.4l-1.6,0.8l-1.9-0.8l-0.8,0.7l3.1,1.1v2.1
		l0.4,0.3l1.4-0.8l-0.5-1l2.8,3.5l-0.1-0.2l-0.1,0.7l-0.3,2.2c-0.1,0.6,0,2.8,0.4,6.6c0.5,4.4,0.7,10.5,0.6,18.3
		c-0.2,8.6-0.1,14.7,0.2,18.3l-0.9,0.8c1.1,3,1.4,6.2,0.9,9.8l-0.9,0.4l0.9,1.8c-0.3,1.1-0.5,2.3-0.5,3.6c0,1.1,0.2,2.5,0.4,4.2
		c0.3,2.3,0.6,3.7,0.7,4.3h-42.4c-0.6-2-1.2-5.1-1.9-9.2l-0.5,1.3c-0.5-1.6-1.4-5.2-2.7-10.5c-1-4.4-2.1-7.8-3.3-10.3l1.4-0.5
		l1.8,4.3l1.1-3.2l-0.7-1.2l2.4-0.4l-0.2,3.5l0.6,0.3l1.8-0.8l-1.2-1l1.5-0.7l-1.5-0.9l0.3-0.6l1.7,1.5l-0.2-0.3l0.7-0.1l-1,0.9
		l2.3,1.8l0.5-0.1V547l1.3,1.9l-1.3,1.6h1.6l0.6,1.5l1.7-3l-0.6,1.5l1.7,1.1l2.2-0.9l0.2-0.3l3.5,2.5l1-2.8l-2.2,0.3
		c-3.3-3.1-6.2-4.6-8.6-4.6c-0.6,0-1.1,0.1-1.7,0.2l-1.6-2.6l-3-0.4c-0.5-1.8-1.9-2.9-4.1-3.5l-0.5,2.2l0.7,0.5l-1-0.3l-3.2,2.1
		c0.3-0.6,0.5-1.3,0.5-2.1c0-1.8-0.9-3.6-2.6-5.6c3.1-1.2,4.8-3,4.9-5.4l-1.1-1.4l-0.2,0.1l0.6-2.2l-1.6-0.3l-0.5,3.5h0.5l-0.9,1
		l0.6,1.3l-0.8,0.9l-0.9-1.5l-1.2,1l-1.5-2.7l0.6-2.9l-1.4-2.2l-0.4,0.5l-2.2-4.5l0.6-1.6c-0.3-1.6-0.6-2.8-0.9-3.5
		c-0.5-1.3-1.2-2.2-2.1-2.8c-0.3-2.1-0.6-3.5-0.8-4.2c-0.4-1.6-1.1-2.8-2-3.7c-0.6,1.6-0.9,3.4-0.9,5.4c0,1.4,0.2,3.4,0.6,6.1
		c0.4,2.7,0.6,4.8,0.6,6.1c0,1.1-0.1,2.1-0.2,3.1l-0.7,0.6c1.2,2,1.9,4.3,1.9,6.9c0,3.6-1.1,7.2-3.3,10.8l-0.3-0.4l-2.2,2.2l0.5,0.4
		c0-0.7,0.5-1.2,1.6-1.5c1.2-0.3,2-0.7,2.2-1.2l1.2,3l-0.7,0.9l0.7,2.2l1-0.5v27.1c-3.5,0.3-6.9,0.5-10.4,0.7
		c-4.2,0.1-7.7,0.1-10.5-0.3c0-0.5,0.2-2.3,0.4-5.4c0.2-2.2,0.2-4.1,0.1-5.5l-1.2,1.2l0.6-2.1l-1.7-0.4l-1.2-3.8l0.7-0.4l-0.5-1.9
		l-2.9,2l-0.3-0.2l-1.4-3.6l3,0.1l1.6-1.2c0-0.4-0.1-3.6-0.4-9.7c-0.2-3.9-0.2-7.2,0.2-9.7l0.7-0.6c-1.1-1.1-1.6-2.7-1.6-4.8
		c0-0.5,0.1-1.4,0.2-2.7c0.1-1.2,0.1-2.1,0.1-2.6l0.8-0.5l-0.8-5l1.7-0.5l-2-0.8v-13.5c-1.3-0.3-3-0.5-5.2-0.6V484
		c3.4-0.8,6.5-0.5,9.5,1l2.5-1.3l8.1,1.7c2.4-1.4,7-2.1,13.9-2.1c2.1,0,4.9,0.1,8.3,0.3c3.6,0.1,5.8,0.2,6.6,0.2
		c0.6,1.3,3,8.4,6.8,21.3c3.8,12.9,5.7,19.8,5.7,20.7c3.1,5,4.5,9.7,4.2,14h0.7c0.3,1.5,0.7,3,1,4.5c0.5,1.8,1.3,3.1,2.5,3.6
		l2.5-4.6c-0.3-1-1.2-2.8-2.5-5.3l1.5-1.6c-1.7-3.4-2.5-8.9-2.5-16.8c0-2.6,0.1-6,0.3-10.1c0.3-4.9,0.4-7.7,0.4-8.7l-1.1-1.8l0-2.9
		l1.1-0.4c-0.4-1-0.7-2.1-0.7-3.7c0-0.3,0-0.9,0.1-1.8c0-0.8,0-1.5,0-1.8c0-1.6-0.3-3-0.8-4l1.6-1.4c2.9,1.3,5.5,1.3,8.1,0l4.8,0.9
		l-0.9,0.8l0.6,0.3l-1.2,1.9c1.1,0.5,2.8,1.2,5.2,2.2v-1.5l1.1,0.4l0.6-1.9h0.4l1.8,1.9l0.2-1.9l1.4,0.2l-0.5,0.7h1.7l-3.4-3.6h4
		l0,0.4l-0.6,1.2l1.3,0.5l0.4-2.5h0.9l0.3,4.3c-1.3,1.5-2.1,3.2-2.3,5.2c2,1.1,3,2.6,3,4.5C413.2,497.1,413.1,497.4,413,497.6
		 M323.3,577.5l-3.5-0.4c0.1,0,0.1-0.2,0.1-0.3c0-0.2-0.4-0.8-1.2-1.8c0-0.2,0-0.6,0-1.1c0-0.5,0-1.4-0.1-2.8
		c-0.1-1.3-0.2-2.4-0.2-3.2c0-4.1,1.1-6.2,3.2-6.4c0,0.6,0,1.4,0.2,2.5c0.2,1.1,0.3,1.9,0.3,2.6s-0.2,1.3-0.7,2
		c-0.4,0.7-0.6,1.2-0.6,1.6c0,0.6,0.2,1.2,0.8,2c-0.4,0-0.7,0.2-0.8,0.4l0.8,0.8c-0.4,0-0.7,0.2-0.8,0.4L323.3,577.5z M328.3,529.3
		c0.2-3.7,0.1-5.7-0.3-6.2l-0.7,0.4c0-0.5-0.5-0.9-1.3-1.4c-0.9-0.4-1.3-0.9-1.2-1.5c-0.2-0.1-0.3-0.1-0.4-0.1
		c-0.3,0-0.5,0.3-0.8,0.9c-0.3,0.6-0.5,0.8-0.8,0.8h2.2c0.1,0.3,0.6,1.2,1.5,2.9c0.6,1.2,0.9,2.1,0.9,3c0,0.4-0.1,0.7-0.2,1.2H328.3
		z M324.8,569l-0.6,2.2h-0.5L324.8,569z M334.9,558.9v-1.4h-1.3v1.9l-2.9,0.3l0.6-0.3l0.6,1.2c-0.8,0.8-1.6,1.5-2.3,2.2
		c-0.6-0.6-1.2-1-1.6-1c-0.4,0-0.7,0.3-1,0.9c-0.2,0.5-0.6,0.8-0.8,0.8l1.2-0.3c0.4,0.8,0.8,1.9,1.2,3.5l-0.1-0.1
		c0.2-0.1,0.6-0.4,1.2-1.2c0.5-0.4,1-0.8,1.3-0.8c0.2,0,0.4,0.1,0.6,0.1c-1.3,0-2.4-0.4-3.1-1.3L334.9,558.9z M335.2,525.7
		c0-0.2-0.3-0.5-1-1.1c-0.6-0.6-0.9-1-0.9-1.2c0-0.3,0.2-0.5,0.7-0.6l-0.9-1c-0.3,0.3-0.7,0.4-1.2,0.4c-0.1,0-1.1-0.2-3.1-0.8
		c1.2,0.4,1.8,0.9,1.8,1.4c0,0.8-0.4,1.4-1.3,1.7c0-0.2,0.2-0.3,0.4-0.3c0.2,0,1.1,0.7,2.4,2c0-0.1-0.2-0.5-0.6-1.2
		c-0.3-0.7-0.5-1.2-0.5-1.5c0-0.4,0.2-0.6,0.6-0.7c0.5,0.3,1.3,1.5,2.6,3.4C334.5,526.1,334.9,525.8,335.2,525.7 M332.7,530.4
		l-1.3-2.6v0.5c0,0.2,0.1,0.5,0.5,0.8c0.3,0.4,0.4,0.6,0.4,0.8l-0.5,0.5H332.7z M342.4,493c-0.2,0.2-0.5,0.2-0.7,0.2
		c-0.6,0-1.2-0.5-1.7-1.7c-0.5-1.4-0.9-2.2-1.3-2.4l0.2-0.2l-3-3c0,0.2,0.2,0.6,0.6,1.1c0.4,0.6,0.6,0.9,0.6,1.2s-0.1,0.4-0.3,0.7
		c-0.2-0.4-0.9-1-2-1.8c-1.1-0.7-1.6-1.2-1.7-1.8l0.2,0.6c-0.2,0.4-0.2,0.8-0.2,1.2c0.4-0.2,0.8-0.2,1.2-0.1
		c0.4,0.8,1.5,1.9,3.2,3.1c1.6,1.1,2.5,2.3,2.8,3.4C341.7,494.5,342.3,494.3,342.4,493 M334.9,547l-0.8-1.6v0.9L334.9,547z
		 M338.7,535.8l-0.5-0.5c-0.7-0.2-1.3-0.4-1.6-0.6c0.9,0.9,1.4,1.4,1.7,1.4C338.5,536.1,338.6,536.1,338.7,535.8 M338.2,539.7
		c-0.7,0-1-0.1-1.3-0.5l0.7,1C337.5,539.9,337.8,539.7,338.2,539.7 M342.1,527l-0.3-2.3l-0.6,0.2l0.6,2.2L342.1,527z M348.1,498
		c-1,0-2.5-0.8-4.8-2.5l-0.4,2.1l-0.5-0.2l-0.1-0.2c0,0.5-0.2,1-0.6,1.4c0.7,0.2,1.5,1.9,2.2,4.7h0.2V501h0.3
		c0.7,0.7,1.3,1.5,1.6,2.3l-0.2,0.4c0.2,0.1,0.4,0,0.6-0.2l0.6,0.3c-0.4,1.3-0.3,2,0.2,2c-0.2-0.4-0.2-0.8-0.2-1.2
		c0-0.4,0.1-1,0.2-1.8c0.2-0.8,0.3-1.4,0.3-1.8c0-0.8-0.3-1.5-0.8-2.1L348.1,498z M343.3,539.7h-1.6v0.5h1.6V539.7z M362,495.5
		c-0.6-0.3-1.6-0.2-3,0.4c-1.7-0.5-2.7-1.3-3-2.2l-1.1,2.2c-0.3-0.1-0.7-0.3-1.1-0.4c0.1,0.4,0.1,1.1-0.1,2c-1.1,0-2.5,0.2-4.4,0.5
		l-0.1,0.4l0.1,0.2c0.3-0.1,0.5-0.2,0.8-0.2c0.3,0,0.4,0,0.7,0c0.2,0.1,0.3,0.2,0.3,0.6c0.6-0.6,1.1-0.9,1.6-0.9
		c0.4,0,1.1,0.2,1.9,0.7c0.8,0.5,1.5,0.6,2,0.6c0.6,0,1.2-0.2,1.7-0.7c-1.2,0.1-2-0.1-2.3-0.6c0.5,0,1.2-0.3,2.2-1
		c1-0.7,1.8-1,2.6-1c0.5,0.5,0.7,1,0.7,1.6L362,495.5z M356.6,530.9l-0.7-1l-0.3,0.4c-0.6,0.1-0.9-0.2-0.9-0.9
		c0-0.3,0.2-0.5,0.6-0.6c0.4-0.1,0.6-0.3,0.6-0.5c0-0.2-0.1-0.4-0.5-0.6c-0.3,0.3-0.9,0.6-1.7,0.9
		C353.8,529.2,354.7,529.9,356.6,530.9 M355.7,502.9l-1.3-1.1l0.7,3.4L355.7,502.9z M355.7,509.2v-0.8c-0.2-0.1-0.6-0.3-0.8-0.5v1.3
		H355.7z M358.4,515.3l-2.5-3.4l-0.3,0.3l2.5,3.4L358.4,515.3z M378.2,537.2l-1.8-2.5l-0.2,2.2c-0.2-0.3-1-0.8-2.4-1.5
		c-1-0.5-1.5-1.2-1.6-2l0.8-0.4c-0.7-0.2-1.1-0.7-1.1-1.2c0-0.4,0.2-0.9,0.5-1.7c0.3-0.8,0.4-1.4,0.4-1.9c0-0.5-0.2-0.9-0.7-1.1
		c0.1,0.3,0.1,0.4-0.1,0.4c-0.4,0-1-0.4-1.6-1.1h0.1l0.4,0.6c-0.1,0.6-0.4,0.9-0.8,1l-0.1,0.2l1,1.2l-0.1,0.4
		c-0.3,0.3-0.6,0.4-0.8,0.4c-0.4,0-0.8-0.4-1.3-1.4c-0.4-0.9-0.9-1.4-1.4-1.6l0.3-0.3l-0.1-0.3l-0.5,0.3l-0.6-0.6l-0.1,0.5l0.3,0.2
		l0.3-0.1c-0.8,0.5-1.3,0.7-1.5,0.7c-0.4,0-0.9-0.2-1.5-0.7v1.2c-0.3,0.2-0.5,0.2-0.7,0.2c-0.6,0-0.7-0.5-0.3-1.5l-0.3-0.5l-1.5,1.8
		l0.6,0.4c-0.2,0.9-0.4,1.5-0.6,1.9c-0.3,0.9-0.8,1.4-1.2,1.5c0.2,0,0.6-0.2,1.1-0.2c0.5-0.1,0.9-0.1,1.2-0.1c1,0,1.7,0.8,2.3,2.5
		c0.7,2,1.3,3.2,1.7,3.6c0-0.1,0-0.4,0-0.6c0-1,0.9-1.7,2.8-2.1c-0.6-1.2-0.9-1.8-0.9-1.8c0-0.4,0.3-0.7,0.9-1
		c0.3,0.3,0.8,0.7,1.2,1.1c0.2-0.2,0.5-0.2,0.8-0.2c0.5,0,0.9,0.8,1.2,2.3c0.2,1.6,0.8,2.2,1.6,2h-0.1c0.2,0,0.5,0,0.8,0
		c0.3,0.1,0.4,0.3,0.3,0.5C376.6,538,377.6,537.8,378.2,537.2 M366.6,539.7v-0.5c-0.8,0-1.6-0.5-2.5-1.6c-0.4,0.1-0.8,0.7-1.2,1.3
		c-1.5-0.5-2.4-1.9-2.6-3.9c0.4,0.8,0.8,1.9,1.5,3.5l-0.3,0.7c0.2,0.2,0.4,0.3,0.7,0.3c0.3,0,0.9-0.2,1.6-0.5
		c0.8-0.3,1.3-0.4,1.7-0.4C366,538.6,366.4,538.9,366.6,539.7 M363.7,534.7l-1.3-0.8l-0.4,0.8H363.7z M363.7,530.4
		c-0.2,0-0.5,0.2-0.7,0.5l-0.5-1.3L363.7,530.4z M365.8,516.1c-0.1-0.2-0.3-0.4-0.5-0.5c-0.2,0.2-0.3,0.4-0.6,0.8
		c0.1,0.3,0.2,0.8,0.3,1.3C365.4,517.4,365.6,516.9,365.8,516.1 M366.3,521.1v-1.3c-0.4,0-0.8,0.2-1.2,0.5l0.2-0.1L366.3,521.1z
		 M369.3,563.2l-1.6-1.5c0,1.1-0.1,1.9-0.3,2.3c-0.2,0.2-0.9,0.6-2.1,1.2l0.5,0.4l-0.7,0.9h0.7c-0.1-0.4-0.1-0.7-0.1-0.8
		c0-0.5,0.1-0.8,0.3-0.8c0.1,0,0.4,0.1,0.8,0.3c0.3,0.2,0.6,0.4,0.8,0.4c0.4,0,0.7-0.2,0.7-0.6c0-0.3-0.2-0.6-0.6-0.7L369.3,563.2z
		 M366.6,495.5c-0.6-0.5-1-0.5-1.3,0H366.6z M366.6,531.2c0,0.3-0.1,0.4-0.4,0.5h-0.8C366,531.6,366.4,531.4,366.6,531.2
		 M367.2,512.2c0-1.1-0.2-2.1-0.7-2.7l0.1-0.3c-0.5,0.3-0.8,0.8-0.9,1.3c0.1,0.2,0.1,0.9,0.1,2.1
		C366.4,512.5,366.9,512.4,367.2,512.2 M368.8,517.3l-0.4-0.2l-0.6,2.7h0.6L368.8,517.3z M370,531.2l-1.2-0.8c0.8,0,1.2,0.2,1.2,0.5
		V531.2z M370.9,503.7c0,0.2-0.3,0.5-0.7,1c-0.5,0.5-0.7,0.9-0.7,1.1c0,0.2,0.2,0.4,0.5,0.5C370.2,506,370.5,505.1,370.9,503.7
		 M370,509.2c0.2-0.7,0.1-1.2-0.2-1.3v2.2C369.8,510,369.9,509.6,370,509.2 M374.4,562.7v-0.4c0-0.3-0.6-0.7-1.5-1.1
		c-1-0.4-1.5-1-1.5-1.5l0.3,2.1c0,0.5-0.2,1-0.8,1.1c-0.7,0.2-1,0.4-1.2,0.6l0.1-0.1l0.1,0.6L374.4,562.7z M372.1,552.5l-1.6,2.2
		c0.2,0.2,0.4,0.4,0.5,0.7c0.1,0.2-0.3,1-1,2.1c0.4-0.4,0.8-1.1,1.1-2.4C371.3,553.9,371.7,553,372.1,552.5 M375.2,541l-1.3,1.5
		c0.6-0.2,0.8,0,0.8,0.4l-0.2,1.1c-0.1,0.5,0,0.8,0.2,0.8C374.7,543,374.8,541.8,375.2,541 M374.7,560.5v-1.6l-0.8,1.6H374.7z
		 M377.3,572c0-0.5-0.4-1.1-1.1-1.9c-0.7-0.9-1.1-1.5-1.1-2.1c0-0.2,0.1-0.4,0.2-0.6c1,0.7,1.6,2.1,1.8,4.1c0,0.5,0,0.9,0,1.1
		c-0.1,0.1-0.1,0.4-0.2,0.7C377.1,572.7,377.3,572.3,377.3,572 M377.8,562.7c-0.4-0.7-0.6-2-0.5-3.7c0-1.7-0.1-2.9-0.4-3.6h-1.6v0.5
		l0.5-0.5c1.1,0.4,1.6,1,1.6,1.9c0,0.6-0.3,1.6-0.8,2.8c-0.5,1.3-0.7,2.1-0.7,2.6c0,0.3,0.1,0.5,0.2,0.8h0.2v-1.7h-0.2l0.7-0.3
		C377.4,561.7,377.7,562.1,377.8,562.7 M376.3,564.5l-0.2-0.2l-0.4,1.3l0.4,0.1L376.3,564.5z M378.2,551.7h-0.3v2.4h0.3V551.7z
		 M379.3,536.1l-0.8-1.6l-0.3,0.1l0.9,1.6L379.3,536.1z M381.3,538.5c-0.4-0.4-1.3-0.6-2.8-0.6c1.1,0,1.7,0.4,2.2,1L381.3,538.5z
		 M382,564.4c-0.2-0.1-0.4-0.9-0.8-2c-0.3-1-0.7-1.5-1.1-1.5c-0.1,0-0.5,0.1-0.9,0.2l0.9,0.7c0,0.2-0.6,0.2-1.7,0l0.5,1.5
		c0.6,0,1.4,0.5,2.6,1.4C381.8,564.7,382,564.6,382,564.4 M382,571.2l-1.4-0.9v0.9H382z M382.2,542.5H382c0.1,1-0.2,1.8-0.8,2.3
		C381.5,544.3,381.9,543.6,382.2,542.5 M383.2,573.3l-0.8,2.1c0.5,0,0.8-0.3,0.9-0.8C383.3,574.9,383.3,574.4,383.2,573.3
		 M384.5,571.7v-2.1c-0.5-0.1-0.8,0.2-0.9,0.7C383.6,570.7,383.9,571.2,384.5,571.7 M389.1,565.2l-0.8-0.9l-0.7,0.9
		c-0.9,0.1-1.6-0.1-1.8-0.4c0.3-0.3,0.7-0.8,1.2-1.6c0,0.6-0.3,0.8-1,1c-0.6,0.2-1.2,0.2-1.7,0.4l0.1,0.3l2.5,0.9
		c0.1,0.3-0.2,0.9-0.9,1.7c0.6,0,1.2-0.3,1.6-0.9C388.3,565.8,388.7,565.3,389.1,565.2 M386.7,555.1c-0.6-0.3-0.8-1.2-0.8-2.5
		l-0.5,2.2L386.7,555.1z M394.8,544.3c-0.2,0.4-0.3,0.5-0.6,0.5c-0.7,0-1.6-1.1-2.8-3.4l-0.5,0.5l-1.1-1.5l1.6-1.2h-0.5
		c-1,0.9-1.5,1.8-1.5,2.8c0,0.4,0.2,0.6,0.7,0.6c-0.3,0.4-0.5,0.7-0.5,0.9c0,0.4,0.5,0.8,1.4,1.2c0.9,0.5,1.3,0.9,1.3,1.4
		c0.5-1.1,1.1-1.3,1.7-0.6L394.8,544.3z M392.2,554.1c-0.9,0.4-1.6,0.8-1.7,1.2c-0.3,0.2-0.5,0.6-0.5,1c0.4,0,0.7,0.1,0.8,0.5
		L392.2,554.1z M403.7,563.2l-0.9-4.3c-0.1,0.2-0.2,0.6-0.5,0.8c-1.4,0.1-2.2-0.4-2.2-1.7c0-0.6,0.2-0.9,0.5-1.2l-1.3,0.4
		c-0.2,0.8-0.8,0.9-2,0.4c-1.3-0.5-2.2-0.4-2.6,0.5c-0.7-0.2-1.2-0.4-1.8-0.9l1.3-0.9c-1.2,0.3-1.6,0.9-1.3,1.8
		c-0.2,0.2-0.7,0.2-1.2,0.2l1.2,1c-0.5,0-0.8,0.7-0.9,1.9c-0.1,1.2-0.5,1.8-1.2,1.9l1.4,0.3c0-1.1,0.8-1.9,2.3-2.2
		c1.6-0.4,2.4-0.6,2.4-0.7c0.3,0,0.6,0.1,0.7,0.5l2.1-2.2c0.3,0.4,0.1,1-0.4,1.6l1.1,0.3c1.3-0.3,2.2-0.2,2.8,0.6
		c-0.5,0.9-1.2,1.4-2,1.4c-0.4,0-0.6-0.3-0.5-1h-0.3v1C402.5,562.6,403.6,562.8,403.7,563.2 M395.2,499.9l-2.2-0.4
		c0.9,0.2,1.4,1,1.3,2.2h0.5v-1.6h-0.5L395.2,499.9z M396.9,535.8c-1.4,0.3-2.6,0.4-3.5,0.4C395.3,536.3,396.6,536.1,396.9,535.8
		 M395.4,560.5h-1.4c-0.2-0.3-0.3-0.6-0.3-0.8c0-0.6,0.4-0.9,1-0.9c0.5,0,0.7,0.1,0.7,0.5C395.4,559.4,395.4,559.9,395.4,560.5
		 M396.1,491.3l-0.9-1.2l-1.2,2.1L396.1,491.3z M394.8,561.7h-0.5v1h0.5V561.7z M398.6,497.6l-1.7-2.1l-1.5,2.5L398.6,497.6z
		 M398.6,547c-0.3-0.2-0.7-0.4-1.3-0.4c-0.6-0.1-1.1-0.2-1.2-0.4l1.6,1.6L398.6,547z M399.4,525.8L399.4,525.8
		c-0.8,1.2-0.9,1.8-0.3,1.9C399.1,527.6,399.2,527,399.4,525.8 M401.5,505.3c-0.4-0.5-0.8-0.8-1.2-0.8c-0.1,0.3-0.3,0.7-0.7,1.2
		c-0.4,0.5-0.6,1-0.6,1.3c0,0.2,0.1,0.4,0.3,0.6C399.7,506.4,400.4,505.6,401.5,505.3 M399.8,520.2l-0.7-1.6v2.1
		C399.2,520.4,399.4,520.2,399.8,520.2 M402.8,498.9l-0.5-0.3l-0.8,0.8l-0.9-1.5L402.8,498.9z M404,548.8l-2.4-0.5l1.7,2.2
		C403.5,550.1,403.7,549.5,404,548.8 M405.6,552L405.6,552l-0.1-1.3h-1c-0.1,0.4-0.2,0.7-0.3,1c-0.4,0-0.7,0.1-1,0.3l0.5,0.5
		C404.2,552.5,404.8,552.2,405.6,552 M407.8,491.3l-1.2-1.2c-0.4,0-0.7,0.1-1.1,0.4l-0.8-1.4c-0.8,0.2-1.3,0.5-1.4,0.9
		c0-0.1,0.6,0.9,1.5,2.9l-0.1,0.5c0.6-1.1,0.5-1.8-0.4-1.9c0.6-0.6,1.1-0.9,1.4-0.9c0.1,0,0.4,0.1,0.7,0.2
		C407.1,491.2,407.4,491.3,407.8,491.3 M407.8,559.7c0.1,0.7,0,1.2-0.2,1.2c-0.2,0.1-0.7,0.1-1.5,0.1c-0.2-0.3-0.5-0.7-0.7-1.4
		c0,0.2-0.1,0.2-0.2,0.3c0,0.4,0.3,0.9,0.9,1.3c0.6,0.4,0.9,0.7,0.9,0.9c0,0.2-0.3,0.6-1,1l0.5,0.3
		C407.2,563.2,407.5,562,407.8,559.7 M406.2,497.6l-0.7,1c0.1,0.2,0.2,0.6,0.2,0.8C406.1,499.3,406.2,498.7,406.2,497.6"/>
	<path class="st1" d="M497.2,554.7c-0.8,0.2-1.3,1.6-1.3,4.2c-0.1,1.3-0.4,2.1-1,2.5c0.3,2,0.4,4.4,0.2,7.2
		c-0.3,2.3-0.6,4.8-0.7,7.2l0.6,1.1c-2.1,0-4-0.4-5.7-1.1l-1.5-4.6l0.2-0.9l1.2-0.3l-2.9-2.3c0.2,0.7,0.3,1.9,0.2,3.4
		c-0.2,1.6,0,2.8,0.2,3.5l0.2-0.5v1.3l-0.2-0.5c-0.5,1.3-2.1,2.1-4.9,2.4c-2.1,0.1-4.1,0.1-6.1,0.1c-0.8,0-1.5,0.1-1.9,0.2
		c-1.1-0.8-4.4-1.1-10.1-1.1c-3.7,0.2-7.4,0.3-11,0.5l-2.2-2.8l-0.5,0.7l0.8,2.1l-1.6-1.6l-0.5,0.4l-15.3,0.4l0.4-1.1l-0.8-1.1
		l-0.9,1.7c-2,0.6-4.7,0.7-8,0.4c0.8-2.9,1.6-4.3,2.6-4.3c0.3,0,0.5,0.1,0.7,0.5l2.8-1.3l-1.4-1.1l4.2,0.3v-4.1
		c-0.3,1.3-1.6,2.1-3.9,2.5c-2.5,0.3-4,1.1-4.6,2.1c-0.8-4.4-0.8-9.4,0-14.5l4.3-0.3c0-5.5-0.1-14.2-0.2-26.1
		c-0.2-10.4-0.3-19.2-0.3-26.2l-3.3-0.8c-0.9-4.7-1.3-11.5-1.3-20.4c0.9,0,2.7-0.1,5.3-0.3c2.4-0.2,4.1-0.3,5.5-0.3
		c4,0,7.4,0.7,9.9,2.3c2.8-0.9,5.4-1,7.8-0.5c-1.3,0.2-2.7,1-4.1,2.1c-1.3,1-2.5,2-3.6,3.1l0.9,1.6l0.7-1.3l2.8,3.4l0.9-2.5l1.7,1
		l-1.3,2.1l0.5,1.5c1.7,0.1,2.4-0.5,2.4-1.9c0-0.6-0.1-1.2-0.5-2l2-1.5l0.2,0.9l-0.8,1l1.3,0.2c0.3-2.1,1.3-3.4,3-3.7l-0.8-0.8
		l-2.6,1.5l-0.5-1.2l0.3-1.7l-1.6-1.2c0.4-0.1,2.5-0.2,6.3-0.4c2.6-0.1,4.6-0.5,6.2-1.3l1.9,0.5l-1.3,1.8l0.6,1.1l1.7-2.2l-0.4,0.5
		l-0.1-0.9l1.8,0.3v-1.2l1,0.8l1.1-0.3l1.8,1.2l0.7-1.4h17.4c1.5,17.1,2.2,27.7,2.2,31.6l-16.9-0.6l-1.4-1.6l-2.4,2.1
		c-1.2,0-2.1-1.5-2.6-4.8c-0.7-3.6-1.5-5.8-2.6-6.2c-1.1-0.6-2.4-0.8-4-0.8c-2.3,0-4.7,0.5-7.3,1.3v17c0.4,0,2.5,0,6.1,0.1
		c2.5,0.1,4.5,0.1,6.1,0c2.2-0.1,4.2-0.4,6-0.7v-0.7l4.3,1.7v17.4c-1.2-0.1-4.9-0.4-11-0.9c-4.6-0.4-8.3-0.6-11.1-0.6v20
		c1.5,0.5,5.4,0.6,11.5,0.5l1.3,1.6c0.1-0.7,0.5-1.6,1.1-3c0.6-1.2,1-2.2,1-3h0.3l1.8-9h10.3l0.6,1.8c1-1.4,2.7-2.1,5.2-2.1
		c1.3,0,3.3,0.2,6,0.8C495.7,547.3,496,550.6,497.2,554.7 M427.1,498.9c-0.1,0.1-0.3,0.1-0.6,0.2c-0.3,0-0.8-0.2-1.5-0.9l0.3,2.7
		L427.1,498.9z M436.9,496.5L436.9,496.5c-0.6-0.4-1.2-0.6-1.5-0.6c-0.6,0-1,0.3-1.1,0.9c0,0-0.4,0-0.9,0.1c0.8,0,1.2-0.1,1.2-0.4
		l1.9-0.8v0.4C436.8,496.1,436.8,496.3,436.9,496.5 M445.3,564l-2.2-1.4l0.6-0.4c-0.6,0-1.1-0.1-1.4-0.3c-1,0.2-1.7,1.1-2.4,2.4
		c-0.3,1.2-0.8,2.3-1.2,3.4l-0.5,0.1c-0.3-0.4-0.8-0.7-1.6-1.1l-0.5,1c-0.2,0.1-0.4,0.3-0.4,0.5l1.2,0.7c0,0.3,0.1,0.7,0.3,1.1
		c0.2,0.5,0.2,0.8,0.2,1.1c0,0.5-0.2,0.8-0.8,0.8c-0.2,0-0.5-0.3-0.6-1.1c-0.1-0.7-0.4-1.1-0.7-1.1c-0.2,0-0.3,0-0.7,0.2v0.3
		l0.3,0.3c-0.1,0.3-0.5,0.7-1.4,1l1.4,2.4v-0.3h-0.3c0.1-0.1,1.1-0.5,2.9-1.5c1.4-0.6,2.2-1.4,2.2-2.1c0-0.2-0.1-0.4-0.2-0.7
		l1.2-0.9c0.2-1.5,0.2-3.2,0-5.3C441.8,563.4,443.3,563.6,445.3,564 M439,541c-0.8,1.4-2.1,1.5-3.8,0.4v1.5c0.8,0,1.5-0.2,2.1-0.9
		l0.8,0.9L439,541z M438.2,490.1c-0.2,0-0.5-0.1-0.7-0.2v-0.4c0.2-0.1,0.3-0.3,0.3-0.4c-0.1-0.2-0.3-0.2-0.4-0.2L438.2,490.1z
		 M442.3,557.2c0-1.3-0.8-2.7-2.6-4.1V553l-1.6-1.6l0.5-0.7c1-0.1,1.5-0.6,1.5-1.2c0-0.5-0.3-1.3-1-2.4c-0.7-1.1-1-1.8-1-2.3
		c-0.1,0.2-0.1,0.5-0.1,0.7c0,0.5,0.1,1.2,0.4,2.3c0.4,1.1,0.5,1.8,0.5,2.2c0,1-0.5,1.7-1.6,2.1c0.7,0.6,1,1.7,1,3.4
		c0,1-0.2,1.5-0.6,1.6c0.4,1.7,1.6,3,3.8,3.9c-0.6-1.2-0.6-2.5,0-4.2L442.3,557.2z M440.3,486.1V485l-2.1,3L440.3,486.1z M440.7,539
		v-1.2c-0.3,0-0.4,0.1-0.5,0.6c-0.1,0.4-0.2,0.6-0.5,0.7H440.7z M450,574.2c-0.6-0.5-1.3-1.5-2-3.3c-0.7-1.7-1.6-2.9-2.7-3.5
		l0.9-0.7l-1.7,0.7c-0.2-0.7-0.7-1.7-1.3-2.9c0,0.4-0.1,0.9-0.4,1.4c-0.2,0.5-0.4,0.9-0.4,1.2c0,0.4,0.3,0.9,0.8,1.3l0.6-0.5
		c0.4,0,0.8,0.3,1.2,0.8c-1.3,0.1-2.2,1-2.6,2.6c0.3,0.1,0.6,0,0.7-0.3c0.4,0,1,0.5,1.5,1.2c0.6,0.9,1.1,1.5,1.4,1.6l0.6-0.6
		l-0.4-1.3c0.3,0,0.6-0.1,0.9-0.1c0.6,0,1.1,0.3,1.6,0.8C449.1,573.1,449.6,573.7,450,574.2 M448.4,492.6c-0.8-0.3-1.7,0-2.8,1
		c0.1,0.2,0.2,0.3,0.4,0.5l1.1-1.5c0.4,0.5,0.8,1,1,1.5C448.1,493.3,448.2,492.8,448.4,492.6 M447.1,571.7c0.1-0.2-0.3-0.2-0.8-0.2
		c-0.3,0-0.5-0.2-0.5-0.5c0-0.1,0.1-0.3,0.2-0.6c0,0.1,0.2,0.2,0.6,0.3c0.5,0.1,0.7,0.3,0.7,0.6
		C447.2,571.5,447.2,571.6,447.1,571.7 M453.5,488l-3.9,1v-1H453.5z M453,509.1v-1.9c0,0.3-0.1-0.3-0.2-1.9l-0.5,3.8H453z
		 M453,487.2h-0.2v-1.2h0.2V487.2z M463.2,531.4c0-0.5-0.3-1.3-1-2.6c-0.7-1.1-1.1-1.9-1.1-2.5V526c-1.1,0-1.8-0.2-1.9-0.6l0.3-0.2
		c0.1-0.3,0.4-0.7,0.7-1.2c0.2-0.7,0.1-1.1-0.4-1.1c-0.9,0-1.3,0.5-1.3,1.5c0,1.2-0.2,2-0.5,2.2l1-0.6c0.3,0,0.6,0.2,0.9,0.5
		c0.4,0.6,0.7,0.9,0.7,0.9l-2.1,1.9c-0.2-0.3-0.4-0.6-0.5-1c-0.4,0.4-0.6,0.7-0.6,1.1c0.7,0.2,1.5,0.7,2.3,1.5
		c-0.3,0.1-0.6,0.4-0.7,1c-0.1,0.7-0.3,1-0.6,1.1c0.8,0,1.4-0.1,1.7-0.4c0.5,0.1,1.1,0.9,1.8,2.5c0-0.5-0.4-1.3-1-2.2
		c-0.7-1-1-1.7-1-2.1c0-0.5,0.3-1,0.7-1.4c1.5,0,2.2,0.4,2.2,1.1c0,0.4-0.2,0.7-0.7,1H463.2z M466.7,485.9h-0.5l-0.8,1.7l0.3,0.2
		L466.7,485.9z M476,510.1c-0.8-0.4-1.3-0.9-1.3-1.7c0-0.4,0.2-1,0.4-1.8c0.3-0.8,0.4-1.4,0.4-1.8c0-1-0.6-1.6-2-1.9l0.7-0.8
		c0.1-1-0.2-1.7-0.7-2.2c0.2,0.4,0.2,1,0,1.7c-0.2,0.9-0.3,1.4-0.3,1.5c0,0.3,0.2,0.6,0.5,0.7l-0.2,0.4c0.6,0.4,0.8,0.9,0.8,1.5
		c0,0.3-0.1,0.9-0.5,1.6c-0.4,0.8-0.5,1.4-0.5,1.9c0,0.4,0.2,0.9,0.5,1.4C475.1,510.6,475.8,510.5,476,510.1 M478.2,511.4l-1.1-0.9
		l0.5,1.1L478.2,511.4z M478.2,565.7v-3c-0.6,0.1-0.9,0.3-0.9,0.7c0,0.3,0.1,0.6,0.4,1.2C478.1,565.1,478.2,565.5,478.2,565.7
		 M480.6,490.5l-0.7-0.8l-0.9,0.4L480.6,490.5z M483.3,572c-0.3-0.8-0.5-1.5-0.7-2.3c-0.4-0.8-1.1-1.3-2-1.3c1.9,1.9,2.8,3,2.7,3.3
		C483.3,571.8,483.3,571.9,483.3,572 M484.8,561c-0.6,0-1-0.4-1.3-1.1c-0.3-1.1-0.6-1.7-0.8-1.8c0.2,0.5,0.4,1.2,0.6,1.8
		C483.7,560.7,484.2,561.1,484.8,561 M485.6,563.2h-1.5l0.4,0.2l0.8-0.8L485.6,563.2z M490,512.2c0-0.7-0.5-1.3-1.5-1.9
		c-0.9-0.7-1.5-1.2-1.5-1.8c-0.2,0.3-0.3,0.7-0.3,0.8c0,0.5,0.6,0.8,1.7,1.3C489.4,510.9,490,511.5,490,512.2 M489.6,572l-0.5,0.6
		v1.3L489.6,572z M494.3,574.2c-0.2-0.2-0.6-0.4-1.2-0.4v1.1L494.3,574.2z"/>
	<path class="st2" d="M195,204.7c0,0-29.2-2.6-31.5,29.6c0,0-2,28.2,28.5,29.2L195,204.7z"/>
	<path class="st3" d="M198.6,270.5l-6.7-0.2c-11.3-0.3-20.2-4-26.4-10.9c-9.6-10.7-8.8-25.1-8.7-25.6c1.8-26.5,20.1-35.9,36.6-35.9
		c1.4,0,2.2,0.1,2.2,0.1l6.4,0.7l-0.3,6.4L198.6,270.5z M187.8,212c-7.5,1.5-16.2,6.7-17.4,22.6c0,0.1-0.4,9.4,5.3,15.6
		c2.5,2.7,5.8,4.5,9.9,5.5L187.8,212z"/>
	<path class="st2" d="M388.8,95.6c0,0-125.4-39.8-182,64.6c0,0-18.9,36.7-11.8,72.3c0,0-0.4,25.4-28.8,44.8c0,0-35.9,24.7,10.7,73.9
		c0,0,87.2,111.1,255.4,1.9c0,0,80-61.8,51-150.5C483.3,202.6,449.2,111.7,388.8,95.6"/>
	<path class="st4" d="M292.7,411.4L292.7,411.4c-77.8,0-119.1-48-123.5-53.4c-19.3-20.5-28.1-40.1-26.2-58.3
		c2.1-19.6,15.8-29.7,17.4-30.8c20.9-14.2,23.8-31.6,24.3-35.7c-6.9-38.1,12.2-75.9,13.1-77.6c34.8-64.2,93.4-77.7,136.4-77.7
		c31.1,0,54.7,7,57.5,7.9c64.6,17.4,99.7,109.3,101.2,113.2l0.2,0.4c30.9,94.5-53.6,161.2-54.4,161.8l-0.7,0.5
		C387.1,394.7,338.2,411.4,292.7,411.4 M334.2,98.4c-37.5,0-88.4,11.6-118.3,66.7c-0.1,0.2-17,33.9-10.9,65.4l0.2,1.1v1.1
		c0,1.2-0.9,31-33.3,53.1c-0.2,0.1-7.6,5.7-8.6,16.4c-1.1,11.8,6.2,26.4,21,42l0.6,0.7c1.5,1.8,37.4,46,107.7,46
		c41.4,0,86.4-15.5,133.6-46.1c5.9-4.6,72.8-60.1,47.3-138.9c-1.7-4.5-34.1-86.3-87.4-100.5l-0.4-0.2
		C385.5,105.3,363.2,98.4,334.2,98.4"/>
	<path class="st4" d="M274.1,367.9c-8.2,0-16.2-0.6-24.2-1.9c-68.7-10.6-103.2-63.4-104.5-65.6l14.3-9.2c0.3,0.4,32.1,48.7,93.1,58
		c53.4,8.1,113-14.9,177.2-68.5l10.9,13.1C382,343,326,367.9,274.1,367.9"/>
	<path class="st4" d="M260.9,248.7l67.3-25.1c0,0,12,54.1-26.1,64.5C302,288.2,268.8,294.3,260.9,248.7"/>
	<path class="st4" d="M228.5,249.3l-20-24.5c0,0-14,15.1-6,33.9C202.6,258.7,208.5,275,228.5,249.3"/>
	<path class="st2" d="M318.3,252.7c0,7-5.7,12.7-12.7,12.7c-7,0-12.7-5.7-12.7-12.7c0-7.1,5.7-12.7,12.7-12.7
		C312.7,240,318.3,245.7,318.3,252.7"/>
	<path class="st2" d="M227.5,242.4c0,3.7-3,6.7-6.7,6.7c-3.7,0-6.7-3-6.7-6.7c0-3.7,3-6.7,6.7-6.7
		C224.5,235.8,227.5,238.7,227.5,242.4"/>
	<path class="st0" d="M301,154.7c0,0,53.9-7.5,62,45.4c0,0,13.2,58.8-9.4,84.8c0,0,42.1-32.1,68.9-5.1c0,0,28,44.4-25.7,91.9
		c0,0,106.5-40.2,88.2-152.5c0,0-32-174.2-202.8-120.6c0,0-55,20.8-80.9,69c0,0,18.1-25.2,37.6-12l11.4,15.4
		C250.4,170.9,284.5,156.5,301,154.7"/>
	<path class="st2" d="M413.4,209.8c0,0,33.7-13.2,49.9,24.1c0,0,14.3,33-21.7,44.7L413.4,209.8z"/>
</g>
</svg>
